<svg width="300" height="200" viewBox="0 0 300 200" fill="none" xmlns="http://www.w3.org/2000/svg">
<path d="M275 10H25C16.7157 10 10 16.7157 10 25V175C10 183.284 16.7157 190 25 190H275C283.284 190 290 183.284 290 175V25C290 16.7157 283.284 10 275 10Z" fill="#1F1F1C" stroke="#373734" stroke-width="3.75"/>
<path opacity="0.5" d="M272.768 12.25H27.2321C19.0958 12.25 12.5 17.2868 12.5 23.5V31C12.5 37.2132 19.0958 42.25 27.2321 42.25H272.768C280.904 42.25 287.5 37.2132 287.5 31V23.5C287.5 17.2868 280.904 12.25 272.768 12.25Z" fill="#2F2F2D"/>
<path d="M26 32.5C29.0376 32.5 31.5 30.0376 31.5 27C31.5 23.9624 29.0376 21.5 26 21.5C22.9624 21.5 20.5 23.9624 20.5 27C20.5 30.0376 22.9624 32.5 26 32.5Z" fill="#F09090"/>
<path d="M42 32.5C45.0376 32.5 47.5 30.0376 47.5 27C47.5 23.9624 45.0376 21.5 42 21.5C38.9624 21.5 36.5 23.9624 36.5 27C36.5 30.0376 38.9624 32.5 42 32.5Z" fill="#F5C060"/>
<path d="M59 32.5C62.0376 32.5 64.5 30.0376 64.5 27C64.5 23.9624 62.0376 21.5 59 21.5C55.9624 21.5 53.5 23.9624 53.5 27C53.5 30.0376 55.9624 32.5 59 32.5Z" fill="#70C070"/>
<path d="M102.5 70H42.5C38.3579 70 35 73.3579 35 77.5V162.5C35 166.642 38.3579 170 42.5 170H102.5C106.642 170 110 166.642 110 162.5V77.5C110 73.3579 106.642 70 102.5 70Z" fill="#2A2A28" stroke="#373734" stroke-width="2.5"/>
<path d="M96.25 82.5H48.75C46.6789 82.5 45 84.1789 45 86.25V88.75C45 90.8211 46.6789 92.5 48.75 92.5H96.25C98.3211 92.5 100 90.8211 100 88.75V86.25C100 84.1789 98.3211 82.5 96.25 82.5Z" fill="#555553"/>
<path opacity="0.6" d="M86.25 102.5H48.75C46.6789 102.5 45 104.179 45 106.25C45 108.321 46.6789 110 48.75 110H86.25C88.3211 110 90 108.321 90 106.25C90 104.179 88.3211 102.5 86.25 102.5Z" fill="#3C3C39"/>
<path opacity="0.5" d="M91.25 120H48.75C46.6789 120 45 121.679 45 123.75C45 125.821 46.6789 127.5 48.75 127.5H91.25C93.3211 127.5 95 125.821 95 123.75C95 121.679 93.3211 120 91.25 120Z" fill="#3C3C39"/>
<path d="M272.5 70H137.5C133.358 70 130 73.3579 130 77.5V107.5C130 111.642 133.358 115 137.5 115H272.5C276.642 115 280 111.642 280 107.5V77.5C280 73.3579 276.642 70 272.5 70Z" fill="#282825" stroke="#373734" stroke-width="2.5"/>
<path opacity="0.3" d="M238.75 82.5H146.25C144.179 82.5 142.5 84.1789 142.5 86.25V88.75C142.5 90.8211 144.179 92.5 146.25 92.5H238.75C240.821 92.5 242.5 90.8211 242.5 88.75V86.25C242.5 84.1789 240.821 82.5 238.75 82.5Z" fill="#E8501A"/>
<path opacity="0.5" d="M263.75 100H146.25C144.179 100 142.5 101.679 142.5 103.75C142.5 105.821 144.179 107.5 146.25 107.5H263.75C265.821 107.5 267.5 105.821 267.5 103.75C267.5 101.679 265.821 100 263.75 100Z" fill="#393936"/>
<path opacity="0.5" d="M196.75 23.25H79.25C77.1789 23.25 75.5 24.9289 75.5 27C75.5 29.0711 77.1789 30.75 79.25 30.75H196.75C198.821 30.75 200.5 29.0711 200.5 27C200.5 24.9289 198.821 23.25 196.75 23.25Z" fill="#3C3C39"/>
<path d="M192.5 130H137.5C133.358 130 130 133.358 130 137.5V162.5C130 166.642 133.358 170 137.5 170H192.5C196.642 170 200 166.642 200 162.5V137.5C200 133.358 196.642 130 192.5 130Z" fill="#282825" stroke="#373734" stroke-width="2.5"/>
<path d="M183.75 142.5H146.25C144.179 142.5 142.5 144.179 142.5 146.25C142.5 148.321 144.179 150 146.25 150H183.75C185.821 150 187.5 148.321 187.5 146.25C187.5 144.179 185.821 142.5 183.75 142.5Z" fill="#484846"/>
<path opacity="0.6" d="M173.75 157.5H146.25C144.179 157.5 142.5 159.179 142.5 161.25C142.5 163.321 144.179 165 146.25 165H173.75C175.821 165 177.5 163.321 177.5 161.25C177.5 159.179 175.821 157.5 173.75 157.5Z" fill="#393936"/>
<path d="M273 130.25H223C218.858 130.25 215.5 133.608 215.5 137.75V162.75C215.5 166.892 218.858 170.25 223 170.25H273C277.142 170.25 280.5 166.892 280.5 162.75V137.75C280.5 133.608 277.142 130.25 273 130.25Z" fill="#282825" stroke="#373734" stroke-width="2.5"/>
<path d="M237.119 156.43C236.329 156.43 235.594 156.285 234.914 155.995C234.244 155.705 233.659 155.305 233.159 154.795C232.669 154.275 232.284 153.665 232.004 152.965C231.724 152.265 231.584 151.495 231.584 150.655C231.584 149.825 231.719 149.06 231.989 148.36C232.269 147.65 232.659 147.04 233.159 146.53C233.659 146.01 234.244 145.61 234.914 145.33C235.584 145.04 236.319 144.895 237.119 144.895C237.909 144.895 238.614 145.03 239.234 145.3C239.864 145.57 240.394 145.925 240.824 146.365C241.254 146.795 241.564 147.265 241.754 147.775L240.164 148.525C239.924 147.925 239.539 147.44 239.009 147.07C238.489 146.69 237.859 146.5 237.119 146.5C236.379 146.5 235.724 146.675 235.154 147.025C234.584 147.375 234.139 147.86 233.819 148.48C233.509 149.1 233.354 149.825 233.354 150.655C233.354 151.485 233.509 152.215 233.819 152.845C234.139 153.465 234.584 153.95 235.154 154.3C235.724 154.64 236.379 154.81 237.119 154.81C237.859 154.81 238.489 154.625 239.009 154.255C239.539 153.885 239.924 153.4 240.164 152.8L241.754 153.55C241.564 154.05 241.254 154.52 240.824 154.96C240.394 155.4 239.864 155.755 239.234 156.025C238.614 156.295 237.909 156.43 237.119 156.43ZM243.574 156.25V145.075H245.224L249.424 150.895H248.599L252.724 145.075H254.374V156.25H252.619V147.16L253.279 147.34L249.064 153.1H248.884L244.759 147.34L245.344 147.16V156.25H243.574ZM260.599 156.43C259.899 156.43 259.249 156.3 258.649 156.04C258.049 155.77 257.539 155.405 257.119 154.945C256.699 154.485 256.389 153.955 256.189 153.355L257.689 152.725C257.959 153.415 258.354 153.945 258.874 154.315C259.394 154.685 259.994 154.87 260.674 154.87C261.074 154.87 261.424 154.81 261.724 154.69C262.024 154.56 262.254 154.38 262.414 154.15C262.584 153.92 262.669 153.655 262.669 153.355C262.669 152.945 262.554 152.62 262.324 152.38C262.094 152.14 261.754 151.95 261.304 151.81L259.204 151.15C258.364 150.89 257.724 150.495 257.284 149.965C256.844 149.425 256.624 148.795 256.624 148.075C256.624 147.445 256.779 146.895 257.089 146.425C257.399 145.945 257.824 145.57 258.364 145.3C258.914 145.03 259.539 144.895 260.239 144.895C260.909 144.895 261.519 145.015 262.069 145.255C262.619 145.485 263.089 145.805 263.479 146.215C263.879 146.625 264.169 147.1 264.349 147.64L262.879 148.285C262.659 147.695 262.314 147.24 261.844 146.92C261.384 146.6 260.849 146.44 260.239 146.44C259.869 146.44 259.544 146.505 259.264 146.635C258.984 146.755 258.764 146.935 258.604 147.175C258.454 147.405 258.379 147.675 258.379 147.985C258.379 148.345 258.494 148.665 258.724 148.945C258.954 149.225 259.304 149.435 259.774 149.575L261.724 150.19C262.614 150.46 263.284 150.85 263.734 151.36C264.184 151.86 264.409 152.485 264.409 153.235C264.409 153.855 264.244 154.405 263.914 154.885C263.594 155.365 263.149 155.745 262.579 156.025C262.009 156.295 261.349 156.43 260.599 156.43Z" fill="#E8501A"/>
</svg>
