<svg width="300" height="214" viewBox="0 0 300 214" fill="none" xmlns="http://www.w3.org/2000/svg">
<path d="M25 32.5859H275L187.5 107.586V182.586H112.5V107.586L25 32.5859Z" fill="#1F1F1C" stroke="#373734" stroke-width="3.75" stroke-linejoin="round"/>
<path opacity="0.7" d="M60 62.5859H240" stroke="#373734" stroke-width="2.5"/>
<path opacity="0.5" d="M94 92.5859H206" stroke="#373734" stroke-width="2.5"/>
<path d="M150 195.836C156.075 195.836 161 190.911 161 184.836C161 178.761 156.075 173.836 150 173.836C143.925 173.836 139 178.761 139 184.836C139 190.911 143.925 195.836 150 195.836Z" fill="#E8501A"/>
<path d="M150 169.336C158.56 169.336 165.5 176.276 165.5 184.836C165.5 193.396 158.56 200.336 150 200.336C141.44 200.336 134.5 193.396 134.5 184.836C134.5 176.276 141.44 169.336 150 169.336Z" stroke="#E8501A" stroke-opacity="0.3" stroke-width="9"/>
<path opacity="0.3" d="M150 212.586C165.188 212.586 177.5 200.274 177.5 185.086C177.5 169.898 165.188 157.586 150 157.586C134.812 157.586 122.5 169.898 122.5 185.086C122.5 200.274 134.812 212.586 150 212.586Z" stroke="#E8501A" stroke-width="2" stroke-dasharray="4 4"/>
<path opacity="0.4" d="M177.154 0H122.154C118.012 0 114.654 3.35786 114.654 7.5V17.5C114.654 21.6421 118.012 25 122.154 25H177.154C181.296 25 184.654 21.6421 184.654 17.5V7.5C184.654 3.35786 181.296 0 177.154 0Z" fill="#555553"/>
<path d="M129.658 17.75H126.292V6.84091H129.807C130.866 6.84091 131.771 7.0593 132.524 7.49609C133.277 7.92933 133.854 8.55256 134.255 9.36577C134.656 10.1754 134.857 11.1449 134.857 12.2741C134.857 13.4105 134.655 14.3888 134.25 15.2092C133.845 16.0259 133.256 16.6545 132.481 17.0948C131.707 17.5316 130.766 17.75 129.658 17.75ZM127.613 16.5781H129.573C130.475 16.5781 131.222 16.4041 131.816 16.0561C132.409 15.7081 132.851 15.2127 133.142 14.57C133.433 13.9272 133.579 13.1619 133.579 12.2741C133.579 11.3935 133.435 10.6353 133.147 9.99964C132.86 9.36044 132.43 8.87038 131.858 8.52947C131.286 8.18501 130.574 8.01278 129.722 8.01278H127.613V16.5781ZM139.31 17.9418C138.792 17.9418 138.321 17.8441 137.899 17.6488C137.476 17.4499 137.14 17.1641 136.892 16.7912C136.643 16.4148 136.519 15.9602 136.519 15.4276C136.519 14.9588 136.611 14.5788 136.796 14.2876C136.981 13.9929 137.227 13.7621 137.536 13.5952C137.845 13.4283 138.186 13.304 138.559 13.2223C138.936 13.1371 139.314 13.0696 139.694 13.0199C140.191 12.956 140.594 12.908 140.903 12.8761C141.215 12.8406 141.443 12.782 141.585 12.7003C141.73 12.6186 141.803 12.4766 141.803 12.2741V12.2315C141.803 11.706 141.659 11.2976 141.372 11.0064C141.088 10.7152 140.656 10.5696 140.077 10.5696C139.477 10.5696 139.007 10.701 138.666 10.9638C138.325 11.2266 138.085 11.5071 137.947 11.8054L136.753 11.3793C136.966 10.8821 137.251 10.495 137.606 10.218C137.964 9.9375 138.355 9.74219 138.778 9.6321C139.204 9.51846 139.623 9.46165 140.035 9.46165C140.297 9.46165 140.599 9.49361 140.94 9.55753C141.285 9.6179 141.617 9.74396 141.936 9.93572C142.259 10.1275 142.528 10.4169 142.741 10.804C142.954 11.1911 143.06 11.7095 143.06 12.3594V17.75H141.803V16.642H141.739C141.654 16.8196 141.512 17.0096 141.313 17.212C141.114 17.4144 140.85 17.5866 140.519 17.7287C140.189 17.8707 139.786 17.9418 139.31 17.9418ZM139.502 16.8125C139.999 16.8125 140.418 16.7148 140.759 16.5195C141.104 16.3242 141.363 16.0721 141.537 15.7631C141.714 15.4542 141.803 15.1293 141.803 14.7884V13.6378C141.75 13.7017 141.633 13.7603 141.452 13.8136C141.274 13.8633 141.068 13.9077 140.834 13.9467C140.603 13.9822 140.377 14.0142 140.157 14.0426C139.941 14.0675 139.765 14.0888 139.63 14.1065C139.303 14.1491 138.998 14.2184 138.714 14.3143C138.433 14.4066 138.206 14.5469 138.032 14.7351C137.861 14.9197 137.776 15.1719 137.776 15.4915C137.776 15.9283 137.938 16.2585 138.261 16.4822C138.588 16.7024 139.001 16.8125 139.502 16.8125ZM148.913 9.56818V10.6335H144.673V9.56818H148.913ZM145.909 7.60795H147.166V15.4062C147.166 15.7614 147.217 16.0277 147.32 16.2053C147.427 16.3793 147.562 16.4964 147.725 16.5568C147.892 16.6136 148.068 16.642 148.252 16.642C148.391 16.642 148.505 16.6349 148.593 16.6207C148.682 16.603 148.753 16.5888 148.806 16.5781L149.062 17.7074C148.977 17.7393 148.858 17.7713 148.705 17.8033C148.552 17.8388 148.359 17.8565 148.125 17.8565C147.769 17.8565 147.421 17.7802 147.081 17.6275C146.743 17.4748 146.463 17.2422 146.239 16.9297C146.019 16.6172 145.909 16.223 145.909 15.7472V7.60795ZM153.212 17.9418C152.693 17.9418 152.223 17.8441 151.8 17.6488C151.377 17.4499 151.042 17.1641 150.793 16.7912C150.545 16.4148 150.42 15.9602 150.42 15.4276C150.42 14.9588 150.513 14.5788 150.697 14.2876C150.882 13.9929 151.129 13.7621 151.438 13.5952C151.747 13.4283 152.088 13.304 152.46 13.2223C152.837 13.1371 153.215 13.0696 153.595 13.0199C154.092 12.956 154.495 12.908 154.804 12.8761C155.117 12.8406 155.344 12.782 155.486 12.7003C155.632 12.6186 155.704 12.4766 155.704 12.2741V12.2315C155.704 11.706 155.561 11.2976 155.273 11.0064C154.989 10.7152 154.557 10.5696 153.979 10.5696C153.378 10.5696 152.908 10.701 152.567 10.9638C152.226 11.2266 151.986 11.5071 151.848 11.8054L150.655 11.3793C150.868 10.8821 151.152 10.495 151.507 10.218C151.866 9.9375 152.256 9.74219 152.679 9.6321C153.105 9.51846 153.524 9.46165 153.936 9.46165C154.199 9.46165 154.501 9.49361 154.842 9.55753C155.186 9.6179 155.518 9.74396 155.838 9.93572C156.161 10.1275 156.429 10.4169 156.642 10.804C156.855 11.1911 156.962 11.7095 156.962 12.3594V17.75H155.704V16.642H155.641C155.555 16.8196 155.413 17.0096 155.214 17.212C155.016 17.4144 154.751 17.5866 154.421 17.7287C154.09 17.8707 153.687 17.9418 153.212 17.9418ZM153.403 16.8125C153.9 16.8125 154.32 16.7148 154.66 16.5195C155.005 16.3242 155.264 16.0721 155.438 15.7631C155.616 15.4542 155.704 15.1293 155.704 14.7884V13.6378C155.651 13.7017 155.534 13.7603 155.353 13.8136C155.175 13.8633 154.969 13.9077 154.735 13.9467C154.504 13.9822 154.279 14.0142 154.059 14.0426C153.842 14.0675 153.666 14.0888 153.531 14.1065C153.204 14.1491 152.899 14.2184 152.615 14.3143C152.334 14.4066 152.107 14.5469 151.933 14.7351C151.763 14.9197 151.677 15.1719 151.677 15.4915C151.677 15.9283 151.839 16.2585 152.162 16.4822C152.489 16.7024 152.903 16.8125 153.403 16.8125ZM164.966 6.84091V17.75H163.645V6.84091H164.966ZM168.702 12.8281V17.75H167.445V9.56818H168.659V10.8466H168.766C168.957 10.4311 169.248 10.0973 169.639 9.84517C170.03 9.58949 170.534 9.46165 171.152 9.46165C171.706 9.46165 172.191 9.57528 172.606 9.80256C173.022 10.0263 173.345 10.3672 173.576 10.8253C173.806 11.2798 173.922 11.8551 173.922 12.5511V17.75H172.665V12.6364C172.665 11.9936 172.498 11.4929 172.164 11.1342C171.83 10.772 171.372 10.5909 170.79 10.5909C170.388 10.5909 170.03 10.6779 169.714 10.8519C169.401 11.0259 169.154 11.2798 168.973 11.6136C168.792 11.9474 168.702 12.3523 168.702 12.8281Z" fill="#A6A6A6"/>
<path opacity="0.15" d="M277.5 177.586H197.5C193.358 177.586 190 180.944 190 185.086V195.086C190 199.228 193.358 202.586 197.5 202.586H277.5C281.642 202.586 285 199.228 285 195.086V185.086C285 180.944 281.642 177.586 277.5 177.586Z" fill="#E8501A"/>
<path d="M195.253 197.336V186.161H196.723V197.336H195.253ZM199.043 197.336V189.251H200.408V190.826L200.183 190.691C200.383 190.181 200.703 189.786 201.143 189.506C201.593 189.216 202.118 189.071 202.718 189.071C203.298 189.071 203.813 189.201 204.263 189.461C204.723 189.721 205.083 190.081 205.343 190.541C205.613 191.001 205.748 191.521 205.748 192.101V197.336H204.338V192.551C204.338 192.101 204.258 191.721 204.098 191.411C203.938 191.101 203.708 190.861 203.408 190.691C203.118 190.511 202.783 190.421 202.403 190.421C202.023 190.421 201.683 190.511 201.383 190.691C201.093 190.861 200.863 191.106 200.693 191.426C200.523 191.736 200.438 192.111 200.438 192.551V197.336H199.043ZM210.639 197.516C209.829 197.516 209.124 197.316 208.524 196.916C207.924 196.516 207.499 195.976 207.249 195.296L208.359 194.756C208.589 195.236 208.904 195.616 209.304 195.896C209.704 196.176 210.149 196.316 210.639 196.316C211.079 196.316 211.444 196.211 211.734 196.001C212.024 195.791 212.169 195.516 212.169 195.176C212.169 194.936 212.099 194.746 211.959 194.606C211.829 194.456 211.669 194.341 211.479 194.261C211.289 194.171 211.114 194.106 210.954 194.066L209.739 193.721C209.009 193.511 208.474 193.211 208.134 192.821C207.804 192.431 207.639 191.976 207.639 191.456C207.639 190.976 207.759 190.561 207.999 190.211C208.249 189.851 208.584 189.571 209.004 189.371C209.434 189.171 209.914 189.071 210.444 189.071C211.154 189.071 211.789 189.251 212.349 189.611C212.919 189.971 213.324 190.476 213.564 191.126L212.424 191.651C212.244 191.231 211.974 190.901 211.614 190.661C211.254 190.411 210.849 190.286 210.399 190.286C209.989 190.286 209.664 190.391 209.424 190.601C209.184 190.801 209.064 191.056 209.064 191.366C209.064 191.596 209.124 191.786 209.244 191.936C209.364 192.076 209.509 192.186 209.679 192.266C209.849 192.336 210.014 192.396 210.174 192.446L211.494 192.836C212.154 193.026 212.664 193.321 213.024 193.721C213.394 194.121 213.579 194.601 213.579 195.161C213.579 195.611 213.454 196.016 213.204 196.376C212.954 196.736 212.609 197.016 212.169 197.216C211.729 197.416 211.219 197.516 210.639 197.516ZM215.405 197.336V189.251H216.8V197.336H215.405ZM215.405 187.961V186.161H216.8V187.961H215.405ZM222.82 200.636C222.25 200.636 221.72 200.546 221.23 200.366C220.75 200.186 220.335 199.936 219.985 199.616C219.645 199.306 219.385 198.941 219.205 198.521L220.51 197.921C220.65 198.301 220.915 198.621 221.305 198.881C221.705 199.151 222.205 199.286 222.805 199.286C223.265 199.286 223.68 199.196 224.05 199.016C224.43 198.846 224.73 198.586 224.95 198.236C225.17 197.896 225.28 197.481 225.28 196.991V195.176L225.535 195.446C225.255 195.996 224.85 196.416 224.32 196.706C223.8 196.996 223.225 197.141 222.595 197.141C221.835 197.141 221.155 196.966 220.555 196.616C219.955 196.256 219.485 195.771 219.145 195.161C218.805 194.541 218.635 193.856 218.635 193.106C218.635 192.346 218.805 191.661 219.145 191.051C219.485 190.441 219.95 189.961 220.54 189.611C221.14 189.251 221.82 189.071 222.58 189.071C223.21 189.071 223.78 189.216 224.29 189.506C224.81 189.786 225.225 190.176 225.535 190.676L225.325 191.051V189.251H226.69V196.991C226.69 197.691 226.525 198.316 226.195 198.866C225.865 199.416 225.405 199.846 224.815 200.156C224.235 200.476 223.57 200.636 222.82 200.636ZM222.715 195.791C223.195 195.791 223.625 195.671 224.005 195.431C224.395 195.191 224.705 194.871 224.935 194.471C225.165 194.061 225.28 193.606 225.28 193.106C225.28 192.616 225.165 192.166 224.935 191.756C224.705 191.346 224.395 191.021 224.005 190.781C223.625 190.541 223.195 190.421 222.715 190.421C222.225 190.421 221.78 190.541 221.38 190.781C220.98 191.021 220.665 191.346 220.435 191.756C220.215 192.156 220.105 192.606 220.105 193.106C220.105 193.606 220.215 194.061 220.435 194.471C220.665 194.871 220.975 195.191 221.365 195.431C221.765 195.671 222.215 195.791 222.715 195.791ZM228.852 197.336V185.981H230.247V190.826L229.992 190.691C230.192 190.181 230.512 189.786 230.952 189.506C231.402 189.216 231.927 189.071 232.527 189.071C233.107 189.071 233.622 189.201 234.072 189.461C234.532 189.721 234.892 190.081 235.152 190.541C235.422 191.001 235.557 191.521 235.557 192.101V197.336H234.147V192.551C234.147 192.101 234.062 191.721 233.892 191.411C233.732 191.101 233.507 190.861 233.217 190.691C232.927 190.511 232.592 190.421 232.212 190.421C231.842 190.421 231.507 190.511 231.207 190.691C230.907 190.861 230.672 191.106 230.502 191.426C230.332 191.736 230.247 192.111 230.247 192.551V197.336H228.852ZM240.839 197.426C240.049 197.426 239.439 197.201 239.009 196.751C238.589 196.301 238.379 195.666 238.379 194.846V190.586H236.909V189.251H237.209C237.569 189.251 237.854 189.141 238.064 188.921C238.274 188.701 238.379 188.411 238.379 188.051V187.391H239.774V189.251H241.589V190.586H239.774V194.801C239.774 195.071 239.814 195.306 239.894 195.506C239.984 195.706 240.129 195.866 240.329 195.986C240.529 196.096 240.794 196.151 241.124 196.151C241.194 196.151 241.279 196.146 241.379 196.136C241.489 196.126 241.589 196.116 241.679 196.106V197.336C241.549 197.366 241.404 197.386 241.244 197.396C241.084 197.416 240.949 197.426 240.839 197.426ZM246.396 197.516C245.586 197.516 244.881 197.316 244.281 196.916C243.681 196.516 243.256 195.976 243.006 195.296L244.116 194.756C244.346 195.236 244.661 195.616 245.061 195.896C245.461 196.176 245.906 196.316 246.396 196.316C246.836 196.316 247.201 196.211 247.491 196.001C247.781 195.791 247.926 195.516 247.926 195.176C247.926 194.936 247.856 194.746 247.716 194.606C247.586 194.456 247.426 194.341 247.236 194.261C247.046 194.171 246.871 194.106 246.711 194.066L245.496 193.721C244.766 193.511 244.231 193.211 243.891 192.821C243.561 192.431 243.396 191.976 243.396 191.456C243.396 190.976 243.516 190.561 243.756 190.211C244.006 189.851 244.341 189.571 244.761 189.371C245.191 189.171 245.671 189.071 246.201 189.071C246.911 189.071 247.546 189.251 248.106 189.611C248.676 189.971 249.081 190.476 249.321 191.126L248.181 191.651C248.001 191.231 247.731 190.901 247.371 190.661C247.011 190.411 246.606 190.286 246.156 190.286C245.746 190.286 245.421 190.391 245.181 190.601C244.941 190.801 244.821 191.056 244.821 191.366C244.821 191.596 244.881 191.786 245.001 191.936C245.121 192.076 245.266 192.186 245.436 192.266C245.606 192.336 245.771 192.396 245.931 192.446L247.251 192.836C247.911 193.026 248.421 193.321 248.781 193.721C249.151 194.121 249.336 194.601 249.336 195.161C249.336 195.611 249.211 196.016 248.961 196.376C248.711 196.736 248.366 197.016 247.926 197.216C247.486 197.416 246.976 197.516 246.396 197.516ZM259.26 197.516C258.47 197.516 257.73 197.376 257.04 197.096C256.35 196.806 255.745 196.401 255.225 195.881C254.715 195.361 254.315 194.751 254.025 194.051C253.735 193.341 253.59 192.571 253.59 191.741C253.59 190.901 253.735 190.131 254.025 189.431C254.315 188.731 254.715 188.121 255.225 187.601C255.745 187.081 256.345 186.681 257.025 186.401C257.715 186.121 258.46 185.981 259.26 185.981C260.06 185.981 260.8 186.126 261.48 186.416C262.17 186.696 262.77 187.096 263.28 187.616C263.8 188.126 264.205 188.731 264.495 189.431C264.795 190.131 264.945 190.901 264.945 191.741C264.945 192.571 264.795 193.341 264.495 194.051C264.205 194.751 263.8 195.361 263.28 195.881C262.77 196.401 262.17 196.806 261.48 197.096C260.8 197.376 260.06 197.516 259.26 197.516ZM259.26 196.151C259.88 196.151 260.445 196.041 260.955 195.821C261.465 195.591 261.905 195.276 262.275 194.876C262.655 194.466 262.945 193.996 263.145 193.466C263.355 192.926 263.46 192.351 263.46 191.741C263.46 191.131 263.355 190.561 263.145 190.031C262.945 189.501 262.655 189.036 262.275 188.636C261.905 188.226 261.465 187.911 260.955 187.691C260.445 187.461 259.88 187.346 259.26 187.346C258.65 187.346 258.09 187.461 257.58 187.691C257.07 187.911 256.625 188.226 256.245 188.636C255.875 189.036 255.585 189.501 255.375 190.031C255.165 190.561 255.06 191.131 255.06 191.741C255.06 192.351 255.165 192.926 255.375 193.466C255.585 193.996 255.875 194.466 256.245 194.876C256.625 195.276 257.07 195.591 257.58 195.821C258.09 196.041 258.65 196.151 259.26 196.151ZM269.789 197.516C269.209 197.516 268.684 197.381 268.214 197.111C267.754 196.841 267.394 196.466 267.134 195.986C266.884 195.496 266.759 194.936 266.759 194.306V189.251H268.154V194.156C268.154 194.556 268.234 194.906 268.394 195.206C268.564 195.506 268.794 195.741 269.084 195.911C269.384 196.081 269.724 196.166 270.104 196.166C270.484 196.166 270.819 196.081 271.109 195.911C271.409 195.741 271.639 195.496 271.799 195.176C271.969 194.856 272.054 194.476 272.054 194.036V189.251H273.464V197.336H272.099V195.761L272.324 195.896C272.134 196.406 271.809 196.806 271.349 197.096C270.899 197.376 270.379 197.516 269.789 197.516ZM278.91 197.426C278.12 197.426 277.51 197.201 277.08 196.751C276.66 196.301 276.45 195.666 276.45 194.846V190.586H274.98V189.251H275.28C275.64 189.251 275.925 189.141 276.135 188.921C276.345 188.701 276.45 188.411 276.45 188.051V187.391H277.845V189.251H279.66V190.586H277.845V194.801C277.845 195.071 277.885 195.306 277.965 195.506C278.055 195.706 278.2 195.866 278.4 195.986C278.6 196.096 278.865 196.151 279.195 196.151C279.265 196.151 279.35 196.146 279.45 196.136C279.56 196.126 279.66 196.116 279.75 196.106V197.336C279.62 197.366 279.475 197.386 279.315 197.396C279.155 197.416 279.02 197.426 278.91 197.426Z" fill="#E8501A"/>
</svg>
