<svg width="234" height="204" viewBox="0 0 234 204" fill="none" xmlns="http://www.w3.org/2000/svg">
<path d="M212.742 5.82812H20.3996C12.352 5.82812 5.82812 12.352 5.82812 20.3996V183.6C5.82812 191.647 12.352 198.171 20.3996 198.171H212.742C220.79 198.171 227.314 191.647 227.314 183.6V20.3996C227.314 12.352 220.79 5.82812 212.742 5.82812Z" fill="white" stroke="#DADAD5" stroke-width="2.18571"/>
<path d="M212.742 5.82812H20.3996C12.352 5.82812 5.82812 12.352 5.82812 20.3996V32.0567C5.82812 40.1043 12.352 46.6281 20.3996 46.6281H212.742C220.79 46.6281 227.314 40.1043 227.314 32.0567V20.3996C227.314 12.352 220.79 5.82812 212.742 5.82812Z" fill="#F2EFE8" stroke="#DADAD5" stroke-width="2.18571"/>
<path d="M225.855 29.1436H7.2832V46.6293H225.855V29.1436Z" fill="#F2EFE8"/>
<path d="M28.6156 24.4326H26.8024C26.7693 24.198 26.7017 23.9896 26.5996 23.8075C26.4975 23.6226 26.3664 23.4653 26.2063 23.3356C26.0462 23.2059 25.8613 23.1065 25.6516 23.0375C25.4446 22.9685 25.2197 22.934 24.9768 22.934C24.538 22.934 24.1558 23.043 23.8302 23.2611C23.5045 23.4763 23.252 23.7909 23.0726 24.2049C22.8932 24.6161 22.8036 25.1156 22.8036 25.7034C22.8036 26.3078 22.8932 26.8156 23.0726 27.2268C23.2548 27.638 23.5087 27.9485 23.8343 28.1582C24.16 28.368 24.5367 28.4728 24.9644 28.4728C25.2045 28.4728 25.4267 28.4411 25.6309 28.3776C25.8379 28.3141 26.0214 28.2217 26.1815 28.1003C26.3415 27.9761 26.474 27.8257 26.5789 27.649C26.6865 27.4724 26.761 27.271 26.8024 27.0447L28.6156 27.0529C28.5686 27.4421 28.4514 27.8174 28.2637 28.1789C28.0788 28.5377 27.829 28.8592 27.5144 29.1434C27.2026 29.4249 26.83 29.6485 26.3967 29.8141C25.9662 29.9769 25.4791 30.0583 24.9355 30.0583C24.1793 30.0583 23.5031 29.8872 22.907 29.545C22.3137 29.2028 21.8445 28.7074 21.4996 28.0589C21.1574 27.4103 20.9863 26.6252 20.9863 25.7034C20.9863 24.7789 21.1601 23.9924 21.5079 23.3438C21.8556 22.6953 22.3275 22.2013 22.9236 21.8619C23.5197 21.5197 24.1903 21.3486 24.9355 21.3486C25.4267 21.3486 25.882 21.4175 26.3015 21.5555C26.7238 21.6935 27.0977 21.895 27.4234 22.1599C27.749 22.4221 28.0139 22.7436 28.2182 23.1244C28.4251 23.5053 28.5576 23.9413 28.6156 24.4326ZM32.7407 30.0666C32.0977 30.0666 31.5416 29.93 31.0724 29.6567C30.606 29.3808 30.2459 28.9972 29.992 28.5059C29.7381 28.0119 29.6111 27.4393 29.6111 26.788C29.6111 26.1312 29.7381 25.5572 29.992 25.0659C30.2459 24.5719 30.606 24.1883 31.0724 23.9151C31.5416 23.6391 32.0977 23.5011 32.7407 23.5011C33.3837 23.5011 33.9384 23.6391 34.4048 23.9151C34.874 24.1883 35.2355 24.5719 35.4894 25.0659C35.7433 25.5572 35.8702 26.1312 35.8702 26.788C35.8702 27.4393 35.7433 28.0119 35.4894 28.5059C35.2355 28.9972 34.874 29.3808 34.4048 29.6567C33.9384 29.93 33.3837 30.0666 32.7407 30.0666ZM32.749 28.7005C33.0415 28.7005 33.2857 28.6177 33.4817 28.4521C33.6776 28.2838 33.8253 28.0547 33.9246 27.7649C34.0267 27.4752 34.0778 27.1454 34.0778 26.7756C34.0778 26.4058 34.0267 26.076 33.9246 25.7862C33.8253 25.4964 33.6776 25.2674 33.4817 25.099C33.2857 24.9307 33.0415 24.8465 32.749 24.8465C32.4537 24.8465 32.2053 24.9307 32.0038 25.099C31.8051 25.2674 31.6547 25.4964 31.5526 25.7862C31.4533 26.076 31.4036 26.4058 31.4036 26.7756C31.4036 27.1454 31.4533 27.4752 31.5526 27.7649C31.6547 28.0547 31.8051 28.2838 32.0038 28.4521C32.2053 28.6177 32.4537 28.7005 32.749 28.7005ZM37.0169 29.9424V23.5839H38.6976V24.7058H38.7721C38.9046 24.3332 39.1253 24.0393 39.4344 23.824C39.7435 23.6088 40.1133 23.5011 40.5439 23.5011C40.9799 23.5011 41.3511 23.6102 41.6574 23.8282C41.9637 24.0434 42.168 24.336 42.2701 24.7058H42.3363C42.466 24.3415 42.7006 24.0503 43.04 23.8323C43.3822 23.6115 43.7865 23.5011 44.2529 23.5011C44.8463 23.5011 45.3279 23.6902 45.6977 24.0683C46.0702 24.4436 46.2565 24.9762 46.2565 25.6662V29.9424H44.4972V26.0139C44.4972 25.6606 44.4033 25.3957 44.2157 25.2191C44.028 25.0425 43.7934 24.9542 43.512 24.9542C43.1918 24.9542 42.9421 25.0563 42.7627 25.2605C42.5833 25.4619 42.4936 25.7283 42.4936 26.0594V29.9424H40.7839V25.9766C40.7839 25.6648 40.6943 25.4164 40.5149 25.2315C40.3383 25.0466 40.1051 24.9542 39.8153 24.9542C39.6193 24.9542 39.4427 25.0038 39.2854 25.1032C39.1309 25.1998 39.0081 25.3364 38.917 25.513C38.8259 25.6869 38.7804 25.8911 38.7804 26.1257V29.9424H37.0169ZM47.6495 32.3268V23.5839H49.3881V24.652H49.4668C49.5441 24.4809 49.6558 24.307 49.8021 24.1304C49.9511 23.951 50.1443 23.802 50.3816 23.6833C50.6217 23.5619 50.9198 23.5011 51.2758 23.5011C51.7394 23.5011 52.1672 23.6226 52.5591 23.8654C52.951 24.1055 53.2642 24.4684 53.4988 24.9542C53.7333 25.4371 53.8506 26.0429 53.8506 26.7714C53.8506 27.4807 53.7361 28.0796 53.507 28.568C53.2807 29.0537 52.9717 29.4222 52.5798 29.6733C52.1906 29.9217 51.7546 30.0459 51.2717 30.0459C50.9294 30.0459 50.6383 29.9893 50.3982 29.8761C50.1609 29.763 49.9663 29.6209 49.8145 29.4498C49.6627 29.2759 49.5468 29.1007 49.4668 28.924H49.413V32.3268H47.6495ZM49.3757 26.7632C49.3757 27.1412 49.4281 27.471 49.533 27.7525C49.6379 28.034 49.7897 28.2534 49.9884 28.4107C50.1871 28.5653 50.4286 28.6425 50.7128 28.6425C50.9998 28.6425 51.2427 28.5639 51.4414 28.4066C51.6401 28.2465 51.7905 28.0257 51.8926 27.7442C51.9975 27.46 52.0499 27.133 52.0499 26.7632C52.0499 26.3961 51.9988 26.0732 51.8967 25.7945C51.7946 25.5158 51.6442 25.2977 51.4455 25.1404C51.2468 24.9831 51.0026 24.9045 50.7128 24.9045C50.4258 24.9045 50.1829 24.9804 49.9842 25.1322C49.7883 25.2839 49.6379 25.4992 49.533 25.7779C49.4281 26.0567 49.3757 26.3851 49.3757 26.7632ZM56.8394 30.0624C56.4337 30.0624 56.0722 29.9921 55.7548 29.8513C55.4375 29.7078 55.1863 29.4967 55.0014 29.218C54.8193 28.9365 54.7282 28.586 54.7282 28.1665C54.7282 27.8132 54.7931 27.5166 54.9228 27.2765C55.0525 27.0364 55.2291 26.8432 55.4527 26.6969C55.6762 26.5507 55.9301 26.4403 56.2143 26.3658C56.5014 26.2912 56.8022 26.2388 57.1168 26.2085C57.4866 26.1698 57.7846 26.1339 58.0109 26.1008C58.2372 26.0649 58.4014 26.0125 58.5036 25.9435C58.6057 25.8745 58.6567 25.7724 58.6567 25.6372V25.6124C58.6567 25.3502 58.5739 25.1473 58.4083 25.0038C58.2455 24.8603 58.0137 24.7886 57.7129 24.7886C57.3955 24.7886 57.143 24.8589 56.9553 24.9997C56.7677 25.1377 56.6435 25.3115 56.5828 25.5213L54.9518 25.3888C55.0346 25.0024 55.1974 24.6685 55.4402 24.387C55.6831 24.1028 55.9963 23.8848 56.3799 23.733C56.7663 23.5784 57.2134 23.5011 57.7212 23.5011C58.0744 23.5011 58.4125 23.5425 58.7354 23.6253C59.061 23.7081 59.3494 23.8365 59.6005 24.0103C59.8544 24.1842 60.0545 24.4077 60.2008 24.6809C60.3471 24.9514 60.4202 25.2757 60.4202 25.6537V29.9424H58.7478V29.0606H58.6981C58.596 29.2593 58.4594 29.4346 58.2883 29.5864C58.1172 29.7354 57.9116 29.8527 57.6715 29.9382C57.4314 30.021 57.154 30.0624 56.8394 30.0624ZM57.3445 28.8454C57.6039 28.8454 57.8329 28.7943 58.0316 28.6922C58.2303 28.5874 58.3863 28.4466 58.4994 28.27C58.6126 28.0934 58.6691 27.8933 58.6691 27.6697V26.995C58.6139 27.0309 58.538 27.064 58.4415 27.0943C58.3476 27.1219 58.2414 27.1481 58.1227 27.173C58.004 27.1951 57.8854 27.2158 57.7667 27.2351C57.648 27.2516 57.5404 27.2668 57.4438 27.2806C57.2368 27.311 57.0561 27.3593 56.9015 27.4255C56.747 27.4917 56.6269 27.5814 56.5414 27.6946C56.4558 27.805 56.413 27.943 56.413 28.1085C56.413 28.3486 56.5 28.5322 56.6738 28.6591C56.8505 28.7833 57.074 28.8454 57.3445 28.8454ZM61.7883 29.9424V23.5839H63.498V24.6934H63.5642C63.6801 24.2987 63.8747 24.0007 64.1479 23.7992C64.4211 23.595 64.7357 23.4929 65.0917 23.4929C65.1801 23.4929 65.2753 23.4984 65.3774 23.5094C65.4795 23.5205 65.5692 23.5356 65.6464 23.555V25.1197C65.5637 25.0949 65.4491 25.0728 65.3029 25.0535C65.1566 25.0342 65.0227 25.0245 64.9013 25.0245C64.6419 25.0245 64.4101 25.0811 64.2059 25.1942C64.0044 25.3046 63.8443 25.4592 63.7257 25.6579C63.6098 25.8566 63.5518 26.0856 63.5518 26.3451V29.9424H61.7883ZM69.1599 30.0666C68.5059 30.0666 67.9429 29.9341 67.471 29.6692C67.0018 29.4015 66.6403 29.0234 66.3864 28.5349C66.1325 28.0437 66.0056 27.4628 66.0056 26.7921C66.0056 26.1381 66.1325 25.5641 66.3864 25.0701C66.6403 24.5761 66.9977 24.1911 67.4586 23.9151C67.9222 23.6391 68.4659 23.5011 69.0896 23.5011C69.5091 23.5011 69.8996 23.5688 70.2611 23.704C70.6254 23.8365 70.9427 24.0365 71.2132 24.3042C71.4864 24.5719 71.6989 24.9086 71.8507 25.3143C72.0025 25.7172 72.0784 26.1891 72.0784 26.73V27.2144H66.7093V26.1215H70.4184C70.4184 25.8676 70.3632 25.6427 70.2528 25.4468C70.1424 25.2508 69.9892 25.0977 69.7933 24.9873C69.6001 24.8741 69.3752 24.8175 69.1185 24.8175C68.8509 24.8175 68.6135 24.8796 68.4065 25.0038C68.2023 25.1253 68.0422 25.2895 67.9263 25.4964C67.8104 25.7007 67.7511 25.9283 67.7483 26.1795V27.2185C67.7483 27.5331 67.8063 27.805 67.9222 28.034C68.0409 28.2631 68.2078 28.4397 68.4231 28.5639C68.6384 28.6881 68.8936 28.7502 69.1889 28.7502C69.3849 28.7502 69.5642 28.7226 69.7271 28.6674C69.8899 28.6122 70.0293 28.5294 70.1452 28.419C70.2611 28.3086 70.3494 28.1734 70.4101 28.0133L72.0411 28.121C71.9583 28.5128 71.7886 28.855 71.5319 29.1476C71.278 29.4374 70.9496 29.6636 70.5467 29.8265C70.1466 29.9865 69.6843 30.0666 69.1599 30.0666Z" fill="#1A1A1A"/>
<path d="M142.799 14.5713H93.2563C90.0373 14.5713 87.4277 17.1808 87.4277 20.3999V29.1427C87.4277 32.3617 90.0373 34.9713 93.2563 34.9713H142.799C146.018 34.9713 148.628 32.3617 148.628 29.1427V20.3999C148.628 17.1808 146.018 14.5713 142.799 14.5713Z" fill="white" stroke="#DADAD5" stroke-width="1.45714"/>
<path d="M103.021 25.2333C103.021 26.0422 102.867 26.7305 102.561 27.2979C102.257 27.8654 101.841 28.2988 101.315 28.5983C100.791 28.8953 100.202 29.0438 99.5472 29.0438C98.8879 29.0438 98.2963 28.8941 97.7723 28.5947C97.2483 28.2952 96.8342 27.8618 96.5299 27.2943C96.2257 26.7268 96.0735 26.0398 96.0735 25.2333C96.0735 24.4243 96.2257 23.7361 96.5299 23.1687C96.8342 22.6012 97.2483 22.1689 97.7723 21.8719C98.2963 21.5725 98.8879 21.4228 99.5472 21.4228C100.202 21.4228 100.791 21.5725 101.315 21.8719C101.841 22.1689 102.257 22.6012 102.561 23.1687C102.867 23.7361 103.021 24.4243 103.021 25.2333ZM101.431 25.2333C101.431 24.7093 101.352 24.2674 101.195 23.9076C101.041 23.5478 100.822 23.2749 100.54 23.089C100.257 22.903 99.9263 22.8101 99.5472 22.8101C99.1681 22.8101 98.8372 22.903 98.5547 23.089C98.2722 23.2749 98.0524 23.5478 97.8955 23.9076C97.7409 24.2674 97.6637 24.7093 97.6637 25.2333C97.6637 25.7573 97.7409 26.1992 97.8955 26.559C98.0524 26.9188 98.2722 27.1917 98.5547 27.3776C98.8372 27.5635 99.1681 27.6565 99.5472 27.6565C99.9263 27.6565 100.257 27.5635 100.54 27.3776C100.822 27.1917 101.041 26.9188 101.195 26.559C101.352 26.1992 101.431 25.7573 101.431 25.2333ZM104.154 31.0287V23.3787H105.675V24.3133H105.744C105.811 24.1635 105.909 24.0114 106.037 23.8569C106.168 23.6999 106.337 23.5695 106.544 23.4657C106.754 23.3594 107.015 23.3063 107.327 23.3063C107.732 23.3063 108.107 23.4126 108.45 23.6251C108.792 23.8351 109.067 24.1527 109.272 24.5777C109.477 25.0003 109.58 25.5303 109.58 26.1678C109.58 26.7884 109.479 27.3124 109.279 27.7398C109.081 28.1648 108.811 28.4872 108.468 28.7069C108.127 28.9243 107.746 29.0329 107.323 29.0329C107.024 29.0329 106.769 28.9834 106.559 28.8844C106.351 28.7854 106.181 28.6611 106.048 28.5113C105.915 28.3592 105.814 28.2059 105.744 28.0513H105.697V31.0287H104.154ZM105.664 26.1606C105.664 26.4914 105.71 26.78 105.802 27.0263C105.894 27.2726 106.026 27.4645 106.2 27.6022C106.374 27.7374 106.585 27.805 106.834 27.805C107.085 27.805 107.298 27.7362 107.472 27.5986C107.645 27.4585 107.777 27.2653 107.866 27.019C107.958 26.7703 108.004 26.4841 108.004 26.1606C108.004 25.8394 107.959 25.5569 107.87 25.313C107.781 25.0691 107.649 24.8783 107.475 24.7407C107.301 24.603 107.088 24.5342 106.834 24.5342C106.583 24.5342 106.37 24.6006 106.197 24.7334C106.025 24.8662 105.894 25.0546 105.802 25.2985C105.71 25.5424 105.664 25.8297 105.664 26.1606ZM113.568 23.3787V24.5378H110.217V23.3787H113.568ZM110.978 22.0458H112.521V27.2327C112.521 27.3752 112.543 27.4863 112.586 27.566C112.63 27.6432 112.69 27.6976 112.767 27.729C112.847 27.7604 112.939 27.776 113.042 27.776C113.115 27.776 113.187 27.77 113.26 27.7579C113.332 27.7434 113.388 27.7326 113.426 27.7253L113.669 28.8736C113.592 28.8977 113.483 28.9255 113.343 28.9569C113.203 28.9907 113.033 29.0112 112.832 29.0184C112.46 29.0329 112.134 28.9834 111.854 28.8699C111.577 28.7564 111.361 28.5802 111.206 28.3411C111.051 28.102 110.975 27.8002 110.978 27.4356V22.0458ZM114.573 28.9424V23.3787H116.116V28.9424H114.573ZM115.348 22.6616C115.119 22.6616 114.922 22.5855 114.758 22.4334C114.596 22.2788 114.515 22.0941 114.515 21.8792C114.515 21.6667 114.596 21.4844 114.758 21.3322C114.922 21.1777 115.119 21.1004 115.348 21.1004C115.577 21.1004 115.773 21.1777 115.935 21.3322C116.099 21.4844 116.181 21.6667 116.181 21.8792C116.181 22.0941 116.099 22.2788 115.935 22.4334C115.773 22.5855 115.577 22.6616 115.348 22.6616ZM119.866 29.051C119.303 29.051 118.816 28.9315 118.406 28.6925C117.998 28.451 117.683 28.1153 117.461 27.6855C117.238 27.2532 117.127 26.7522 117.127 26.1823C117.127 25.6076 117.238 25.1053 117.461 24.6755C117.683 24.2432 117.998 23.9076 118.406 23.6685C118.816 23.427 119.303 23.3063 119.866 23.3063C120.428 23.3063 120.914 23.427 121.322 23.6685C121.732 23.9076 122.049 24.2432 122.271 24.6755C122.493 25.1053 122.604 25.6076 122.604 26.1823C122.604 26.7522 122.493 27.2532 122.271 27.6855C122.049 28.1153 121.732 28.451 121.322 28.6925C120.914 28.9315 120.428 29.051 119.866 29.051ZM119.873 27.8557C120.129 27.8557 120.343 27.7833 120.514 27.6384C120.685 27.4911 120.815 27.2907 120.902 27.0371C120.991 26.7836 121.036 26.495 121.036 26.1714C121.036 25.8479 120.991 25.5593 120.902 25.3057C120.815 25.0522 120.685 24.8518 120.514 24.7045C120.343 24.5572 120.129 24.4835 119.873 24.4835C119.615 24.4835 119.397 24.5572 119.221 24.7045C119.047 24.8518 118.915 25.0522 118.826 25.3057C118.739 25.5593 118.696 25.8479 118.696 26.1714C118.696 26.495 118.739 26.7836 118.826 27.0371C118.915 27.2907 119.047 27.4911 119.221 27.6384C119.397 27.7833 119.615 27.8557 119.873 27.8557ZM125.15 25.7259V28.9424H123.607V23.3787H125.078V24.3604H125.143C125.266 24.0368 125.473 23.7808 125.763 23.5925C126.052 23.4017 126.404 23.3063 126.817 23.3063C127.203 23.3063 127.54 23.3908 127.827 23.5599C128.115 23.7289 128.338 23.9704 128.497 24.2843C128.657 24.5958 128.736 24.9677 128.736 25.3999V28.9424H127.193V25.6752C127.196 25.3347 127.109 25.0691 126.933 24.8783C126.756 24.6851 126.514 24.5885 126.204 24.5885C125.997 24.5885 125.813 24.6332 125.654 24.7226C125.497 24.8119 125.374 24.9423 125.284 25.1138C125.197 25.2828 125.153 25.4868 125.15 25.7259ZM133.621 28.9424H131.94L134.501 21.5242H136.522L139.079 28.9424H137.399L135.541 23.2194H135.483L133.621 28.9424ZM133.516 26.0265H137.486V27.2508H133.516V26.0265Z" fill="#7A776F"/>
<path d="M212.741 14.5713H163.198C159.979 14.5713 157.369 17.1808 157.369 20.3999V29.1427C157.369 32.3617 159.979 34.9713 163.198 34.9713H212.741C215.96 34.9713 218.569 32.3617 218.569 29.1427V20.3999C218.569 17.1808 215.96 14.5713 212.741 14.5713Z" fill="#E8501A"/>
<path d="M170.62 28.9424V21.5242H173.591C174.136 21.5242 174.591 21.6051 174.956 21.7669C175.321 21.9287 175.595 22.1532 175.778 22.4406C175.962 22.7256 176.054 23.054 176.054 23.4258C176.054 23.7156 175.996 23.9704 175.88 24.1901C175.764 24.4074 175.604 24.5861 175.402 24.7262C175.201 24.8638 174.972 24.9616 174.713 25.0196V25.092C174.996 25.1041 175.26 25.1838 175.507 25.3311C175.755 25.4784 175.957 25.6849 176.112 25.9505C176.266 26.2137 176.343 26.5276 176.343 26.8922C176.343 27.2858 176.246 27.6372 176.05 27.9463C175.857 28.253 175.571 28.4956 175.191 28.6743C174.812 28.853 174.345 28.9424 173.79 28.9424H170.62ZM172.189 27.6601H173.467C173.904 27.6601 174.223 27.5768 174.424 27.4102C174.624 27.2412 174.724 27.0166 174.724 26.7365C174.724 26.5312 174.675 26.3501 174.576 26.1932C174.477 26.0362 174.335 25.9131 174.152 25.8237C173.971 25.7344 173.755 25.6897 173.504 25.6897H172.189V27.6601ZM172.189 24.6284H173.351C173.566 24.6284 173.757 24.591 173.924 24.5161C174.093 24.4388 174.226 24.3302 174.322 24.1901C174.421 24.0501 174.471 23.8822 174.471 23.6866C174.471 23.4186 174.375 23.2025 174.185 23.0383C173.996 22.8741 173.728 22.792 173.38 22.792H172.189V24.6284ZM179.87 29.051C179.298 29.051 178.806 28.9351 178.393 28.7033C177.982 28.4691 177.666 28.1383 177.444 27.7108C177.221 27.281 177.11 26.7727 177.11 26.1859C177.11 25.6136 177.221 25.1113 177.444 24.6791C177.666 24.2469 177.978 23.91 178.382 23.6685C178.787 23.427 179.263 23.3063 179.809 23.3063C180.176 23.3063 180.518 23.3655 180.834 23.4838C181.153 23.5997 181.43 23.7748 181.667 24.009C181.906 24.2432 182.092 24.5378 182.225 24.8928C182.358 25.2454 182.424 25.6583 182.424 26.1316V26.5554H177.726V25.5991H180.972C180.972 25.377 180.923 25.1802 180.827 25.0087C180.73 24.8373 180.596 24.7032 180.425 24.6067C180.256 24.5077 180.059 24.4581 179.834 24.4581C179.6 24.4581 179.392 24.5125 179.211 24.6211C179.032 24.7274 178.892 24.8711 178.791 25.0522C178.69 25.2309 178.638 25.4301 178.635 25.6498V26.559C178.635 26.8343 178.686 27.0721 178.787 27.2726C178.891 27.473 179.037 27.6275 179.226 27.7362C179.414 27.8449 179.637 27.8992 179.896 27.8992C180.067 27.8992 180.224 27.8751 180.367 27.8268C180.509 27.7785 180.631 27.706 180.732 27.6094C180.834 27.5128 180.911 27.3945 180.964 27.2545L182.391 27.3486C182.319 27.6915 182.17 27.991 181.946 28.2469C181.724 28.5005 181.436 28.6985 181.084 28.841C180.734 28.981 180.329 29.051 179.87 29.051ZM188.06 24.9653L186.647 25.0522C186.623 24.9314 186.571 24.8228 186.492 24.7262C186.412 24.6272 186.307 24.5487 186.177 24.4907C186.049 24.4304 185.895 24.4002 185.717 24.4002C185.478 24.4002 185.276 24.4509 185.112 24.5523C184.947 24.6513 184.865 24.7841 184.865 24.9508C184.865 25.0836 184.919 25.1959 185.025 25.2876C185.131 25.3794 185.313 25.453 185.572 25.5086L186.579 25.7114C187.12 25.8225 187.523 26.0012 187.788 26.2475C188.054 26.4938 188.187 26.8174 188.187 27.2182C188.187 27.5829 188.079 27.9028 187.865 28.1781C187.652 28.4534 187.36 28.6683 186.988 28.8229C186.619 28.975 186.192 29.051 185.709 29.051C184.973 29.051 184.386 28.8977 183.949 28.591C183.514 28.2819 183.26 27.8618 183.185 27.3305L184.702 27.2508C184.748 27.4754 184.859 27.6469 185.036 27.7652C185.212 27.8811 185.438 27.939 185.713 27.939C185.983 27.939 186.201 27.8871 186.365 27.7833C186.532 27.677 186.616 27.5406 186.619 27.374C186.616 27.2339 186.557 27.1192 186.441 27.0299C186.325 26.9381 186.146 26.8681 185.905 26.8198L184.941 26.6278C184.398 26.5192 183.994 26.3308 183.728 26.0628C183.465 25.7947 183.333 25.453 183.333 25.0377C183.333 24.6803 183.43 24.3724 183.623 24.114C183.819 23.8557 184.093 23.6564 184.445 23.5164C184.8 23.3763 185.216 23.3063 185.691 23.3063C186.394 23.3063 186.947 23.4548 187.35 23.7518C187.756 24.0488 187.993 24.4533 188.06 24.9653ZM192.118 23.3787V24.5378H188.767V23.3787H192.118ZM189.528 22.0458H191.071V27.2327C191.071 27.3752 191.093 27.4863 191.136 27.566C191.18 27.6432 191.24 27.6976 191.317 27.729C191.397 27.7604 191.489 27.776 191.593 27.776C191.665 27.776 191.738 27.77 191.81 27.7579C191.882 27.7434 191.938 27.7326 191.977 27.7253L192.219 28.8736C192.142 28.8977 192.033 28.9255 191.893 28.9569C191.753 28.9907 191.583 29.0112 191.383 29.0184C191.011 29.0329 190.685 28.9834 190.405 28.8699C190.127 28.7564 189.911 28.5802 189.756 28.3411C189.602 28.102 189.526 27.8002 189.528 27.4356V22.0458ZM200.2 27.0371L197.461 29.0148L198.541 25.7983L195.795 23.8134H199.157L200.2 20.5969L201.243 23.8134H204.604L201.859 25.7983L202.938 29.0148L200.2 27.0371Z" fill="white"/>
<path d="M225.855 46.6289H7.2832V78.6861H225.855V46.6289Z" fill="#FAFAF8" stroke="#ECEAE5" stroke-width="0.728571"/>
<path d="M21.4251 66.3711V57.8932H24.2897C24.9548 57.8932 25.4984 58.0132 25.9207 58.2533C26.3457 58.4907 26.6603 58.8122 26.8645 59.2178C27.0687 59.6235 27.1708 60.0761 27.1708 60.5756C27.1708 61.0752 27.0687 61.5291 26.8645 61.9376C26.663 62.346 26.3512 62.6717 25.929 62.9145C25.5067 63.1546 24.9658 63.2747 24.3062 63.2747H22.253V62.364H24.2731C24.7285 62.364 25.0941 62.2853 25.3701 62.128C25.6461 61.9707 25.8462 61.7582 25.9704 61.4905C26.0973 61.22 26.1608 60.9151 26.1608 60.5756C26.1608 60.2362 26.0973 59.9326 25.9704 59.6649C25.8462 59.3972 25.6447 59.1875 25.366 59.0357C25.0872 58.8812 24.7174 58.8039 24.2566 58.8039H22.4517V66.3711H21.4251ZM28.6921 66.3711V60.0127H29.636V60.973H29.7022C29.8181 60.6584 30.0279 60.4032 30.3314 60.2072C30.635 60.0113 30.9772 59.9133 31.3581 59.9133C31.4298 59.9133 31.5195 59.9147 31.6271 59.9174C31.7348 59.9202 31.8162 59.9243 31.8714 59.9299V60.9234C31.8383 60.9151 31.7624 60.9027 31.6437 60.8861C31.5278 60.8668 31.405 60.8571 31.2753 60.8571C30.9662 60.8571 30.6902 60.922 30.4473 61.0517C30.2072 61.1786 30.0168 61.3553 29.8761 61.5816C29.7381 61.8051 29.6691 62.0604 29.6691 62.3474V66.3711H28.6921ZM33.0294 66.3711V60.0127H34.0064V66.3711H33.0294ZM33.5262 58.9529C33.3358 58.9529 33.1715 58.8881 33.0336 58.7584C32.8983 58.6286 32.8307 58.4727 32.8307 58.2906C32.8307 58.1084 32.8983 57.9525 33.0336 57.8228C33.1715 57.6931 33.3358 57.6282 33.5262 57.6282C33.7166 57.6282 33.8794 57.6931 34.0147 57.8228C34.1526 57.9525 34.2216 58.1084 34.2216 58.2906C34.2216 58.4727 34.1526 58.6286 34.0147 58.7584C33.8794 58.8881 33.7166 58.9529 33.5262 58.9529ZM38.3788 66.5036C37.7827 66.5036 37.2694 66.3628 36.8389 66.0813C36.4084 65.7998 36.0772 65.4121 35.8454 64.9181C35.6136 64.4241 35.4977 63.8597 35.4977 63.225C35.4977 62.5792 35.6163 62.0093 35.8537 61.5153C36.0938 61.0186 36.4277 60.6308 36.8555 60.3521C37.286 60.0706 37.7883 59.9299 38.3623 59.9299C38.8094 59.9299 39.2123 60.0127 39.571 60.1782C39.9298 60.3438 40.2237 60.5756 40.4528 60.8737C40.6818 61.1717 40.824 61.5195 40.8792 61.9169H39.9022C39.8277 61.6271 39.6621 61.3704 39.4055 61.1469C39.1516 60.9206 38.8094 60.8075 38.3788 60.8075C37.998 60.8075 37.6641 60.9068 37.377 61.1055C37.0928 61.3015 36.8706 61.5788 36.7106 61.9376C36.5533 62.2936 36.4746 62.7117 36.4746 63.1919C36.4746 63.6831 36.5519 64.1109 36.7064 64.4752C36.8637 64.8394 37.0845 65.1223 37.3688 65.3238C37.6558 65.5252 37.9925 65.626 38.3788 65.626C38.6327 65.626 38.8632 65.5818 39.0701 65.4935C39.2771 65.4052 39.4524 65.2782 39.5959 65.1127C39.7394 64.9471 39.8415 64.7484 39.9022 64.5165H40.8792C40.824 64.8919 40.6874 65.2299 40.4693 65.5308C40.2541 65.8288 39.9684 66.0661 39.6124 66.2428C39.2592 66.4166 38.848 66.5036 38.3788 66.5036ZM44.9732 66.5036C44.3606 66.5036 43.8321 66.3683 43.3878 66.0979C42.9462 65.8247 42.6054 65.4438 42.3653 64.9553C42.1279 64.4641 42.0093 63.8928 42.0093 63.2415C42.0093 62.5902 42.1279 62.0162 42.3653 61.5195C42.6054 61.02 42.9393 60.6308 43.3671 60.3521C43.7976 60.0706 44.2999 59.9299 44.8739 59.9299C45.2051 59.9299 45.5321 59.9851 45.855 60.0954C46.1779 60.2058 46.4718 60.3852 46.7367 60.6336C47.0016 60.8792 47.2128 61.2049 47.3701 61.6105C47.5274 62.0162 47.606 62.5157 47.606 63.1091V63.523H42.7047V62.6786H46.6125C46.6125 62.3198 46.5408 61.9997 46.3973 61.7182C46.2565 61.4367 46.0551 61.2145 45.7929 61.0517C45.5335 60.8889 45.2271 60.8075 44.8739 60.8075C44.4848 60.8075 44.1481 60.904 43.8638 61.0972C43.5823 61.2877 43.3657 61.536 43.2139 61.8424C43.0621 62.1487 42.9862 62.4771 42.9862 62.8276V63.3906C42.9862 63.8708 43.069 64.2778 43.2346 64.6118C43.4029 64.9429 43.6361 65.1954 43.9342 65.3693C44.2322 65.5404 44.5786 65.626 44.9732 65.626C45.2299 65.626 45.4617 65.5901 45.6687 65.5183C45.8784 65.4438 46.0592 65.3334 46.211 65.1872C46.3628 65.0381 46.4801 64.8532 46.5628 64.6325L47.5067 64.8974C47.4073 65.2175 47.2404 65.499 47.0058 65.7419C46.7712 65.982 46.4814 66.1696 46.1365 66.3049C45.7915 66.4373 45.4038 66.5036 44.9732 66.5036Z" fill="#7A776F"/>
<path d="M104.46 59.8967L104.178 60.8571H98.8131L99.0946 59.8967H104.46ZM101.943 66.3711L98.9125 62.662L98.8959 61.9665H100.403C100.795 61.9665 101.129 61.9114 101.405 61.801C101.681 61.6878 101.892 61.5195 102.038 61.2959C102.184 61.0696 102.257 60.7854 102.257 60.4432C102.257 59.9381 102.106 59.5421 101.802 59.2551C101.498 58.9653 101.032 58.8204 100.403 58.8204H98.8131L99.0946 57.8932H100.403C101.076 57.8932 101.628 58.0049 102.059 58.2285C102.492 58.4493 102.812 58.7528 103.019 59.1392C103.229 59.5228 103.334 59.9575 103.334 60.4432C103.334 60.882 103.237 61.2863 103.044 61.6561C102.853 62.0231 102.547 62.3184 102.125 62.542C101.705 62.7655 101.151 62.8773 100.461 62.8773H100.436L103.234 66.3049V66.3711H101.943ZM104.46 57.8932L104.178 58.8536L99.9557 58.8204L100.237 57.8932H104.46ZM108.519 66.487C107.973 66.487 107.486 66.3932 107.058 66.2055C106.633 66.0178 106.295 65.7571 106.044 65.4231C105.796 65.0864 105.66 64.6959 105.638 64.2516H106.682C106.704 64.5248 106.797 64.7608 106.963 64.9595C107.129 65.1554 107.345 65.3072 107.613 65.4148C107.881 65.5225 108.177 65.5763 108.503 65.5763C108.867 65.5763 109.19 65.5128 109.472 65.3859C109.753 65.2589 109.974 65.0823 110.134 64.856C110.294 64.6297 110.374 64.3675 110.374 64.0695C110.374 63.7576 110.297 63.483 110.142 63.2457C109.988 63.0056 109.761 62.8179 109.463 62.6827C109.165 62.5475 108.801 62.4799 108.37 62.4799H107.692V61.5691H108.37C108.707 61.5691 109.002 61.5084 109.256 61.387C109.513 61.2656 109.713 61.0945 109.857 60.8737C110.003 60.6529 110.076 60.3935 110.076 60.0954C110.076 59.8084 110.013 59.5587 109.886 59.3462C109.759 59.1337 109.579 58.9681 109.347 58.8494C109.118 58.7308 108.848 58.6714 108.536 58.6714C108.244 58.6714 107.968 58.7252 107.708 58.8329C107.451 58.9377 107.242 59.0909 107.079 59.2924C106.916 59.4911 106.828 59.7312 106.814 60.0127H105.82C105.837 59.5683 105.971 59.1792 106.222 58.8453C106.473 58.5086 106.802 58.2464 107.207 58.0588C107.616 57.8711 108.064 57.7773 108.553 57.7773C109.077 57.7773 109.527 57.8835 109.902 58.096C110.277 58.3058 110.566 58.5831 110.767 58.9281C110.969 59.273 111.069 59.6456 111.069 60.0458C111.069 60.5232 110.944 60.9303 110.693 61.267C110.444 61.6036 110.106 61.8368 109.679 61.9665V62.0328C110.214 62.1211 110.632 62.3488 110.933 62.7158C111.234 63.0801 111.384 63.5313 111.384 64.0695C111.384 64.5303 111.259 64.9443 111.007 65.3114C110.759 65.6756 110.42 65.9627 109.989 66.1724C109.559 66.3821 109.069 66.487 108.519 66.487ZM114.289 65.212L114.223 65.6591C114.176 65.9737 114.104 66.3104 114.008 66.6691C113.914 67.0279 113.816 67.366 113.714 67.6834C113.612 68.0007 113.527 68.2532 113.461 68.4409H112.716C112.752 68.2643 112.799 68.0311 112.857 67.7413C112.915 67.4515 112.973 67.1273 113.031 66.7685C113.091 66.4125 113.141 66.0482 113.18 65.6756L113.229 65.212H114.289ZM115.884 64.6325V63.788L119.61 57.8932H120.222V59.2013H119.808L116.993 63.6555V63.7217H122.01V64.6325H115.884ZM119.874 66.3711V64.3758V63.9825V57.8932H120.851V66.3711H119.874ZM126.261 57.7773C126.609 57.78 126.956 57.8463 127.304 57.976C127.652 58.1057 127.969 58.3209 128.256 58.6217C128.543 58.9198 128.774 59.3269 128.947 59.8429C129.121 60.359 129.208 61.0062 129.208 61.7844C129.208 62.5378 129.136 63.2071 128.993 63.7921C128.852 64.3744 128.648 64.8657 128.38 65.2658C128.115 65.666 127.792 65.9696 127.412 66.1765C127.034 66.3835 126.606 66.487 126.128 66.487C125.654 66.487 125.23 66.3932 124.858 66.2055C124.488 66.0151 124.184 65.7515 123.947 65.4148C123.712 65.0754 123.562 64.6821 123.496 64.2351H124.506C124.597 64.6242 124.777 64.9457 125.048 65.1996C125.321 65.4507 125.681 65.5763 126.128 65.5763C126.782 65.5763 127.298 65.2907 127.677 64.7194C128.057 64.1481 128.248 63.3409 128.248 62.2977H128.182C128.027 62.5295 127.844 62.7296 127.631 62.898C127.419 63.0663 127.183 63.196 126.923 63.2871C126.664 63.3782 126.388 63.4237 126.095 63.4237C125.61 63.4237 125.164 63.3036 124.758 63.0635C124.355 62.8207 124.032 62.4881 123.789 62.0659C123.549 61.6409 123.429 61.1552 123.429 60.6088C123.429 60.0899 123.545 59.6152 123.777 59.1847C124.012 58.7515 124.34 58.4065 124.762 58.1498C125.187 57.8932 125.687 57.769 126.261 57.7773ZM126.261 58.688C125.913 58.688 125.6 58.7749 125.321 58.9488C125.045 59.1199 124.826 59.3517 124.663 59.6442C124.503 59.934 124.423 60.2555 124.423 60.6088C124.423 60.962 124.5 61.2835 124.655 61.5733C124.812 61.8603 125.026 62.0894 125.296 62.2605C125.57 62.4288 125.88 62.513 126.228 62.513C126.49 62.513 126.734 62.4619 126.96 62.3598C127.187 62.2549 127.384 62.1128 127.552 61.9334C127.723 61.7513 127.857 61.5457 127.954 61.3166C128.051 61.0848 128.099 60.8433 128.099 60.5922C128.099 60.261 128.019 59.9506 127.859 59.6608C127.701 59.371 127.483 59.1364 127.205 58.9571C126.929 58.7777 126.614 58.688 126.261 58.688ZM133.535 57.7773C133.883 57.78 134.231 57.8463 134.578 57.976C134.926 58.1057 135.243 58.3209 135.53 58.6217C135.817 58.9198 136.048 59.3269 136.222 59.8429C136.396 60.359 136.483 61.0062 136.483 61.7844C136.483 62.5378 136.411 63.2071 136.267 63.7921C136.127 64.3744 135.922 64.8657 135.655 65.2658C135.39 65.666 135.067 65.9696 134.686 66.1765C134.308 66.3835 133.88 66.487 133.403 66.487C132.928 66.487 132.504 66.3932 132.132 66.2055C131.762 66.0151 131.458 65.7515 131.221 65.4148C130.987 65.0754 130.836 64.6821 130.77 64.2351H131.78C131.871 64.6242 132.052 64.9457 132.322 65.1996C132.595 65.4507 132.956 65.5763 133.403 65.5763C134.057 65.5763 134.573 65.2907 134.951 64.7194C135.332 64.1481 135.522 63.3409 135.522 62.2977H135.456C135.301 62.5295 135.118 62.7296 134.905 62.898C134.693 63.0663 134.457 63.196 134.197 63.2871C133.938 63.3782 133.662 63.4237 133.37 63.4237C132.884 63.4237 132.438 63.3036 132.032 63.0635C131.63 62.8207 131.307 62.4881 131.064 62.0659C130.824 61.6409 130.704 61.1552 130.704 60.6088C130.704 60.0899 130.82 59.6152 131.051 59.1847C131.286 58.7515 131.614 58.4065 132.037 58.1498C132.462 57.8932 132.961 57.769 133.535 57.7773ZM133.535 58.688C133.187 58.688 132.874 58.7749 132.595 58.9488C132.319 59.1199 132.1 59.3517 131.937 59.6442C131.777 59.934 131.697 60.2555 131.697 60.6088C131.697 60.962 131.774 61.2835 131.929 61.5733C132.086 61.8603 132.3 62.0894 132.571 62.2605C132.844 62.4288 133.154 62.513 133.502 62.513C133.764 62.513 134.008 62.4619 134.235 62.3598C134.461 62.2549 134.658 62.1128 134.827 61.9334C134.998 61.7513 135.132 61.5457 135.228 61.3166C135.325 61.0848 135.373 60.8433 135.373 60.5922C135.373 60.261 135.293 59.9506 135.133 59.6608C134.976 59.371 134.758 59.1364 134.479 58.9571C134.203 58.7777 133.888 58.688 133.535 58.688Z" fill="#1A1A1A"/>
<path d="M173.189 59.9961L172.887 61.1469H167.336L167.634 59.9961H173.189ZM170.304 66.3711L167.472 63.0015L167.476 61.9665H168.876C169.187 61.9665 169.448 61.9086 169.658 61.7927C169.868 61.6768 170.025 61.5195 170.13 61.3208C170.235 61.1221 170.289 60.8958 170.291 60.6419C170.289 60.261 170.177 59.9506 169.956 59.7105C169.738 59.4676 169.378 59.3462 168.876 59.3462H167.336L167.675 57.8932H168.876C169.579 57.8932 170.166 57.9994 170.635 58.2119C171.107 58.4217 171.46 58.7211 171.695 59.1102C171.932 59.4993 172.052 59.963 172.055 60.5011C172.052 60.9786 171.972 61.3953 171.815 61.7513C171.66 62.1073 171.416 62.404 171.082 62.6413C170.751 62.8786 170.319 63.0553 169.786 63.1712L169.72 63.196L172.253 66.2966V66.3711H170.304ZM173.197 57.8932L172.887 59.0605H168.317L168.627 57.8932H173.197ZM174.294 66.3711V65.0795L177.312 62.2853C177.569 62.0369 177.784 61.8134 177.958 61.6147C178.134 61.416 178.268 61.2214 178.359 61.031C178.45 60.8378 178.496 60.6295 178.496 60.4059C178.496 60.1575 178.439 59.9437 178.326 59.7643C178.213 59.5821 178.059 59.4428 177.863 59.3462C177.667 59.2468 177.445 59.1971 177.196 59.1971C176.937 59.1971 176.71 59.2496 176.517 59.3545C176.324 59.4593 176.175 59.6097 176.07 59.8057C175.965 60.0016 175.913 60.2348 175.913 60.5053H174.211C174.211 59.9506 174.337 59.469 174.588 59.0605C174.839 58.6521 175.191 58.3361 175.644 58.1126C176.096 57.889 176.618 57.7773 177.209 57.7773C177.816 57.7773 178.344 57.8849 178.794 58.1002C179.247 58.3127 179.598 58.6079 179.85 58.986C180.101 59.3641 180.226 59.7974 180.226 60.2859C180.226 60.606 180.163 60.922 180.036 61.2338C179.912 61.5457 179.69 61.892 179.369 62.2729C179.049 62.651 178.598 63.1049 178.016 63.6348L176.778 64.8477V64.9057H180.338V66.3711H174.294ZM183.57 65.212L183.525 65.6674C183.489 66.0316 183.42 66.3946 183.318 66.7561C183.218 67.1204 183.113 67.4502 183.003 67.7454C182.895 68.0407 182.808 68.2726 182.742 68.4409H181.6C181.641 68.2781 181.698 68.0504 181.769 67.7579C181.841 67.4681 181.909 67.1424 181.972 66.7809C182.036 66.4194 182.076 66.051 182.092 65.6756L182.113 65.212H183.57ZM185.038 64.8808V63.4692L188.577 57.8932H189.794V59.8471H189.074L186.842 63.3782V63.4444H191.872V64.8808H185.038ZM189.107 66.3711V64.4503L189.14 63.8252V57.8932H190.821V66.3711H189.107ZM196.134 57.7773C196.57 57.7773 196.989 57.8504 197.392 57.9967C197.798 58.1429 198.159 58.3761 198.477 58.6963C198.797 59.0164 199.049 59.4414 199.234 59.9713C199.422 60.4984 199.517 61.1455 199.52 61.9127C199.52 62.633 199.439 63.276 199.276 63.8418C199.116 64.4048 198.885 64.8836 198.584 65.2782C198.284 65.6729 197.921 65.9737 197.496 66.1807C197.071 66.3849 196.596 66.487 196.072 66.487C195.506 66.487 195.006 66.378 194.573 66.16C194.14 65.9392 193.791 65.6398 193.526 65.2617C193.264 64.8808 193.105 64.4531 193.05 63.9784H194.817C194.886 64.2875 195.031 64.5276 195.252 64.6987C195.473 64.867 195.746 64.9512 196.072 64.9512C196.624 64.9512 197.043 64.7111 197.33 64.2309C197.617 63.748 197.762 63.087 197.765 62.248H197.707C197.58 62.4964 197.409 62.7103 197.194 62.8897C196.978 63.0663 196.731 63.2029 196.453 63.2995C196.177 63.3961 195.883 63.4444 195.571 63.4444C195.071 63.4444 194.626 63.3271 194.234 63.0925C193.842 62.8579 193.533 62.5351 193.306 62.1239C193.08 61.7127 192.967 61.2435 192.967 60.7164C192.964 60.1479 193.095 59.6415 193.36 59.1971C193.625 58.7528 193.995 58.4051 194.47 58.154C194.947 57.9001 195.502 57.7745 196.134 57.7773ZM196.146 59.1847C195.867 59.1847 195.619 59.251 195.401 59.3834C195.186 59.5159 195.015 59.6939 194.888 59.9174C194.764 60.141 194.703 60.3907 194.706 60.6667C194.706 60.9454 194.766 61.1966 194.888 61.4201C195.012 61.6409 195.18 61.8175 195.393 61.95C195.608 62.0797 195.854 62.1446 196.13 62.1446C196.337 62.1446 196.528 62.1059 196.705 62.0286C196.882 61.9514 197.035 61.8451 197.165 61.7099C197.297 61.5719 197.401 61.4132 197.475 61.2338C197.55 61.0545 197.587 60.864 197.587 60.6626C197.584 60.3949 197.521 60.1493 197.396 59.9257C197.272 59.7022 197.101 59.5228 196.883 59.3876C196.665 59.2523 196.419 59.1847 196.146 59.1847ZM203.829 57.7773C204.265 57.7773 204.685 57.8504 205.088 57.9967C205.493 58.1429 205.855 58.3761 206.172 58.6963C206.492 59.0164 206.745 59.4414 206.93 59.9713C207.118 60.4984 207.213 61.1455 207.216 61.9127C207.216 62.633 207.134 63.276 206.971 63.8418C206.811 64.4048 206.581 64.8836 206.28 65.2782C205.979 65.6729 205.616 65.9737 205.191 66.1807C204.766 66.3849 204.292 66.487 203.767 66.487C203.202 66.487 202.702 66.378 202.269 66.16C201.835 65.9392 201.486 65.6398 201.221 65.2617C200.959 64.8808 200.801 64.4531 200.745 63.9784H202.513C202.582 64.2875 202.727 64.5276 202.948 64.6987C203.168 64.867 203.442 64.9512 203.767 64.9512C204.319 64.9512 204.739 64.7111 205.026 64.2309C205.313 63.748 205.458 63.087 205.46 62.248H205.402C205.275 62.4964 205.104 62.7103 204.889 62.8897C204.674 63.0663 204.427 63.2029 204.148 63.2995C203.872 63.3961 203.578 63.4444 203.266 63.4444C202.767 63.4444 202.321 63.3271 201.929 63.0925C201.537 62.8579 201.228 62.5351 201.002 62.1239C200.776 61.7127 200.663 61.2435 200.663 60.7164C200.66 60.1479 200.791 59.6415 201.056 59.1971C201.321 58.7528 201.691 58.4051 202.165 58.154C202.643 57.9001 203.197 57.7745 203.829 57.7773ZM203.842 59.1847C203.563 59.1847 203.315 59.251 203.097 59.3834C202.881 59.5159 202.71 59.6939 202.583 59.9174C202.459 60.141 202.398 60.3907 202.401 60.6667C202.401 60.9454 202.462 61.1966 202.583 61.4201C202.708 61.6409 202.876 61.8175 203.088 61.95C203.304 62.0797 203.549 62.1446 203.825 62.1446C204.032 62.1446 204.224 62.1059 204.401 62.0286C204.577 61.9514 204.73 61.8451 204.86 61.7099C204.993 61.5719 205.096 61.4132 205.171 61.2338C205.245 61.0545 205.282 60.864 205.282 60.6626C205.28 60.3949 205.216 60.1493 205.092 59.9257C204.968 59.7022 204.797 59.5228 204.579 59.3876C204.361 59.2523 204.115 59.1847 203.842 59.1847Z" fill="#E8501A"/>
<path d="M225.855 78.6865H7.2832V110.744H225.855V78.6865Z" fill="white" stroke="#ECEAE5" stroke-width="0.728571"/>
<path d="M21.4251 98.4287V89.9508H24.2897C24.952 89.9508 25.4957 90.0639 25.9207 90.2902C26.3457 90.5138 26.6603 90.8215 26.8645 91.2134C27.0687 91.6053 27.1708 92.051 27.1708 92.5505C27.1708 93.05 27.0687 93.4929 26.8645 93.8793C26.6603 94.2656 26.3471 94.5692 25.9248 94.79C25.5026 95.008 24.963 95.117 24.3062 95.117H21.988V94.1897H24.2731C24.7257 94.1897 25.09 94.1235 25.366 93.991C25.6447 93.8586 25.8462 93.6709 25.9704 93.4281C26.0973 93.1824 26.1608 92.8899 26.1608 92.5505C26.1608 92.211 26.0973 91.9143 25.9704 91.6604C25.8434 91.4066 25.6406 91.2106 25.3618 91.0726C25.0831 90.9319 24.7147 90.8615 24.2566 90.8615H22.4517V98.4287H21.4251ZM25.4156 94.6203L27.502 98.4287H26.3098L24.2566 94.6203H25.4156ZM30.6202 98.5777C30.2172 98.5777 29.8516 98.5018 29.5232 98.3501C29.1948 98.1955 28.934 97.9734 28.7408 97.6836C28.5476 97.391 28.451 97.0378 28.451 96.6238C28.451 96.2596 28.5228 95.9643 28.6663 95.738C28.8098 95.5089 29.0016 95.3295 29.2417 95.1998C29.4818 95.0701 29.7467 94.9735 30.0365 94.91C30.329 94.8438 30.6229 94.7914 30.9182 94.7527C31.3046 94.7031 31.6178 94.6658 31.8579 94.641C32.1008 94.6134 32.2774 94.5678 32.3878 94.5044C32.5009 94.4409 32.5575 94.3305 32.5575 94.1732V94.1401C32.5575 93.7316 32.4457 93.4143 32.2222 93.188C32.0014 92.9617 31.6661 92.8485 31.2163 92.8485C30.7499 92.8485 30.3842 92.9506 30.1193 93.1548C29.8543 93.3591 29.6681 93.5771 29.5604 93.8089L28.6332 93.4777C28.7987 93.0914 29.0195 92.7906 29.2955 92.5753C29.5742 92.3573 29.8778 92.2055 30.2062 92.1199C30.5374 92.0316 30.863 91.9875 31.1832 91.9875C31.3874 91.9875 31.622 92.0123 31.8869 92.062C32.1546 92.1089 32.4126 92.2069 32.661 92.3559C32.9121 92.5049 33.1205 92.7298 33.2861 93.0307C33.4517 93.3315 33.5345 93.7344 33.5345 94.2394V98.4287H32.5575V97.5677H32.5078C32.4416 97.7057 32.3312 97.8533 32.1767 98.0106C32.0221 98.1679 31.8165 98.3018 31.5599 98.4122C31.3032 98.5225 30.99 98.5777 30.6202 98.5777ZM30.7692 97.7001C31.1556 97.7001 31.4812 97.6242 31.7461 97.4725C32.0138 97.3207 32.2153 97.1247 32.3505 96.8846C32.4885 96.6445 32.5575 96.392 32.5575 96.1271V95.2329C32.5161 95.2826 32.425 95.3281 32.2843 95.3695C32.1463 95.4082 31.9862 95.4427 31.8041 95.473C31.6247 95.5006 31.4495 95.5255 31.2784 95.5475C31.11 95.5669 30.9734 95.5834 30.8685 95.5972C30.6147 95.6303 30.3773 95.6841 30.1565 95.7587C29.9385 95.8304 29.7619 95.9394 29.6267 96.0857C29.4942 96.2292 29.428 96.4251 29.428 96.6735C29.428 97.013 29.5535 97.2696 29.8047 97.4435C30.0586 97.6146 30.3801 97.7001 30.7692 97.7001ZM38.0829 92.0703V92.8982H34.7877V92.0703H38.0829ZM35.7481 90.5469H36.7251V96.6073C36.7251 96.8833 36.7651 97.0902 36.8451 97.2282C36.9279 97.3635 37.0328 97.4545 37.1597 97.5014C37.2894 97.5456 37.426 97.5677 37.5695 97.5677C37.6772 97.5677 37.7655 97.5622 37.8345 97.5511C37.9035 97.5373 37.9587 97.5263 38.0001 97.518L38.1988 98.3956C38.1325 98.4204 38.0401 98.4453 37.9214 98.4701C37.8027 98.4977 37.6523 98.5115 37.4702 98.5115C37.1942 98.5115 36.9238 98.4522 36.6588 98.3335C36.3967 98.2148 36.1786 98.0341 36.0048 97.7912C35.8337 97.5484 35.7481 97.242 35.7481 96.8722V90.5469ZM39.5524 98.4287V92.0703H40.5294V98.4287H39.5524ZM40.0492 91.0105C39.8587 91.0105 39.6945 90.9457 39.5566 90.816C39.4213 90.6863 39.3537 90.5303 39.3537 90.3482C39.3537 90.166 39.4213 90.0101 39.5566 89.8804C39.6945 89.7507 39.8587 89.6859 40.0492 89.6859C40.2396 89.6859 40.4024 89.7507 40.5376 89.8804C40.6756 90.0101 40.7446 90.166 40.7446 90.3482C40.7446 90.5303 40.6756 90.6863 40.5376 90.816C40.4024 90.9457 40.2396 91.0105 40.0492 91.0105ZM43.2957 94.6037V98.4287H42.3187V92.0703H43.2625V93.0638H43.3453C43.4944 92.7409 43.7207 92.4815 44.0242 92.2855C44.3278 92.0868 44.7197 91.9875 45.1999 91.9875C45.6304 91.9875 46.0071 92.0758 46.33 92.2524C46.6529 92.4263 46.904 92.6912 47.0834 93.0472C47.2628 93.4005 47.3525 93.8475 47.3525 94.3885V98.4287H46.3755V94.4547C46.3755 93.9552 46.2458 93.566 45.9864 93.2873C45.727 93.0058 45.371 92.8651 44.9184 92.8651C44.6065 92.8651 44.3278 92.9327 44.0822 93.0679C43.8393 93.2031 43.6475 93.4005 43.5068 93.6599C43.366 93.9193 43.2957 94.2339 43.2957 94.6037ZM51.7042 100.946C51.2323 100.946 50.8266 100.885 50.4872 100.763C50.1477 100.645 49.8649 100.487 49.6386 100.292C49.415 100.098 49.237 99.8914 49.1046 99.6706L49.8828 99.1242C49.9711 99.2401 50.0829 99.3725 50.2181 99.5216C50.3533 99.6734 50.5383 99.8044 50.7728 99.9148C51.0102 100.028 51.3206 100.085 51.7042 100.085C52.2176 100.085 52.6412 99.9604 52.9751 99.712C53.309 99.4636 53.476 99.0745 53.476 98.5446V97.2531H53.3932C53.3214 97.369 53.2193 97.5125 53.0869 97.6836C52.9572 97.8519 52.7695 98.0023 52.5239 98.1348C52.281 98.2645 51.9526 98.3294 51.5387 98.3294C51.0253 98.3294 50.5645 98.2079 50.156 97.9651C49.7503 97.7222 49.4288 97.369 49.1915 96.9053C48.9569 96.4417 48.8396 95.8787 48.8396 95.2164C48.8396 94.5651 48.9542 93.9979 49.1832 93.515C49.4123 93.0293 49.731 92.654 50.1395 92.389C50.5479 92.1213 51.0198 91.9875 51.5552 91.9875C51.9692 91.9875 52.2976 92.0565 52.5404 92.1945C52.7861 92.3297 52.9737 92.4842 53.1034 92.6581C53.2359 92.8292 53.338 92.9699 53.4098 93.0803H53.5091V92.0703H54.4529V98.6109C54.4529 99.1573 54.3288 99.6016 54.0804 99.9438C53.8348 100.289 53.5036 100.541 53.0869 100.701C52.6729 100.864 52.212 100.946 51.7042 100.946ZM51.6711 97.4518C52.063 97.4518 52.3942 97.3621 52.6646 97.1827C52.9351 97.0033 53.1407 96.7453 53.2814 96.4086C53.4222 96.0719 53.4926 95.669 53.4926 95.1998C53.4926 94.7417 53.4236 94.3374 53.2856 93.9869C53.1476 93.6364 52.9434 93.3618 52.6729 93.1631C52.4025 92.9644 52.0685 92.8651 51.6711 92.8651C51.2572 92.8651 50.9122 92.9699 50.6362 93.1797C50.363 93.3894 50.1574 93.6709 50.0194 94.0242C49.8842 94.3774 49.8166 94.7693 49.8166 95.1998C49.8166 95.6414 49.8856 96.0319 50.0236 96.3713C50.1643 96.708 50.3713 96.9729 50.6445 97.1661C50.9205 97.3566 51.2627 97.4518 51.6711 97.4518Z" fill="#7A776F"/>
<path d="M105.132 98.5446C104.586 98.5446 104.099 98.4508 103.671 98.2631C103.246 98.0755 102.908 97.8147 102.657 97.4807C102.408 97.1441 102.273 96.7535 102.251 96.3092H103.294C103.316 96.5824 103.41 96.8184 103.576 97.0171C103.741 97.213 103.958 97.3648 104.226 97.4725C104.493 97.5801 104.79 97.6339 105.116 97.6339C105.48 97.6339 105.803 97.5704 106.084 97.4435C106.366 97.3165 106.587 97.1399 106.747 96.9136C106.907 96.6873 106.987 96.4251 106.987 96.1271C106.987 95.8152 106.909 95.5406 106.755 95.3033C106.6 95.0632 106.374 94.8755 106.076 94.7403C105.778 94.6051 105.414 94.5375 104.983 94.5375H104.304V93.6268H104.983C105.32 93.6268 105.615 93.566 105.869 93.4446C106.126 93.3232 106.326 93.1521 106.469 92.9313C106.616 92.7105 106.689 92.4511 106.689 92.1531C106.689 91.866 106.625 91.6163 106.498 91.4038C106.371 91.1913 106.192 91.0257 105.96 90.907C105.731 90.7884 105.461 90.729 105.149 90.729C104.856 90.729 104.58 90.7829 104.321 90.8905C104.064 90.9954 103.854 91.1485 103.692 91.35C103.529 91.5487 103.44 91.7888 103.427 92.0703H102.433C102.45 91.626 102.584 91.2368 102.835 90.9029C103.086 90.5662 103.414 90.304 103.82 90.1164C104.228 89.9287 104.677 89.8349 105.165 89.8349C105.69 89.8349 106.14 89.9411 106.515 90.1536C106.89 90.3634 107.179 90.6407 107.38 90.9857C107.581 91.3307 107.682 91.7032 107.682 92.1034C107.682 92.5808 107.557 92.9879 107.306 93.3246C107.057 93.6613 106.719 93.8945 106.291 94.0242V94.0904C106.827 94.1787 107.245 94.4064 107.546 94.7734C107.846 95.1377 107.997 95.5889 107.997 96.1271C107.997 96.588 107.871 97.0019 107.62 97.369C107.372 97.7333 107.032 98.0203 106.602 98.23C106.171 98.4397 105.681 98.5446 105.132 98.5446ZM110.157 98.4949C109.952 98.4949 109.777 98.4218 109.631 98.2755C109.485 98.1293 109.412 97.954 109.412 97.7498C109.412 97.5456 109.485 97.3704 109.631 97.2241C109.777 97.0778 109.952 97.0047 110.157 97.0047C110.361 97.0047 110.536 97.0778 110.682 97.2241C110.829 97.3704 110.902 97.5456 110.902 97.7498C110.902 97.885 110.867 98.0092 110.798 98.1224C110.732 98.2355 110.642 98.3266 110.529 98.3956C110.419 98.4618 110.295 98.4949 110.157 98.4949ZM115.092 98.5446C114.524 98.5446 114.021 98.4439 113.585 98.2424C113.152 98.0382 112.814 97.7581 112.571 97.4021C112.328 97.0433 112.208 96.6349 112.211 96.1768C112.208 95.818 112.279 95.4868 112.422 95.1833C112.566 94.8769 112.762 94.6216 113.01 94.4174C113.261 94.2104 113.541 94.0794 113.85 94.0242V93.9745C113.445 93.8696 113.122 93.6419 112.882 93.2915C112.641 92.9382 112.523 92.5367 112.526 92.0868C112.523 91.6563 112.632 91.2713 112.853 90.9319C113.073 90.5924 113.377 90.3247 113.763 90.1288C114.152 89.9329 114.595 89.8349 115.092 89.8349C115.583 89.8349 116.022 89.9329 116.409 90.1288C116.795 90.3247 117.098 90.5924 117.319 90.9319C117.543 91.2713 117.656 91.6563 117.659 92.0868C117.656 92.5367 117.533 92.9382 117.29 93.2915C117.05 93.6419 116.731 93.8696 116.334 93.9745V94.0242C116.64 94.0794 116.916 94.2104 117.162 94.4174C117.408 94.6216 117.603 94.8769 117.75 95.1833C117.896 95.4868 117.971 95.818 117.973 96.1768C117.971 96.6349 117.846 97.0433 117.601 97.4021C117.358 97.7581 117.02 98.0382 116.587 98.2424C116.156 98.4439 115.658 98.5446 115.092 98.5446ZM115.092 97.6339C115.476 97.6339 115.807 97.5718 116.086 97.4476C116.364 97.3234 116.58 97.1482 116.731 96.9219C116.883 96.6956 116.96 96.4307 116.963 96.1271C116.96 95.807 116.878 95.5241 116.715 95.2785C116.552 95.0329 116.33 94.8397 116.048 94.6989C115.77 94.5582 115.451 94.4878 115.092 94.4878C114.731 94.4878 114.408 94.5582 114.123 94.6989C113.842 94.8397 113.62 95.0329 113.457 95.2785C113.297 95.5241 113.218 95.807 113.221 96.1271C113.218 96.4307 113.291 96.6956 113.44 96.9219C113.592 97.1482 113.809 97.3234 114.09 97.4476C114.372 97.5718 114.706 97.6339 115.092 97.6339ZM115.092 93.6102C115.396 93.6102 115.665 93.5495 115.899 93.4281C116.137 93.3066 116.323 93.1369 116.458 92.9189C116.593 92.7009 116.662 92.4456 116.665 92.1531C116.662 91.866 116.595 91.6163 116.462 91.4038C116.33 91.1885 116.146 91.0229 115.912 90.907C115.677 90.7884 115.404 90.729 115.092 90.729C114.775 90.729 114.497 90.7884 114.26 90.907C114.023 91.0229 113.839 91.1885 113.709 91.4038C113.58 91.6163 113.516 91.866 113.519 92.1531C113.516 92.4456 113.581 92.7009 113.714 92.9189C113.849 93.1369 114.035 93.3066 114.272 93.4281C114.51 93.5495 114.783 93.6102 115.092 93.6102ZM128.054 96.2513L124.925 98.5115L126.158 94.8355L123.021 92.567H126.862L128.054 88.891L129.246 92.567H133.088L129.95 94.8355L131.184 98.5115L128.054 96.2513Z" fill="#1A1A1A"/>
<path d="M171.913 96.9385V95.5268L175.452 89.9508H176.669V91.9047H175.949L173.718 95.4358V95.502H178.748V96.9385H171.913ZM175.982 98.4287V96.5079L176.015 95.8829V89.9508H177.696V98.4287H175.982ZM180.83 98.5363C180.557 98.5363 180.322 98.4397 180.126 98.2466C179.933 98.0506 179.836 97.816 179.836 97.5428C179.836 97.2724 179.933 97.0406 180.126 96.8474C180.322 96.6542 180.557 96.5576 180.83 96.5576C181.095 96.5576 181.327 96.6542 181.525 96.8474C181.724 97.0406 181.823 97.2724 181.823 97.5428C181.823 97.725 181.776 97.8919 181.683 98.0437C181.591 98.1928 181.471 98.3128 181.322 98.4039C181.173 98.4922 181.009 98.5363 180.83 98.5363ZM183.271 98.4287L186.786 91.4742V91.4162H182.692V89.9508H188.64V91.4369L185.121 98.4287H183.271ZM197.973 96.2513L194.843 98.5115L196.077 94.8355L192.939 92.567H196.781L197.973 88.891L199.165 92.567H203.007L199.869 94.8355L201.102 98.5115L197.973 96.2513Z" fill="#E8501A"/>
<path d="M225.855 110.742H7.2832V142.799H225.855V110.742Z" fill="#FAFAF8" stroke="#ECEAE5" stroke-width="0.728571"/>
<path d="M24.0413 130.485H21.4251V122.007H24.1572C24.9796 122.007 25.6833 122.177 26.2684 122.517C26.8535 122.853 27.3019 123.338 27.6138 123.97C27.9256 124.599 28.0816 125.352 28.0816 126.23C28.0816 127.113 27.9242 127.873 27.6096 128.511C27.295 129.145 26.8369 129.634 26.2353 129.976C25.6337 130.316 24.9023 130.485 24.0413 130.485ZM22.4517 129.575H23.9751C24.676 129.575 25.257 129.439 25.7178 129.169C26.1787 128.899 26.5223 128.514 26.7486 128.014C26.9749 127.514 27.088 126.92 27.088 126.23C27.088 125.545 26.9763 124.956 26.7527 124.462C26.5292 123.965 26.1953 123.585 25.751 123.32C25.3066 123.052 24.7533 122.918 24.091 122.918H22.4517V129.575ZM32.3371 130.618C31.7244 130.618 31.1959 130.483 30.7516 130.212C30.31 129.939 29.9692 129.558 29.7291 129.07C29.4918 128.578 29.3731 128.007 29.3731 127.356C29.3731 126.705 29.4918 126.13 29.7291 125.634C29.9692 125.134 30.3031 124.745 30.7309 124.466C31.1614 124.185 31.6637 124.044 32.2377 124.044C32.5689 124.044 32.8959 124.099 33.2188 124.21C33.5417 124.32 33.8356 124.499 34.1005 124.748C34.3655 124.993 34.5766 125.319 34.7339 125.725C34.8912 126.13 34.9699 126.63 34.9699 127.223V127.637H30.0686V126.793H33.9764C33.9764 126.434 33.9046 126.114 33.7611 125.832C33.6204 125.551 33.4189 125.329 33.1567 125.166C32.8973 125.003 32.591 124.922 32.2377 124.922C31.8486 124.922 31.5119 125.018 31.2277 125.211C30.9462 125.402 30.7295 125.65 30.5777 125.957C30.426 126.263 30.3501 126.591 30.3501 126.942V127.505C30.3501 127.985 30.4329 128.392 30.5984 128.726C30.7668 129.057 31 129.31 31.298 129.484C31.5961 129.655 31.9424 129.74 32.3371 129.74C32.5937 129.74 32.8255 129.704 33.0325 129.633C33.2423 129.558 33.423 129.448 33.5748 129.301C33.7266 129.152 33.8439 128.967 33.9267 128.747L34.8705 129.012C34.7712 129.332 34.6042 129.613 34.3696 129.856C34.135 130.096 33.8453 130.284 33.5003 130.419C33.1553 130.552 32.7676 130.618 32.3371 130.618ZM37.4329 122.007V130.485H36.456V122.007H37.4329ZM39.2223 130.485V124.127H40.1992V130.485H39.2223ZM39.719 123.067C39.5286 123.067 39.3644 123.002 39.2264 122.873C39.0912 122.743 39.0236 122.587 39.0236 122.405C39.0236 122.223 39.0912 122.067 39.2264 121.937C39.3644 121.807 39.5286 121.742 39.719 121.742C39.9095 121.742 40.0723 121.807 40.2075 121.937C40.3455 122.067 40.4145 122.223 40.4145 122.405C40.4145 122.587 40.3455 122.743 40.2075 122.873C40.0723 123.002 39.9095 123.067 39.719 123.067ZM47.1879 124.127L44.8366 130.485H43.8431L41.4918 124.127H42.5516L44.3068 129.194H44.373L46.1282 124.127H47.1879ZM50.9156 130.618C50.303 130.618 49.7745 130.483 49.3302 130.212C48.8886 129.939 48.5478 129.558 48.3077 129.07C48.0704 128.578 47.9517 128.007 47.9517 127.356C47.9517 126.705 48.0704 126.13 48.3077 125.634C48.5478 125.134 48.8817 124.745 49.3095 124.466C49.74 124.185 50.2423 124.044 50.8163 124.044C51.1475 124.044 51.4745 124.099 51.7974 124.21C52.1203 124.32 52.4142 124.499 52.6791 124.748C52.9441 124.993 53.1552 125.319 53.3125 125.725C53.4698 126.13 53.5484 126.63 53.5484 127.223V127.637H48.6471V126.793H52.5549C52.5549 126.434 52.4832 126.114 52.3397 125.832C52.1989 125.551 51.9975 125.329 51.7353 125.166C51.4759 125.003 51.1695 124.922 50.8163 124.922C50.4272 124.922 50.0905 125.018 49.8062 125.211C49.5247 125.402 49.3081 125.65 49.1563 125.957C49.0045 126.263 48.9286 126.591 48.9286 126.942V127.505C48.9286 127.985 49.0114 128.392 49.177 128.726C49.3454 129.057 49.5786 129.31 49.8766 129.484C50.1747 129.655 50.521 129.74 50.9156 129.74C51.1723 129.74 51.4041 129.704 51.6111 129.633C51.8208 129.558 52.0016 129.448 52.1534 129.301C52.3052 129.152 52.4225 128.967 52.5053 128.747L53.4491 129.012C53.3497 129.332 53.1828 129.613 52.9482 129.856C52.7136 130.096 52.4238 130.284 52.0789 130.419C51.7339 130.552 51.3462 130.618 50.9156 130.618ZM55.0346 130.485V124.127H55.9784V125.087H56.0446C56.1605 124.773 56.3703 124.517 56.6738 124.321C56.9774 124.126 57.3196 124.028 57.7005 124.028C57.7722 124.028 57.8619 124.029 57.9695 124.032C58.0772 124.034 58.1586 124.039 58.2138 124.044V125.038C58.1807 125.029 58.1048 125.017 57.9861 125C57.8702 124.981 57.7474 124.971 57.6177 124.971C57.3086 124.971 57.0326 125.036 56.7898 125.166C56.5497 125.293 56.3592 125.47 56.2185 125.696C56.0805 125.919 56.0115 126.175 56.0115 126.462V130.485H55.0346ZM60.1946 132.87C60.029 132.87 59.8813 132.856 59.7516 132.828C59.6219 132.804 59.5322 132.779 59.4826 132.754L59.7309 131.893C59.9683 131.954 60.178 131.976 60.3602 131.959C60.5423 131.942 60.7038 131.861 60.8445 131.715C60.988 131.571 61.1191 131.338 61.2378 131.015L61.4199 130.518L59.0686 124.127H60.1283L61.8835 129.194H61.9498L63.705 124.127H64.7647L62.0657 131.413C61.9443 131.741 61.7938 132.013 61.6145 132.228C61.4351 132.446 61.2267 132.608 60.9894 132.712C60.7548 132.817 60.4899 132.87 60.1946 132.87Z" fill="#7A776F"/>
<path d="M102.845 130.601C102.36 130.601 101.922 130.505 101.533 130.311C101.144 130.118 100.832 129.853 100.598 129.517C100.363 129.18 100.235 128.796 100.213 128.366H101.206C101.245 128.749 101.419 129.067 101.728 129.318C102.04 129.566 102.412 129.691 102.845 129.691C103.193 129.691 103.502 129.609 103.773 129.446C104.046 129.283 104.26 129.06 104.414 128.776C104.572 128.489 104.65 128.164 104.65 127.803C104.65 127.433 104.569 127.103 104.406 126.814C104.246 126.521 104.025 126.291 103.744 126.122C103.462 125.954 103.141 125.868 102.779 125.866C102.52 125.863 102.253 125.903 101.98 125.986C101.707 126.066 101.482 126.169 101.305 126.296L100.345 126.18L100.858 122.007H105.263V122.918H101.719L101.421 125.418H101.471C101.645 125.28 101.863 125.166 102.125 125.075C102.387 124.984 102.661 124.938 102.945 124.938C103.464 124.938 103.926 125.062 104.332 125.311C104.74 125.556 105.06 125.893 105.292 126.321C105.527 126.749 105.644 127.237 105.644 127.786C105.644 128.327 105.522 128.81 105.28 129.235C105.039 129.657 104.708 129.991 104.286 130.237C103.864 130.48 103.384 130.601 102.845 130.601ZM112.984 130.618C112.454 130.618 111.987 130.484 111.581 130.216C111.175 129.946 110.858 129.565 110.629 129.074C110.4 128.58 110.285 127.996 110.285 127.323C110.285 126.655 110.4 126.075 110.629 125.584C110.858 125.093 111.177 124.713 111.585 124.446C111.994 124.178 112.466 124.044 113.001 124.044C113.415 124.044 113.742 124.113 113.982 124.251C114.225 124.386 114.41 124.541 114.537 124.715C114.666 124.886 114.767 125.027 114.839 125.137H114.922V122.007H115.899V130.485H114.955V129.508H114.839C114.767 129.624 114.665 129.771 114.533 129.947C114.4 130.121 114.211 130.277 113.965 130.415C113.72 130.55 113.393 130.618 112.984 130.618ZM113.117 129.74C113.509 129.74 113.84 129.638 114.11 129.434C114.381 129.227 114.586 128.941 114.727 128.577C114.868 128.21 114.938 127.786 114.938 127.306C114.938 126.831 114.869 126.416 114.731 126.06C114.593 125.701 114.389 125.423 114.119 125.224C113.848 125.022 113.514 124.922 113.117 124.922C112.703 124.922 112.358 125.028 112.082 125.24C111.809 125.45 111.603 125.736 111.465 126.097C111.33 126.456 111.262 126.859 111.262 127.306C111.262 127.759 111.331 128.17 111.469 128.54C111.61 128.907 111.817 129.199 112.09 129.417C112.366 129.633 112.708 129.74 113.117 129.74ZM119.695 130.634C119.292 130.634 118.926 130.558 118.598 130.407C118.269 130.252 118.008 130.03 117.815 129.74C117.622 129.448 117.526 129.094 117.526 128.68C117.526 128.316 117.597 128.021 117.741 127.795C117.884 127.566 118.076 127.386 118.316 127.256C118.556 127.127 118.821 127.03 119.111 126.967C119.404 126.9 119.697 126.848 119.993 126.809C120.379 126.76 120.692 126.722 120.932 126.698C121.175 126.67 121.352 126.624 121.462 126.561C121.575 126.498 121.632 126.387 121.632 126.23V126.197C121.632 125.788 121.52 125.471 121.297 125.245C121.076 125.018 120.741 124.905 120.291 124.905C119.824 124.905 119.459 125.007 119.194 125.211C118.929 125.416 118.743 125.634 118.635 125.866L117.708 125.534C117.873 125.148 118.094 124.847 118.37 124.632C118.649 124.414 118.952 124.262 119.281 124.177C119.612 124.088 119.938 124.044 120.258 124.044C120.462 124.044 120.696 124.069 120.961 124.119C121.229 124.166 121.487 124.264 121.735 124.413C121.987 124.562 122.195 124.786 122.361 125.087C122.526 125.388 122.609 125.791 122.609 126.296V130.485H121.632V129.624H121.582C121.516 129.762 121.406 129.91 121.251 130.067C121.097 130.225 120.891 130.358 120.634 130.469C120.378 130.579 120.064 130.634 119.695 130.634ZM119.844 129.757C120.23 129.757 120.556 129.681 120.821 129.529C121.088 129.377 121.29 129.181 121.425 128.941C121.563 128.701 121.632 128.449 121.632 128.184V127.29C121.591 127.339 121.5 127.385 121.359 127.426C121.221 127.465 121.061 127.499 120.879 127.53C120.699 127.557 120.524 127.582 120.353 127.604C120.185 127.624 120.048 127.64 119.943 127.654C119.689 127.687 119.452 127.741 119.231 127.815C119.013 127.887 118.836 127.996 118.701 128.142C118.569 128.286 118.502 128.482 118.502 128.73C118.502 129.07 118.628 129.326 118.879 129.5C119.133 129.671 119.455 129.757 119.844 129.757ZM124.794 132.87C124.628 132.87 124.48 132.856 124.351 132.828C124.221 132.804 124.131 132.779 124.082 132.754L124.33 131.893C124.567 131.954 124.777 131.976 124.959 131.959C125.141 131.942 125.303 131.861 125.444 131.715C125.587 131.571 125.718 131.338 125.837 131.015L126.019 130.518L123.668 124.127H124.727L126.483 129.194H126.549L128.304 124.127H129.364L126.665 131.413C126.543 131.741 126.393 132.013 126.214 132.228C126.034 132.446 125.826 132.608 125.588 132.712C125.354 132.817 125.089 132.87 124.794 132.87ZM135.157 125.551L134.28 125.799C134.224 125.653 134.143 125.511 134.035 125.373C133.93 125.232 133.787 125.116 133.605 125.025C133.423 124.934 133.189 124.889 132.905 124.889C132.516 124.889 132.192 124.978 131.932 125.158C131.676 125.334 131.547 125.559 131.547 125.832C131.547 126.075 131.636 126.267 131.812 126.408C131.989 126.549 132.265 126.666 132.64 126.76L133.584 126.992C134.153 127.13 134.576 127.341 134.855 127.625C135.134 127.906 135.273 128.269 135.273 128.714C135.273 129.078 135.168 129.404 134.958 129.691C134.751 129.978 134.462 130.204 134.089 130.369C133.717 130.535 133.283 130.618 132.789 130.618C132.141 130.618 131.604 130.477 131.179 130.196C130.754 129.914 130.485 129.503 130.372 128.962L131.299 128.73C131.387 129.072 131.554 129.329 131.8 129.5C132.048 129.671 132.373 129.757 132.773 129.757C133.228 129.757 133.59 129.66 133.857 129.467C134.128 129.271 134.263 129.036 134.263 128.763C134.263 128.542 134.186 128.358 134.031 128.209C133.877 128.057 133.639 127.944 133.319 127.869L132.259 127.621C131.677 127.483 131.249 127.269 130.976 126.979C130.706 126.687 130.57 126.321 130.57 125.882C130.57 125.523 130.671 125.206 130.873 124.93C131.077 124.654 131.354 124.437 131.705 124.28C132.058 124.123 132.458 124.044 132.905 124.044C133.534 124.044 134.028 124.182 134.387 124.458C134.749 124.734 135.005 125.098 135.157 125.551Z" fill="#1A1A1A"/>
<path d="M170.735 122.007V130.485H169.187L165.498 125.149H165.436V130.485H163.644V122.007H165.217L168.876 127.339H168.951V122.007H170.735ZM175.081 130.61C174.427 130.61 173.864 130.477 173.392 130.212C172.922 129.944 172.561 129.566 172.307 129.078C172.053 128.587 171.926 128.006 171.926 127.335C171.926 126.681 172.053 126.107 172.307 125.613C172.561 125.119 172.918 124.734 173.379 124.458C173.843 124.182 174.387 124.044 175.01 124.044C175.43 124.044 175.82 124.112 176.182 124.247C176.546 124.379 176.863 124.58 177.134 124.847C177.407 125.115 177.62 125.452 177.771 125.857C177.923 126.26 177.999 126.732 177.999 127.273V127.757H172.63V126.664H176.339C176.339 126.411 176.284 126.186 176.173 125.99C176.063 125.794 175.91 125.641 175.714 125.53C175.521 125.417 175.296 125.361 175.039 125.361C174.772 125.361 174.534 125.423 174.327 125.547C174.123 125.668 173.963 125.832 173.847 126.039C173.731 126.244 173.672 126.471 173.669 126.722V127.761C173.669 128.076 173.727 128.348 173.843 128.577C173.962 128.806 174.128 128.983 174.344 129.107C174.559 129.231 174.814 129.293 175.11 129.293C175.306 129.293 175.485 129.266 175.648 129.21C175.811 129.155 175.95 129.072 176.066 128.962C176.182 128.852 176.27 128.716 176.331 128.556L177.962 128.664C177.879 129.056 177.709 129.398 177.453 129.691C177.199 129.98 176.87 130.207 176.467 130.369C176.067 130.53 175.605 130.61 175.081 130.61ZM180.51 124.127L181.677 126.35L182.873 124.127H184.682L182.84 127.306L184.732 130.485H182.931L181.677 128.287L180.443 130.485H178.622L180.51 127.306L178.688 124.127H180.51ZM189.112 124.127V125.452H185.283V124.127H189.112ZM186.152 122.604H187.915V128.531C187.915 128.694 187.94 128.821 187.99 128.912C188.04 129.001 188.109 129.063 188.197 129.099C188.288 129.134 188.393 129.152 188.512 129.152C188.594 129.152 188.677 129.145 188.76 129.132C188.843 129.115 188.906 129.103 188.95 129.094L189.228 130.407C189.139 130.434 189.015 130.466 188.855 130.502C188.695 130.541 188.501 130.564 188.271 130.572C187.846 130.589 187.474 130.532 187.154 130.403C186.836 130.273 186.589 130.071 186.413 129.798C186.236 129.525 186.149 129.18 186.152 128.763V122.604ZM195.302 130.589C194.819 130.589 194.381 130.465 193.989 130.216C193.6 129.965 193.291 129.597 193.062 129.111C192.836 128.623 192.723 128.024 192.723 127.314C192.723 126.586 192.84 125.98 193.074 125.497C193.309 125.011 193.621 124.649 194.01 124.408C194.402 124.166 194.831 124.044 195.297 124.044C195.653 124.044 195.95 124.105 196.187 124.226C196.428 124.345 196.621 124.494 196.767 124.673C196.916 124.85 197.029 125.024 197.106 125.195H197.16V122.007H198.92V130.485H197.181V129.467H197.106C197.024 129.644 196.906 129.819 196.755 129.993C196.606 130.164 196.411 130.306 196.171 130.419C195.934 130.532 195.644 130.589 195.302 130.589ZM195.86 129.186C196.145 129.186 196.385 129.108 196.581 128.954C196.779 128.796 196.931 128.577 197.036 128.295C197.144 128.014 197.197 127.684 197.197 127.306C197.197 126.928 197.145 126.6 197.04 126.321C196.935 126.042 196.784 125.827 196.585 125.675C196.386 125.523 196.145 125.447 195.86 125.447C195.571 125.447 195.326 125.526 195.128 125.683C194.929 125.841 194.779 126.059 194.676 126.337C194.574 126.616 194.523 126.939 194.523 127.306C194.523 127.676 194.574 128.003 194.676 128.287C194.781 128.569 194.932 128.789 195.128 128.95C195.326 129.107 195.571 129.186 195.86 129.186ZM202.183 130.605C201.777 130.605 201.415 130.535 201.098 130.394C200.781 130.251 200.53 130.04 200.345 129.761C200.162 129.479 200.071 129.129 200.071 128.709C200.071 128.356 200.136 128.06 200.266 127.819C200.396 127.579 200.572 127.386 200.796 127.24C201.019 127.094 201.273 126.983 201.558 126.909C201.845 126.834 202.145 126.782 202.46 126.751C202.83 126.713 203.128 126.677 203.354 126.644C203.58 126.608 203.745 126.555 203.847 126.486C203.949 126.417 204 126.315 204 126.18V126.155C204 125.893 203.917 125.69 203.752 125.547C203.589 125.403 203.357 125.332 203.056 125.332C202.739 125.332 202.486 125.402 202.299 125.543C202.111 125.681 201.987 125.855 201.926 126.064L200.295 125.932C200.378 125.545 200.541 125.211 200.783 124.93C201.026 124.646 201.34 124.428 201.723 124.276C202.109 124.121 202.557 124.044 203.064 124.044C203.418 124.044 203.756 124.086 204.079 124.168C204.404 124.251 204.693 124.379 204.944 124.553C205.198 124.727 205.398 124.951 205.544 125.224C205.69 125.494 205.763 125.819 205.763 126.197V130.485H204.091V129.604H204.041C203.939 129.802 203.803 129.978 203.631 130.129C203.46 130.278 203.255 130.396 203.015 130.481C202.775 130.564 202.497 130.605 202.183 130.605ZM202.688 129.388C202.947 129.388 203.176 129.337 203.375 129.235C203.574 129.13 203.729 128.99 203.843 128.813C203.956 128.636 204.012 128.436 204.012 128.213V127.538C203.957 127.574 203.881 127.607 203.785 127.637C203.691 127.665 203.585 127.691 203.466 127.716C203.347 127.738 203.229 127.759 203.11 127.778C202.991 127.795 202.884 127.81 202.787 127.824C202.58 127.854 202.399 127.902 202.245 127.968C202.09 128.035 201.97 128.124 201.885 128.238C201.799 128.348 201.756 128.486 201.756 128.652C201.756 128.892 201.843 129.075 202.017 129.202C202.194 129.326 202.417 129.388 202.688 129.388ZM207.993 132.87C207.769 132.87 207.559 132.852 207.363 132.816C207.17 132.783 207.01 132.74 206.883 132.688L207.281 131.371C207.488 131.435 207.674 131.469 207.839 131.475C208.008 131.48 208.153 131.442 208.274 131.359C208.398 131.276 208.499 131.135 208.576 130.937L208.68 130.667L206.399 124.127H208.253L209.57 128.796H209.636L210.965 124.127H212.832L210.36 131.173C210.242 131.515 210.08 131.813 209.876 132.067C209.675 132.323 209.419 132.521 209.11 132.659C208.801 132.799 208.429 132.87 207.993 132.87Z" fill="#E8501A"/>
<path d="M225.855 142.8H7.2832V167.571H225.855V142.8Z" fill="white" stroke="#ECEAE5" stroke-width="0.728571"/>
<path d="M21.4251 158.172V149.694H24.2897C24.952 149.694 25.4957 149.807 25.9207 150.033C26.3457 150.257 26.6603 150.565 26.8645 150.957C27.0687 151.348 27.1708 151.794 27.1708 152.294C27.1708 152.793 27.0687 153.236 26.8645 153.622C26.6603 154.009 26.3471 154.312 25.9248 154.533C25.5026 154.751 24.963 154.86 24.3062 154.86H21.988V153.933H24.2731C24.7257 153.933 25.09 153.867 25.366 153.734C25.6447 153.602 25.8462 153.414 25.9704 153.171C26.0973 152.926 26.1608 152.633 26.1608 152.294C26.1608 151.954 26.0973 151.658 25.9704 151.404C25.8434 151.15 25.6406 150.954 25.3618 150.816C25.0831 150.675 24.7147 150.605 24.2566 150.605H22.4517V158.172H21.4251ZM25.4156 154.363L27.502 158.172H26.3098L24.2566 154.363H25.4156ZM31.3467 158.304C30.734 158.304 30.2055 158.169 29.7612 157.899C29.3196 157.625 28.9788 157.245 28.7387 156.756C28.5014 156.265 28.3827 155.694 28.3827 155.042C28.3827 154.391 28.5014 153.817 28.7387 153.32C28.9788 152.821 29.3127 152.432 29.7405 152.153C30.171 151.871 30.6733 151.731 31.2473 151.731C31.5785 151.731 31.9055 151.786 32.2284 151.896C32.5513 152.007 32.8452 152.186 33.1101 152.434C33.3751 152.68 33.5862 153.006 33.7435 153.411C33.9008 153.817 33.9795 154.317 33.9795 154.91V155.324H29.0782V154.479H32.986C32.986 154.121 32.9142 153.8 32.7707 153.519C32.63 153.237 32.4285 153.015 32.1663 152.852C31.9069 152.69 31.6006 152.608 31.2473 152.608C30.8582 152.608 30.5215 152.705 30.2373 152.898C29.9558 153.088 29.7391 153.337 29.5873 153.643C29.4356 153.949 29.3597 154.278 29.3597 154.628V155.191C29.3597 155.672 29.4425 156.079 29.608 156.413C29.7764 156.744 30.0096 156.996 30.3076 157.17C30.6057 157.341 30.952 157.427 31.3467 157.427C31.6033 157.427 31.8351 157.391 32.0421 157.319C32.2519 157.245 32.4326 157.134 32.5844 156.988C32.7362 156.839 32.8535 156.654 32.9363 156.433L33.8801 156.698C33.7808 157.018 33.6138 157.3 33.3792 157.543C33.1446 157.783 32.8549 157.97 32.5099 158.106C32.1649 158.238 31.7772 158.304 31.3467 158.304ZM38.2308 151.813V152.641H34.9357V151.813H38.2308ZM35.8961 150.29H36.8731V156.35C36.8731 156.626 36.9131 156.833 36.9931 156.971C37.0759 157.107 37.1808 157.198 37.3077 157.245C37.4374 157.289 37.574 157.311 37.7175 157.311C37.8252 157.311 37.9135 157.305 37.9825 157.294C38.0515 157.28 38.1067 157.269 38.1481 157.261L38.3468 158.139C38.2805 158.164 38.1881 158.188 38.0694 158.213C37.9507 158.241 37.8003 158.255 37.6182 158.255C37.3422 158.255 37.0718 158.195 36.8068 158.077C36.5446 157.958 36.3266 157.777 36.1528 157.534C35.9817 157.292 35.8961 156.985 35.8961 156.615V150.29ZM43.7075 155.572V151.813H44.6845V158.172H43.7075V157.096H43.6413C43.4923 157.418 43.2605 157.693 42.9459 157.919C42.6312 158.143 42.2338 158.255 41.7537 158.255C41.3562 158.255 41.003 158.168 40.6939 157.994C40.3848 157.817 40.142 157.552 39.9653 157.199C39.7887 156.843 39.7004 156.395 39.7004 155.854V151.813H40.6774V155.787C40.6774 156.251 40.8071 156.621 41.0665 156.897C41.3287 157.173 41.6626 157.311 42.0683 157.311C42.3111 157.311 42.5581 157.249 42.8093 157.125C43.0631 157 43.2756 156.81 43.4468 156.553C43.6206 156.297 43.7075 155.97 43.7075 155.572ZM46.4738 158.172V151.813H47.4177V152.774H47.4839C47.5998 152.459 47.8096 152.204 48.1131 152.008C48.4167 151.812 48.7589 151.714 49.1398 151.714C49.2115 151.714 49.3012 151.715 49.4088 151.718C49.5165 151.721 49.5979 151.725 49.6531 151.731V152.724C49.6199 152.716 49.5441 152.703 49.4254 152.687C49.3095 152.668 49.1867 152.658 49.057 152.658C48.7479 152.658 48.4719 152.723 48.229 152.852C47.9889 152.979 47.7985 153.156 47.6578 153.382C47.5198 153.606 47.4508 153.861 47.4508 154.148V158.172H46.4738ZM51.7881 154.347V158.172H50.8111V151.813H51.755V152.807H51.8377C51.9868 152.484 52.2131 152.225 52.5166 152.029C52.8202 151.83 53.2121 151.731 53.6923 151.731C54.1228 151.731 54.4995 151.819 54.8224 151.996C55.1453 152.169 55.3964 152.434 55.5758 152.79C55.7552 153.144 55.8449 153.591 55.8449 154.132V158.172H54.8679V154.198C54.8679 153.698 54.7382 153.309 54.4788 153.03C54.2194 152.749 53.8634 152.608 53.4108 152.608C53.0989 152.608 52.8202 152.676 52.5746 152.811C52.3317 152.946 52.1399 153.144 51.9992 153.403C51.8584 153.662 51.7881 153.977 51.7881 154.347ZM62.134 153.237L61.2564 153.486C61.2012 153.34 61.1198 153.197 61.0122 153.059C60.9073 152.919 60.7638 152.803 60.5816 152.712C60.3995 152.621 60.1663 152.575 59.882 152.575C59.4929 152.575 59.1687 152.665 58.9092 152.844C58.6526 153.021 58.5243 153.246 58.5243 153.519C58.5243 153.762 58.6126 153.954 58.7892 154.094C58.9658 154.235 59.2418 154.352 59.6171 154.446L60.5609 154.678C61.1294 154.816 61.5531 155.027 61.8318 155.311C62.1105 155.593 62.2499 155.956 62.2499 156.4C62.2499 156.764 62.145 157.09 61.9353 157.377C61.7283 157.664 61.4385 157.89 61.066 158.056C60.6934 158.222 60.2601 158.304 59.7661 158.304C59.1176 158.304 58.5808 158.164 58.1558 157.882C57.7308 157.601 57.4618 157.189 57.3486 156.648L58.2759 156.417C58.3642 156.759 58.5312 157.016 58.7768 157.187C59.0251 157.358 59.3494 157.443 59.7496 157.443C60.2049 157.443 60.5665 157.347 60.8342 157.154C61.1046 156.958 61.2398 156.723 61.2398 156.45C61.2398 156.229 61.1626 156.044 61.008 155.895C60.8535 155.743 60.6161 155.63 60.296 155.556L59.2363 155.307C58.654 155.169 58.2262 154.955 57.953 154.666C57.6825 154.373 57.5473 154.007 57.5473 153.569C57.5473 153.21 57.648 152.892 57.8495 152.617C58.0537 152.341 58.3311 152.124 58.6816 151.967C59.0348 151.809 59.435 151.731 59.882 151.731C60.5113 151.731 61.0053 151.869 61.364 152.145C61.7255 152.421 61.9822 152.785 62.134 153.237Z" fill="#7A776F"/>
<path d="M109.961 150.763L120.264 161.066" stroke="#B4B0A8" stroke-width="2.18571" stroke-linecap="round"/>
<path d="M120.266 150.763L109.962 161.066" stroke="#B4B0A8" stroke-width="2.18571" stroke-linecap="round"/>
<path d="M180.686 155.914L184.849 160.286L195.257 151.543" stroke="#E8501A" stroke-width="2.91429" stroke-linecap="round" stroke-linejoin="round"/>
<path d="M208.944 170.485H24.1935C16.4636 170.485 10.1973 175.704 10.1973 182.142C10.1973 188.581 16.4636 193.8 24.1935 193.8H208.944C216.674 193.8 222.94 188.581 222.94 182.142C222.94 175.704 216.674 170.485 208.944 170.485Z" fill="#FFF0EB"/>
<path d="M36.3005 186.045C36.2203 185.571 36.009 185.061 35.6666 184.515C35.3242 183.961 34.836 183.448 34.2022 182.974C33.5756 182.5 32.949 182.198 32.3225 182.067V181.608C32.9417 181.462 33.5355 181.193 34.1038 180.799C34.6794 180.399 35.1602 179.918 35.5464 179.357C35.9398 178.781 36.1912 178.213 36.3005 177.652H36.7595C36.825 178.016 36.9562 178.391 37.1529 178.777C37.3496 179.156 37.601 179.521 37.907 179.87C38.2202 180.213 38.57 180.522 38.9561 180.799C39.5317 181.207 40.1182 181.477 40.7156 181.608V182.067C40.3149 182.147 39.8996 182.311 39.4697 182.559C39.0472 182.806 38.6537 183.102 38.2895 183.444C37.9252 183.779 37.6265 184.132 37.3933 184.504C37.0509 185.05 36.8396 185.564 36.7595 186.045H36.3005ZM44.4944 185.586V177.638H47.6302C48.2304 177.638 48.7427 177.745 49.167 177.96C49.5939 178.172 49.9186 178.474 50.1411 178.864C50.3662 179.252 50.4787 179.709 50.4787 180.234C50.4787 180.762 50.3649 181.216 50.1372 181.596C49.9095 181.974 49.5797 182.264 49.1476 182.466C48.7181 182.668 48.1981 182.768 47.5875 182.768H45.4879V181.418H47.3158C47.6366 181.418 47.9031 181.374 48.1153 181.286C48.3274 181.198 48.4853 181.066 48.5887 180.89C48.6948 180.714 48.7479 180.496 48.7479 180.234C48.7479 179.97 48.6948 179.748 48.5887 179.567C48.4853 179.386 48.3261 179.248 48.1114 179.155C47.8992 179.06 47.6315 179.012 47.308 179.012H46.1748V185.586H44.4944ZM48.7867 181.969L50.762 185.586H48.907L46.9743 181.969H48.7867ZM54.2558 185.702C53.6426 185.702 53.1148 185.578 52.6724 185.33C52.2326 185.079 51.8936 184.724 51.6556 184.266C51.4176 183.806 51.2986 183.261 51.2986 182.633C51.2986 182.019 51.4176 181.481 51.6556 181.018C51.8936 180.555 52.2287 180.194 52.6608 179.935C53.0954 179.677 53.6051 179.547 54.1898 179.547C54.5831 179.547 54.9492 179.611 55.2881 179.737C55.6296 179.862 55.9272 180.049 56.1807 180.3C56.4369 180.551 56.6361 180.867 56.7784 181.247C56.9207 181.625 56.9918 182.067 56.9918 182.574V183.028H51.9583V182.004H55.4356C55.4356 181.766 55.3838 181.555 55.2804 181.371C55.1769 181.188 55.0333 181.044 54.8496 180.941C54.6685 180.834 54.4576 180.781 54.217 180.781C53.966 180.781 53.7435 180.84 53.5495 180.956C53.358 181.07 53.208 181.224 53.0993 181.418C52.9906 181.609 52.935 181.823 52.9324 182.058V183.032C52.9324 183.327 52.9868 183.582 53.0954 183.797C53.2067 184.012 53.3632 184.177 53.565 184.294C53.7668 184.41 54.0061 184.468 54.283 184.468C54.4667 184.468 54.6348 184.442 54.7875 184.391C54.9401 184.339 55.0708 184.261 55.1795 184.158C55.2881 184.054 55.3709 183.928 55.4278 183.777L56.9569 183.878C56.8793 184.246 56.7202 184.567 56.4795 184.841C56.2415 185.112 55.9336 185.325 55.5559 185.477C55.1807 185.627 54.7474 185.702 54.2558 185.702ZM60.764 185.702C60.1535 185.702 59.6282 185.573 59.1884 185.314C58.7512 185.053 58.4148 184.691 58.1794 184.228C57.9465 183.765 57.8301 183.232 57.8301 182.629C57.8301 182.018 57.9478 181.483 58.1833 181.022C58.4213 180.559 58.7589 180.198 59.1962 179.939C59.6334 179.678 60.1535 179.547 60.7563 179.547C61.2763 179.547 61.7317 179.642 62.1224 179.831C62.513 180.019 62.8222 180.285 63.0499 180.626C63.2776 180.968 63.403 181.369 63.4263 181.829H61.8662C61.8222 181.532 61.7058 181.292 61.5169 181.111C61.3307 180.928 61.0862 180.836 60.7834 180.836C60.5273 180.836 60.3035 180.906 60.1121 181.045C59.9232 181.182 59.7757 181.383 59.6696 181.647C59.5636 181.911 59.5105 182.23 59.5105 182.605C59.5105 182.986 59.5623 183.309 59.6658 183.576C59.7718 183.842 59.9206 184.045 60.1121 184.185C60.3035 184.325 60.5273 184.395 60.7834 184.395C60.9723 184.395 61.1418 184.356 61.2918 184.278C61.4445 184.2 61.57 184.088 61.6683 183.94C61.7692 183.79 61.8352 183.611 61.8662 183.401H63.4263C63.4005 183.856 63.2763 184.257 63.0538 184.604C62.8339 184.948 62.5298 185.217 62.1418 185.411C61.7537 185.605 61.2944 185.702 60.764 185.702ZM67.1782 185.702C66.5753 185.702 66.054 185.574 65.6142 185.318C65.1769 185.059 64.8393 184.7 64.6013 184.239C64.3632 183.776 64.2442 183.239 64.2442 182.629C64.2442 182.013 64.3632 181.475 64.6013 181.014C64.8393 180.551 65.1769 180.192 65.6142 179.935C66.054 179.677 66.5753 179.547 67.1782 179.547C67.781 179.547 68.301 179.677 68.7383 179.935C69.1781 180.192 69.5171 180.551 69.7551 181.014C69.9931 181.475 70.1121 182.013 70.1121 182.629C70.1121 183.239 69.9931 183.776 69.7551 184.239C69.5171 184.7 69.1781 185.059 68.7383 185.318C68.301 185.574 67.781 185.702 67.1782 185.702ZM67.1859 184.422C67.4602 184.422 67.6892 184.344 67.8729 184.189C68.0566 184.031 68.195 183.816 68.2881 183.545C68.3838 183.273 68.4317 182.964 68.4317 182.617C68.4317 182.27 68.3838 181.961 68.2881 181.69C68.195 181.418 68.0566 181.203 67.8729 181.045C67.6892 180.887 67.4602 180.809 67.1859 180.809C66.9091 180.809 66.6762 180.887 66.4874 181.045C66.3011 181.203 66.1601 181.418 66.0644 181.69C65.9712 181.961 65.9247 182.27 65.9247 182.617C65.9247 182.964 65.9712 183.273 66.0644 183.545C66.1601 183.816 66.3011 184.031 66.4874 184.189C66.6762 184.344 66.9091 184.422 67.1859 184.422ZM71.1871 185.586V179.625H72.7628V180.677H72.8326C72.9568 180.327 73.1638 180.052 73.4536 179.85C73.7433 179.648 74.09 179.547 74.4936 179.547C74.9024 179.547 75.2504 179.649 75.5376 179.854C75.8248 180.056 76.0162 180.33 76.112 180.677H76.1741C76.2957 180.335 76.5156 180.062 76.8338 179.858C77.1546 179.651 77.5337 179.547 77.9709 179.547C78.5272 179.547 78.9787 179.725 79.3253 180.079C79.6746 180.431 79.8493 180.93 79.8493 181.577V185.586H78.1999V181.903C78.1999 181.572 78.1119 181.323 77.936 181.158C77.7601 180.992 77.5401 180.909 77.2762 180.909C76.9761 180.909 76.742 181.005 76.5738 181.197C76.4056 181.386 76.3215 181.635 76.3215 181.946V185.586H74.7187V181.868C74.7187 181.576 74.6347 181.343 74.4665 181.169C74.3009 180.996 74.0823 180.909 73.8106 180.909C73.6269 180.909 73.4613 180.956 73.3139 181.049C73.169 181.14 73.0538 181.268 72.9685 181.433C72.8831 181.596 72.8404 181.788 72.8404 182.008V185.586H71.1871ZM81.1552 185.586V179.625H82.7308V180.677H82.8007C82.9249 180.327 83.1318 180.052 83.4216 179.85C83.7114 179.648 84.0581 179.547 84.4617 179.547C84.8705 179.547 85.2185 179.649 85.5057 179.854C85.7928 180.056 85.9843 180.33 86.08 180.677H86.1421C86.2637 180.335 86.4836 180.062 86.8019 179.858C87.1227 179.651 87.5017 179.547 87.939 179.547C88.4952 179.547 88.9467 179.725 89.2934 180.079C89.6427 180.431 89.8173 180.93 89.8173 181.577V185.586H88.1679V181.903C88.1679 181.572 88.08 181.323 87.904 181.158C87.7281 180.992 87.5082 180.909 87.2443 180.909C86.9442 180.909 86.71 181.005 86.5419 181.197C86.3737 181.386 86.2896 181.635 86.2896 181.946V185.586H84.6868V181.868C84.6868 181.576 84.6027 181.343 84.4345 181.169C84.2689 180.996 84.0503 180.909 83.7787 180.909C83.595 180.909 83.4294 180.956 83.2819 181.049C83.137 181.14 83.0219 181.268 82.9365 181.433C82.8511 181.596 82.8084 181.788 82.8084 182.008V185.586H81.1552ZM93.8399 185.702C93.2267 185.702 92.6989 185.578 92.2565 185.33C91.8166 185.079 91.4777 184.724 91.2397 184.266C91.0016 183.806 90.8826 183.261 90.8826 182.633C90.8826 182.019 91.0016 181.481 91.2397 181.018C91.4777 180.555 91.8127 180.194 92.2448 179.935C92.6795 179.677 93.1892 179.547 93.7739 179.547C94.1671 179.547 94.5332 179.611 94.8722 179.737C95.2137 179.862 95.5112 180.049 95.7648 180.3C96.0209 180.551 96.2201 180.867 96.3624 181.247C96.5047 181.625 96.5759 182.067 96.5759 182.574V183.028H91.5424V182.004H95.0196C95.0196 181.766 94.9679 181.555 94.8644 181.371C94.7609 181.188 94.6173 181.044 94.4336 180.941C94.2525 180.834 94.0417 180.781 93.801 180.781C93.5501 180.781 93.3276 180.84 93.1335 180.956C92.9421 181.07 92.792 181.224 92.6834 181.418C92.5747 181.609 92.5191 181.823 92.5165 182.058V183.032C92.5165 183.327 92.5708 183.582 92.6795 183.797C92.7907 184.012 92.9473 184.177 93.1491 184.294C93.3509 184.41 93.5902 184.468 93.867 184.468C94.0507 184.468 94.2189 184.442 94.3715 184.391C94.5242 184.339 94.6548 184.261 94.7635 184.158C94.8722 184.054 94.955 183.928 95.0119 183.777L96.541 183.878C96.4633 184.246 96.3042 184.567 96.0636 184.841C95.8256 185.112 95.5177 185.325 95.14 185.477C94.7648 185.627 94.3314 185.702 93.8399 185.702ZM99.308 182.14V185.586H97.6548V179.625H99.2304V180.677H99.3003C99.4322 180.33 99.6534 180.056 99.9639 179.854C100.274 179.649 100.651 179.547 101.093 179.547C101.507 179.547 101.868 179.638 102.176 179.819C102.484 180 102.723 180.259 102.894 180.595C103.065 180.929 103.15 181.327 103.15 181.79V185.586H101.497V182.085C101.499 181.721 101.406 181.436 101.217 181.232C101.029 181.025 100.769 180.921 100.437 180.921C100.215 180.921 100.018 180.969 99.8475 181.065C99.6793 181.16 99.5473 181.3 99.4516 181.484C99.3585 181.665 99.3106 181.884 99.308 182.14ZM106.65 185.683C106.197 185.683 105.787 185.567 105.419 185.334C105.055 185.098 104.765 184.753 104.55 184.297C104.338 183.84 104.232 183.278 104.232 182.613C104.232 181.93 104.342 181.362 104.562 180.909C104.782 180.454 105.074 180.114 105.439 179.889C105.806 179.661 106.209 179.547 106.646 179.547C106.98 179.547 107.258 179.604 107.48 179.718C107.705 179.829 107.886 179.969 108.024 180.137C108.163 180.303 108.269 180.466 108.342 180.626H108.392V177.638H110.042V185.586H108.412V184.631H108.342C108.264 184.797 108.154 184.961 108.012 185.124C107.872 185.285 107.69 185.418 107.465 185.524C107.242 185.63 106.971 185.683 106.65 185.683ZM107.174 184.367C107.44 184.367 107.665 184.295 107.849 184.15C108.035 184.003 108.177 183.797 108.276 183.533C108.377 183.269 108.427 182.96 108.427 182.605C108.427 182.251 108.378 181.943 108.28 181.682C108.181 181.42 108.039 181.219 107.853 181.076C107.666 180.934 107.44 180.863 107.174 180.863C106.902 180.863 106.673 180.937 106.487 181.084C106.3 181.232 106.159 181.436 106.064 181.697C105.968 181.959 105.92 182.261 105.92 182.605C105.92 182.952 105.968 183.259 106.064 183.525C106.162 183.789 106.303 183.996 106.487 184.146C106.673 184.294 106.902 184.367 107.174 184.367ZM114.117 185.702C113.504 185.702 112.976 185.578 112.534 185.33C112.094 185.079 111.755 184.724 111.517 184.266C111.279 183.806 111.16 183.261 111.16 182.633C111.16 182.019 111.279 181.481 111.517 181.018C111.755 180.555 112.09 180.194 112.522 179.935C112.957 179.677 113.467 179.547 114.051 179.547C114.445 179.547 114.811 179.611 115.15 179.737C115.491 179.862 115.789 180.049 116.042 180.3C116.299 180.551 116.498 180.867 116.64 181.247C116.782 181.625 116.853 182.067 116.853 182.574V183.028H111.82V182.004H115.297C115.297 181.766 115.246 181.555 115.142 181.371C115.039 181.188 114.895 181.044 114.711 180.941C114.53 180.834 114.319 180.781 114.079 180.781C113.828 180.781 113.605 180.84 113.411 180.956C113.22 181.07 113.07 181.224 112.961 181.418C112.852 181.609 112.797 181.823 112.794 182.058V183.032C112.794 183.327 112.848 183.582 112.957 183.797C113.068 184.012 113.225 184.177 113.427 184.294C113.628 184.41 113.868 184.468 114.145 184.468C114.328 184.468 114.497 184.442 114.649 184.391C114.802 184.339 114.932 184.261 115.041 184.158C115.15 184.054 115.233 183.928 115.29 183.777L116.819 183.878C116.741 184.246 116.582 184.567 116.341 184.841C116.103 185.112 115.795 185.325 115.418 185.477C115.042 185.627 114.609 185.702 114.117 185.702ZM120.129 185.683C119.676 185.683 119.266 185.567 118.899 185.334C118.534 185.098 118.244 184.753 118.029 184.297C117.817 183.84 117.711 183.278 117.711 182.613C117.711 181.93 117.821 181.362 118.041 180.909C118.261 180.454 118.553 180.114 118.918 179.889C119.286 179.661 119.688 179.547 120.125 179.547C120.459 179.547 120.737 179.604 120.959 179.718C121.185 179.829 121.366 179.969 121.503 180.137C121.643 180.303 121.749 180.466 121.821 180.626H121.871V177.638H123.521V185.586H121.891V184.631H121.821C121.743 184.797 121.633 184.961 121.491 185.124C121.351 185.285 121.169 185.418 120.944 185.524C120.721 185.63 120.45 185.683 120.129 185.683ZM120.653 184.367C120.919 184.367 121.144 184.295 121.328 184.15C121.514 184.003 121.657 183.797 121.755 183.533C121.856 183.269 121.906 182.96 121.906 182.605C121.906 182.251 121.857 181.943 121.759 181.682C121.661 181.42 121.518 181.219 121.332 181.076C121.146 180.934 120.919 180.863 120.653 180.863C120.381 180.863 120.152 180.937 119.966 181.084C119.78 181.232 119.639 181.436 119.543 181.697C119.447 181.959 119.399 182.261 119.399 182.605C119.399 182.952 119.447 183.259 119.543 183.525C119.641 183.789 119.782 183.996 119.966 184.146C120.152 184.294 120.381 184.367 120.653 184.367ZM127.441 185.586V177.638H129.094V180.626H129.144C129.217 180.466 129.321 180.303 129.459 180.137C129.598 179.969 129.779 179.829 130.002 179.718C130.227 179.604 130.506 179.547 130.84 179.547C131.275 179.547 131.676 179.661 132.043 179.889C132.411 180.114 132.704 180.454 132.924 180.909C133.144 181.362 133.254 181.93 133.254 182.613C133.254 183.278 133.147 183.84 132.932 184.297C132.72 184.753 132.43 185.098 132.063 185.334C131.698 185.567 131.289 185.683 130.836 185.683C130.516 185.683 130.243 185.63 130.017 185.524C129.795 185.418 129.613 185.285 129.47 185.124C129.328 184.961 129.219 184.797 129.144 184.631H129.071V185.586H127.441ZM129.059 182.605C129.059 182.96 129.108 183.269 129.206 183.533C129.305 183.797 129.447 184.003 129.633 184.15C129.82 184.295 130.046 184.367 130.312 184.367C130.581 184.367 130.809 184.294 130.995 184.146C131.182 183.996 131.323 183.789 131.418 183.525C131.517 183.259 131.566 182.952 131.566 182.605C131.566 182.261 131.518 181.959 131.422 181.697C131.327 181.436 131.186 181.232 130.999 181.084C130.813 180.937 130.584 180.863 130.312 180.863C130.043 180.863 129.816 180.934 129.629 181.076C129.446 181.219 129.305 181.42 129.206 181.682C129.108 181.943 129.059 182.251 129.059 182.605ZM135.186 187.821C134.976 187.821 134.78 187.805 134.596 187.771C134.415 187.74 134.265 187.7 134.146 187.651L134.518 186.416C134.712 186.476 134.887 186.508 135.042 186.513C135.2 186.519 135.336 186.482 135.45 186.405C135.566 186.327 135.661 186.195 135.733 186.009L135.83 185.757L133.692 179.625H135.43L136.664 184.003H136.727L137.972 179.625H139.723L137.406 186.23C137.294 186.551 137.143 186.83 136.952 187.068C136.763 187.309 136.523 187.494 136.234 187.623C135.944 187.755 135.595 187.821 135.186 187.821ZM145.791 185.702C145.188 185.702 144.667 185.574 144.227 185.318C143.79 185.059 143.452 184.7 143.214 184.239C142.976 183.776 142.857 183.239 142.857 182.629C142.857 182.013 142.976 181.475 143.214 181.014C143.452 180.551 143.79 180.192 144.227 179.935C144.667 179.677 145.188 179.547 145.791 179.547C146.394 179.547 146.914 179.677 147.351 179.935C147.791 180.192 148.13 180.551 148.368 181.014C148.606 181.475 148.725 182.013 148.725 182.629C148.725 183.239 148.606 183.776 148.368 184.239C148.13 184.7 147.791 185.059 147.351 185.318C146.914 185.574 146.394 185.702 145.791 185.702ZM145.799 184.422C146.073 184.422 146.302 184.344 146.486 184.189C146.67 184.031 146.808 183.816 146.901 183.545C146.997 183.273 147.045 182.964 147.045 182.617C147.045 182.27 146.997 181.961 146.901 181.69C146.808 181.418 146.67 181.203 146.486 181.045C146.302 180.887 146.073 180.809 145.799 180.809C145.522 180.809 145.289 180.887 145.101 181.045C144.914 181.203 144.773 181.418 144.678 181.69C144.584 181.961 144.538 182.27 144.538 182.617C144.538 182.964 144.584 183.273 144.678 183.545C144.773 183.816 144.914 184.031 145.101 184.189C145.289 184.344 145.522 184.422 145.799 184.422ZM153.623 183.048V179.625H155.276V185.586H153.689V184.503H153.627C153.492 184.852 153.268 185.133 152.955 185.345C152.645 185.557 152.266 185.664 151.818 185.664C151.42 185.664 151.069 185.573 150.767 185.392C150.464 185.211 150.227 184.953 150.056 184.62C149.888 184.286 149.803 183.886 149.8 183.42V179.625H151.454V183.125C151.456 183.477 151.551 183.755 151.737 183.96C151.923 184.164 152.173 184.266 152.486 184.266C152.685 184.266 152.871 184.221 153.045 184.131C153.218 184.037 153.358 183.9 153.464 183.719C153.572 183.538 153.626 183.314 153.623 183.048ZM156.599 185.586V179.625H158.201V180.665H158.264C158.372 180.295 158.555 180.016 158.811 179.827C159.067 179.635 159.362 179.54 159.696 179.54C159.778 179.54 159.868 179.545 159.963 179.555C160.059 179.565 160.143 179.58 160.216 179.598V181.065C160.138 181.041 160.031 181.021 159.893 181.003C159.756 180.985 159.631 180.975 159.517 180.975C159.274 180.975 159.057 181.028 158.865 181.135C158.676 181.238 158.526 181.383 158.415 181.569C158.306 181.756 158.252 181.97 158.252 182.213V185.586H156.599ZM166.316 185.702C165.703 185.702 165.175 185.578 164.733 185.33C164.293 185.079 163.954 184.724 163.716 184.266C163.478 183.806 163.359 183.261 163.359 182.633C163.359 182.019 163.478 181.481 163.716 181.018C163.954 180.555 164.289 180.194 164.721 179.935C165.156 179.677 165.666 179.547 166.25 179.547C166.644 179.547 167.01 179.611 167.349 179.737C167.69 179.862 167.988 180.049 168.241 180.3C168.497 180.551 168.697 180.867 168.839 181.247C168.981 181.625 169.052 182.067 169.052 182.574V183.028H164.019V182.004H167.496C167.496 181.766 167.444 181.555 167.341 181.371C167.237 181.188 167.094 181.044 166.91 180.941C166.729 180.834 166.518 180.781 166.278 180.781C166.027 180.781 165.804 180.84 165.61 180.956C165.419 181.07 165.269 181.224 165.16 181.418C165.051 181.609 164.996 181.823 164.993 182.058V183.032C164.993 183.327 165.047 183.582 165.156 183.797C165.267 184.012 165.424 184.177 165.626 184.294C165.827 184.41 166.067 184.468 166.344 184.468C166.527 184.468 166.695 184.442 166.848 184.391C167.001 184.339 167.131 184.261 167.24 184.158C167.349 184.054 167.431 183.928 167.488 183.777L169.017 183.878C168.94 184.246 168.781 184.567 168.54 184.841C168.302 185.112 167.994 185.325 167.616 185.477C167.241 185.627 166.808 185.702 166.316 185.702ZM172.328 185.683C171.875 185.683 171.465 185.567 171.098 185.334C170.733 185.098 170.443 184.753 170.228 184.297C170.016 183.84 169.91 183.278 169.91 182.613C169.91 181.93 170.02 181.362 170.24 180.909C170.46 180.454 170.752 180.114 171.117 179.889C171.484 179.661 171.887 179.547 172.324 179.547C172.658 179.547 172.936 179.604 173.158 179.718C173.383 179.829 173.565 179.969 173.702 180.137C173.841 180.303 173.947 180.466 174.02 180.626H174.07V177.638H175.72V185.586H174.09V184.631H174.02C173.942 184.797 173.832 184.961 173.69 185.124C173.55 185.285 173.368 185.418 173.143 185.524C172.92 185.63 172.649 185.683 172.328 185.683ZM172.852 184.367C173.118 184.367 173.343 184.295 173.527 184.15C173.713 184.003 173.856 183.797 173.954 183.533C174.055 183.269 174.105 182.96 174.105 182.605C174.105 182.251 174.056 181.943 173.958 181.682C173.859 181.42 173.717 181.219 173.531 181.076C173.345 180.934 173.118 180.863 172.852 180.863C172.58 180.863 172.351 180.937 172.165 181.084C171.979 181.232 171.838 181.436 171.742 181.697C171.646 181.959 171.598 182.261 171.598 182.605C171.598 182.952 171.646 183.259 171.742 183.525C171.84 183.789 171.981 183.996 172.165 184.146C172.351 184.294 172.58 184.367 172.852 184.367ZM177.079 185.586V179.625H178.732V185.586H177.079ZM177.91 178.856C177.664 178.856 177.453 178.775 177.277 178.612C177.104 178.446 177.017 178.248 177.017 178.018C177.017 177.791 177.104 177.595 177.277 177.432C177.453 177.267 177.664 177.184 177.91 177.184C178.155 177.184 178.365 177.267 178.538 177.432C178.714 177.595 178.802 177.791 178.802 178.018C178.802 178.248 178.714 178.446 178.538 178.612C178.365 178.775 178.155 178.856 177.91 178.856ZM183.227 179.625V180.867H179.637V179.625H183.227ZM180.452 178.197H182.106V183.754C182.106 183.907 182.129 184.026 182.176 184.111C182.222 184.194 182.287 184.252 182.37 184.286C182.455 184.319 182.553 184.336 182.665 184.336C182.742 184.336 182.82 184.33 182.897 184.317C182.975 184.301 183.035 184.29 183.076 184.282L183.336 185.512C183.253 185.538 183.137 185.568 182.987 185.601C182.837 185.638 182.654 185.66 182.439 185.667C182.041 185.683 181.692 185.63 181.392 185.508C181.094 185.387 180.863 185.198 180.697 184.942C180.531 184.686 180.45 184.362 180.452 183.971V178.197ZM186.934 185.702C186.331 185.702 185.809 185.574 185.37 185.318C184.932 185.059 184.595 184.7 184.357 184.239C184.119 183.776 184 183.239 184 182.629C184 182.013 184.119 181.475 184.357 181.014C184.595 180.551 184.932 180.192 185.37 179.935C185.809 179.677 186.331 179.547 186.934 179.547C187.536 179.547 188.056 179.677 188.494 179.935C188.933 180.192 189.272 180.551 189.51 181.014C189.748 181.475 189.867 182.013 189.867 182.629C189.867 183.239 189.748 183.776 189.51 184.239C189.272 184.7 188.933 185.059 188.494 185.318C188.056 185.574 187.536 185.702 186.934 185.702ZM186.941 184.422C187.216 184.422 187.445 184.344 187.628 184.189C187.812 184.031 187.95 183.816 188.043 183.545C188.139 183.273 188.187 182.964 188.187 182.617C188.187 182.27 188.139 181.961 188.043 181.69C187.95 181.418 187.812 181.203 187.628 181.045C187.445 180.887 187.216 180.809 186.941 180.809C186.664 180.809 186.432 180.887 186.243 181.045C186.056 181.203 185.915 181.418 185.82 181.69C185.727 181.961 185.68 182.27 185.68 182.617C185.68 182.964 185.727 183.273 185.82 183.545C185.915 183.816 186.056 184.031 186.243 184.189C186.432 184.344 186.664 184.422 186.941 184.422ZM190.942 185.586V179.625H192.545V180.665H192.607C192.716 180.295 192.898 180.016 193.155 179.827C193.411 179.635 193.706 179.54 194.039 179.54C194.122 179.54 194.211 179.545 194.307 179.555C194.403 179.565 194.487 179.58 194.559 179.598V181.065C194.482 181.041 194.374 181.021 194.237 181.003C194.1 180.985 193.975 180.975 193.861 180.975C193.618 180.975 193.4 181.028 193.209 181.135C193.02 181.238 192.87 181.383 192.759 181.569C192.65 181.756 192.596 181.97 192.596 182.213V185.586H190.942ZM200.374 181.325L198.86 181.418C198.835 181.289 198.779 181.172 198.694 181.069C198.608 180.963 198.496 180.878 198.356 180.816C198.219 180.752 198.055 180.719 197.863 180.719C197.607 180.719 197.391 180.774 197.215 180.882C197.039 180.988 196.951 181.131 196.951 181.309C196.951 181.452 197.008 181.572 197.122 181.67C197.236 181.768 197.431 181.847 197.708 181.907L198.787 182.124C199.366 182.243 199.798 182.435 200.083 182.699C200.368 182.962 200.51 183.309 200.51 183.739C200.51 184.129 200.395 184.472 200.164 184.767C199.937 185.062 199.624 185.292 199.225 185.458C198.829 185.621 198.373 185.702 197.855 185.702C197.066 185.702 196.437 185.538 195.969 185.209C195.503 184.878 195.231 184.428 195.15 183.859L196.776 183.774C196.826 184.014 196.945 184.198 197.133 184.325C197.322 184.449 197.564 184.511 197.859 184.511C198.149 184.511 198.382 184.455 198.558 184.344C198.736 184.23 198.827 184.084 198.829 183.906C198.827 183.755 198.763 183.633 198.639 183.537C198.515 183.439 198.324 183.363 198.065 183.312L197.033 183.106C196.45 182.99 196.017 182.788 195.732 182.501C195.45 182.213 195.309 181.847 195.309 181.402C195.309 181.019 195.413 180.69 195.62 180.413C195.829 180.136 196.123 179.922 196.501 179.772C196.881 179.622 197.326 179.547 197.836 179.547C198.589 179.547 199.181 179.706 199.613 180.025C200.048 180.343 200.302 180.776 200.374 181.325Z" fill="#E8501A"/>
</svg>
