<svg width="234" height="204" viewBox="0 0 234 204" fill="none" xmlns="http://www.w3.org/2000/svg">
<path d="M212.742 5.82812H20.3996C12.352 5.82812 5.82812 12.352 5.82812 20.3996V183.6C5.82812 191.647 12.352 198.171 20.3996 198.171H212.742C220.79 198.171 227.314 191.647 227.314 183.6V20.3996C227.314 12.352 220.79 5.82812 212.742 5.82812Z" fill="white" stroke="#DADAD5" stroke-width="2.18571"/>
<path d="M212.742 5.82812H20.3996C12.352 5.82812 5.82812 12.352 5.82812 20.3996C5.82812 28.4471 12.352 34.971 20.3996 34.971H212.742C220.79 34.971 227.314 28.4471 227.314 20.3996C227.314 12.352 220.79 5.82812 212.742 5.82812Z" fill="#F2EFE8" stroke="#DADAD5" stroke-width="2.18571"/>
<path d="M203.561 16H55.5831C53.6441 16 52.0723 17.567 52.0723 19.5C52.0723 21.433 53.6441 23 55.5831 23H203.561C205.5 23 207.072 21.433 207.072 19.5C207.072 17.567 205.5 16 203.561 16Z" fill="#DADAD5"/>
<path d="M20.3987 21.8286C22.0082 21.8286 23.3129 20.5238 23.3129 18.9143C23.3129 17.3048 22.0082 16 20.3987 16C18.7891 16 17.4844 17.3048 17.4844 18.9143C17.4844 20.5238 18.7891 21.8286 20.3987 21.8286Z" fill="#F09090"/>
<path d="M29.1408 21.8286C30.7504 21.8286 32.0551 20.5238 32.0551 18.9143C32.0551 17.3048 30.7504 16 29.1408 16C27.5313 16 26.2266 17.3048 26.2266 18.9143C26.2266 20.5238 27.5313 21.8286 29.1408 21.8286Z" fill="#F5C060"/>
<path d="M37.883 21.8286C39.4926 21.8286 40.7973 20.5238 40.7973 18.9143C40.7973 17.3048 39.4926 16 37.883 16C36.2735 16 34.9688 17.3048 34.9688 18.9143C34.9688 20.5238 36.2735 21.8286 37.883 21.8286Z" fill="#70C070"/>
<path opacity="0.3" d="M122.398 43.7148H23.3127C21.7032 43.7148 20.3984 45.0196 20.3984 46.6291V49.5434C20.3984 51.1529 21.7032 52.4577 23.3127 52.4577H122.398C124.008 52.4577 125.313 51.1529 125.313 49.5434V46.6291C125.313 45.0196 124.008 43.7148 122.398 43.7148Z" fill="#1A1A1A"/>
<path d="M210.556 58.2852H22.5842C21.377 58.2852 20.3984 59.2637 20.3984 60.4709C20.3984 61.678 21.377 62.6566 22.5842 62.6566H210.556C211.763 62.6566 212.741 61.678 212.741 60.4709C212.741 59.2637 211.763 58.2852 210.556 58.2852Z" fill="#ECEAE5"/>
<path d="M193.07 67.0283H22.5842C21.377 67.0283 20.3984 68.0069 20.3984 69.214C20.3984 70.4212 21.377 71.3997 22.5842 71.3997H193.07C194.277 71.3997 195.256 70.4212 195.256 69.214C195.256 68.0069 194.277 67.0283 193.07 67.0283Z" fill="#ECEAE5"/>
<path d="M204.727 75.7705H22.5842C21.377 75.7705 20.3984 76.7491 20.3984 77.9562C20.3984 79.1634 21.377 80.1419 22.5842 80.1419H204.727C205.934 80.1419 206.913 79.1634 206.913 77.9562C206.913 76.7491 205.934 75.7705 204.727 75.7705Z" fill="#ECEAE5"/>
<path d="M158.098 84.5146H22.5842C21.377 84.5146 20.3984 85.4932 20.3984 86.7004C20.3984 87.9075 21.377 88.8861 22.5842 88.8861H158.098C159.306 88.8861 160.284 87.9075 160.284 86.7004C160.284 85.4932 159.306 84.5146 158.098 84.5146Z" fill="#ECEAE5"/>
<path d="M201.084 99.0859H32.0556C25.6175 99.0859 20.3984 104.305 20.3984 110.743V174.857C20.3984 181.295 25.6175 186.515 32.0556 186.515H201.084C207.522 186.515 212.741 181.295 212.741 174.857V110.743C212.741 104.305 207.522 99.0859 201.084 99.0859Z" fill="#FFF8F5" stroke="#E8501A"/>
<path d="M87.4261 110.742H40.7975C35.969 110.742 32.0547 114.656 32.0547 119.485V166.114C32.0547 170.942 35.969 174.856 40.7975 174.856H87.4261C92.2547 174.856 96.169 170.942 96.169 166.114V119.485C96.169 114.656 92.2547 110.742 87.4261 110.742Z" fill="#FADDCE"/>
<path opacity="0.25" d="M80.1415 122.399H48.0843C45.67 122.399 43.7129 124.357 43.7129 126.771V147.171C43.7129 149.585 45.67 151.542 48.0843 151.542H80.1415C82.5557 151.542 84.5129 149.585 84.5129 147.171V126.771C84.5129 124.357 82.5557 122.399 80.1415 122.399Z" fill="#E8501A"/>
<path opacity="0.35" d="M75.7696 128.229H52.4553C50.8458 128.229 49.541 129.534 49.541 131.144V142.801C49.541 144.41 50.8458 145.715 52.4553 145.715H75.7696C77.3791 145.715 78.6839 144.41 78.6839 142.801V131.144C78.6839 129.534 77.3791 128.229 75.7696 128.229Z" fill="#E8501A"/>
<path opacity="0.3" d="M192.342 110.742H110.742C109.133 110.742 107.828 112.047 107.828 113.656V115.114C107.828 116.723 109.133 118.028 110.742 118.028H192.342C193.952 118.028 195.257 116.723 195.257 115.114V113.656C195.257 112.047 193.952 110.742 192.342 110.742Z" fill="#1A1A1A"/>
<path d="M169.757 122.399H110.014C108.807 122.399 107.828 123.378 107.828 124.585V125.314C107.828 126.521 108.807 127.499 110.014 127.499H169.757C170.964 127.499 171.942 126.521 171.942 125.314V124.585C171.942 123.378 170.964 122.399 169.757 122.399Z" fill="#DADAD5"/>
<path d="M114.683 137.321L111.163 139.864L112.55 135.728L109.02 133.176H113.342L114.683 129.041L116.025 133.176H120.346L116.816 135.728L118.204 139.864L114.683 137.321ZM128.4 137.321L124.879 139.864L126.267 135.728L122.737 133.176H127.058L128.4 129.041L129.741 133.176H134.063L130.532 135.728L131.92 139.864L128.4 137.321ZM142.116 137.321L138.595 139.864L139.983 135.728L136.453 133.176H140.775L142.116 129.041L143.457 133.176H147.779L144.249 135.728L145.636 139.864L142.116 137.321ZM155.832 137.321L152.311 139.864L153.699 135.728L150.169 133.176H154.491L155.832 129.041L157.173 133.176H161.495L157.965 135.728L159.353 139.864L155.832 137.321Z" fill="#E8501A"/>
<path d="M167.138 137.321L163.618 139.864L165.005 135.728L161.475 133.176H165.797L167.138 129.041L168.48 133.176H172.801L169.271 135.728L170.659 139.864L167.138 137.321Z" fill="#DADAD5"/>
<path d="M114.104 148.883L113.802 150.034H108.25L108.548 148.883H114.104ZM111.218 155.258L108.387 151.888L108.391 150.853H109.79C110.102 150.853 110.363 150.795 110.573 150.679C110.782 150.563 110.94 150.406 111.045 150.207C111.149 150.009 111.203 149.782 111.206 149.529C111.203 149.148 111.092 148.837 110.871 148.597C110.653 148.354 110.293 148.233 109.79 148.233H108.25L108.59 146.78H109.79C110.494 146.78 111.08 146.886 111.55 147.099C112.022 147.308 112.375 147.608 112.609 147.997C112.847 148.386 112.967 148.85 112.97 149.388C112.967 149.865 112.887 150.282 112.729 150.638C112.575 150.994 112.331 151.291 111.997 151.528C111.666 151.765 111.234 151.942 110.701 152.058L110.635 152.083L113.168 155.183V155.258H111.218ZM114.112 146.78L113.802 147.947H109.231L109.542 146.78H114.112ZM115.209 155.258V153.966L118.227 151.172C118.483 150.924 118.699 150.7 118.873 150.501C119.049 150.303 119.183 150.108 119.274 149.918C119.365 149.725 119.411 149.516 119.411 149.293C119.411 149.044 119.354 148.83 119.241 148.651C119.128 148.469 118.973 148.329 118.777 148.233C118.581 148.134 118.359 148.084 118.111 148.084C117.852 148.084 117.625 148.136 117.432 148.241C117.239 148.346 117.09 148.496 116.985 148.692C116.88 148.888 116.828 149.122 116.828 149.392H115.126C115.126 148.837 115.252 148.356 115.503 147.947C115.754 147.539 116.106 147.223 116.559 146.999C117.011 146.776 117.533 146.664 118.123 146.664C118.73 146.664 119.259 146.772 119.709 146.987C120.161 147.199 120.513 147.495 120.764 147.873C121.016 148.251 121.141 148.684 121.141 149.173C121.141 149.493 121.078 149.809 120.951 150.121C120.827 150.432 120.604 150.779 120.284 151.16C119.964 151.538 119.513 151.992 118.931 152.522L117.693 153.734V153.792H121.253V155.258H115.209ZM124.485 154.099L124.439 154.554C124.403 154.918 124.334 155.281 124.232 155.643C124.133 156.007 124.028 156.337 123.918 156.632C123.81 156.927 123.723 157.159 123.657 157.328H122.514C122.556 157.165 122.612 156.937 122.684 156.645C122.756 156.355 122.824 156.029 122.887 155.668C122.95 155.306 122.99 154.938 123.007 154.562L123.028 154.099H124.485ZM125.952 153.768V152.356L129.492 146.78H130.709V148.734H129.988L127.757 152.265V152.331H132.787V153.768H125.952ZM130.022 155.258V153.337L130.055 152.712V146.78H131.735V155.258H130.022ZM137.049 146.664C137.485 146.664 137.904 146.737 138.307 146.883C138.713 147.03 139.074 147.263 139.392 147.583C139.712 147.903 139.964 148.328 140.149 148.858C140.337 149.385 140.432 150.032 140.435 150.799C140.435 151.52 140.353 152.163 140.191 152.729C140.03 153.291 139.8 153.77 139.499 154.165C139.198 154.56 138.836 154.86 138.411 155.067C137.986 155.272 137.511 155.374 136.987 155.374C136.421 155.374 135.921 155.265 135.488 155.047C135.055 154.826 134.706 154.526 134.441 154.148C134.178 153.768 134.02 153.34 133.965 152.865H135.732C135.801 153.174 135.946 153.414 136.167 153.585C136.388 153.754 136.661 153.838 136.987 153.838C137.538 153.838 137.958 153.598 138.245 153.118C138.532 152.635 138.677 151.974 138.68 151.135H138.622C138.495 151.383 138.324 151.597 138.108 151.776C137.893 151.953 137.646 152.09 137.367 152.186C137.091 152.283 136.797 152.331 136.486 152.331C135.986 152.331 135.54 152.214 135.149 151.979C134.757 151.745 134.448 151.422 134.221 151.011C133.995 150.599 133.882 150.13 133.882 149.603C133.879 149.035 134.01 148.528 134.275 148.084C134.54 147.64 134.91 147.292 135.384 147.041C135.862 146.787 136.417 146.661 137.049 146.664ZM137.061 148.071C136.782 148.071 136.534 148.138 136.316 148.27C136.101 148.403 135.93 148.581 135.803 148.804C135.678 149.028 135.618 149.277 135.62 149.553C135.62 149.832 135.681 150.083 135.803 150.307C135.927 150.528 136.095 150.704 136.308 150.837C136.523 150.966 136.768 151.031 137.044 151.031C137.251 151.031 137.443 150.993 137.62 150.915C137.796 150.838 137.95 150.732 138.079 150.597C138.212 150.459 138.315 150.3 138.39 150.121C138.464 149.941 138.502 149.751 138.502 149.549C138.499 149.282 138.435 149.036 138.311 148.812C138.187 148.589 138.016 148.41 137.798 148.274C137.58 148.139 137.334 148.071 137.061 148.071ZM144.744 146.664C145.18 146.664 145.6 146.737 146.003 146.883C146.408 147.03 146.77 147.263 147.087 147.583C147.407 147.903 147.66 148.328 147.845 148.858C148.032 149.385 148.128 150.032 148.13 150.799C148.13 151.52 148.049 152.163 147.886 152.729C147.726 153.291 147.496 153.77 147.195 154.165C146.894 154.56 146.531 154.86 146.106 155.067C145.681 155.272 145.206 155.374 144.682 155.374C144.116 155.374 143.617 155.265 143.184 155.047C142.75 154.826 142.401 154.526 142.136 154.148C141.874 153.768 141.715 153.34 141.66 152.865H143.428C143.497 153.174 143.642 153.414 143.862 153.585C144.083 153.754 144.356 153.838 144.682 153.838C145.234 153.838 145.653 153.598 145.94 153.118C146.227 152.635 146.372 151.974 146.375 151.135H146.317C146.19 151.383 146.019 151.597 145.804 151.776C145.589 151.953 145.342 152.09 145.063 152.186C144.787 152.283 144.493 152.331 144.181 152.331C143.682 152.331 143.236 152.214 142.844 151.979C142.452 151.745 142.143 151.422 141.917 151.011C141.69 150.599 141.577 150.13 141.577 149.603C141.575 149.035 141.706 148.528 141.971 148.084C142.236 147.64 142.605 147.292 143.08 147.041C143.557 146.787 144.112 146.661 144.744 146.664ZM144.757 148.071C144.478 148.071 144.229 148.138 144.011 148.27C143.796 148.403 143.625 148.581 143.498 148.804C143.374 149.028 143.313 149.277 143.316 149.553C143.316 149.832 143.377 150.083 143.498 150.307C143.622 150.528 143.791 150.704 144.003 150.837C144.218 150.966 144.464 151.031 144.74 151.031C144.947 151.031 145.139 150.993 145.315 150.915C145.492 150.838 145.645 150.732 145.775 150.597C145.907 150.459 146.011 150.3 146.085 150.121C146.16 149.941 146.197 149.751 146.197 149.549C146.194 149.282 146.131 149.036 146.007 148.812C145.883 148.589 145.711 148.41 145.493 148.274C145.275 148.139 145.03 148.071 144.757 148.071Z" fill="#1A1A1A"/>
<path d="M165.615 163.2H118.272C112.639 163.2 108.072 167.115 108.072 171.943C108.072 176.772 112.639 180.686 118.272 180.686H165.615C171.248 180.686 175.815 176.772 175.815 171.943C175.815 167.115 171.248 163.2 165.615 163.2Z" fill="#E8501A"/>
<path d="M117.864 176.114V168.696H120.835C121.38 168.696 121.836 168.777 122.2 168.939C122.565 169.101 122.839 169.325 123.022 169.612C123.206 169.897 123.298 170.226 123.298 170.598C123.298 170.887 123.24 171.142 123.124 171.362C123.008 171.579 122.849 171.758 122.646 171.898C122.445 172.036 122.216 172.134 121.958 172.191V172.264C122.24 172.276 122.504 172.356 122.751 172.503C122.999 172.65 123.201 172.857 123.356 173.122C123.51 173.386 123.587 173.699 123.587 174.064C123.587 174.458 123.49 174.809 123.294 175.118C123.101 175.425 122.815 175.668 122.436 175.846C122.057 176.025 121.589 176.114 121.034 176.114H117.864ZM119.433 174.832H120.711C121.149 174.832 121.467 174.749 121.668 174.582C121.868 174.413 121.968 174.188 121.968 173.908C121.968 173.703 121.919 173.522 121.82 173.365C121.721 173.208 121.58 173.085 121.396 172.996C121.215 172.906 120.999 172.862 120.748 172.862H119.433V174.832ZM119.433 171.8H120.596C120.81 171.8 121.001 171.763 121.168 171.688C121.337 171.611 121.47 171.502 121.566 171.362C121.665 171.222 121.715 171.054 121.715 170.859C121.715 170.59 121.619 170.374 121.429 170.21C121.24 170.046 120.972 169.964 120.625 169.964H119.433V171.8ZM129.19 168.696H130.758V173.514C130.758 174.054 130.629 174.528 130.371 174.933C130.115 175.339 129.756 175.655 129.295 175.882C128.834 176.107 128.297 176.219 127.683 176.219C127.067 176.219 126.529 176.107 126.068 175.882C125.607 175.655 125.248 175.339 124.992 174.933C124.736 174.528 124.608 174.054 124.608 173.514V168.696H126.176V173.38C126.176 173.662 126.238 173.913 126.361 174.133C126.487 174.353 126.663 174.525 126.89 174.651C127.117 174.776 127.381 174.839 127.683 174.839C127.987 174.839 128.252 174.776 128.476 174.651C128.703 174.525 128.879 174.353 129.002 174.133C129.127 173.913 129.19 173.662 129.19 173.38V168.696ZM131.614 168.696H133.371L135.062 171.891H135.135L136.826 168.696H138.583L135.877 173.492V176.114H134.32V173.492L131.614 168.696ZM148.005 168.696V176.114H146.651L143.423 171.445H143.369V176.114H141.801V168.696H143.177L146.379 173.361H146.444V168.696H148.005ZM156.118 172.405C156.118 173.214 155.965 173.902 155.658 174.47C155.354 175.037 154.938 175.471 154.412 175.77C153.888 176.067 153.299 176.216 152.644 176.216C151.985 176.216 151.394 176.066 150.87 175.767C150.346 175.467 149.931 175.034 149.627 174.466C149.323 173.899 149.171 173.212 149.171 172.405C149.171 171.596 149.323 170.908 149.627 170.341C149.931 169.773 150.346 169.341 150.87 169.044C151.394 168.744 151.985 168.595 152.644 168.595C153.299 168.595 153.888 168.744 154.412 169.044C154.938 169.341 155.354 169.773 155.658 170.341C155.965 170.908 156.118 171.596 156.118 172.405ZM154.528 172.405C154.528 171.881 154.449 171.439 154.293 171.079C154.138 170.72 153.919 170.447 153.637 170.261C153.354 170.075 153.024 169.982 152.644 169.982C152.265 169.982 151.934 170.075 151.652 170.261C151.369 170.447 151.15 170.72 150.993 171.079C150.838 171.439 150.761 171.881 150.761 172.405C150.761 172.929 150.838 173.371 150.993 173.731C151.15 174.091 151.369 174.364 151.652 174.549C151.934 174.735 152.265 174.828 152.644 174.828C153.024 174.828 153.354 174.735 153.637 174.549C153.919 174.364 154.138 174.091 154.293 173.731C154.449 173.371 154.528 172.929 154.528 172.405ZM158.671 176.114L156.548 168.696H158.262L159.489 173.85H159.551L160.906 168.696H162.373L163.724 173.861H163.789L165.017 168.696H166.73L164.608 176.114H163.079L161.666 171.264H161.608L160.199 176.114H158.671Z" fill="white"/>
</svg>
