<svg width="18" height="18" viewBox="0 0 18 18" fill="none" xmlns="http://www.w3.org/2000/svg">
<path d="M1.45898 8.95622H16.0471M1.45898 8.95622C1.45898 12.9846 4.72465 16.2503 8.7531 16.2503M1.45898 8.95622C1.45898 4.92778 4.72465 1.66211 8.7531 1.66211M16.0471 8.95622C16.0471 12.9846 12.7815 16.2503 8.7531 16.2503M16.0471 8.95622C16.0471 4.92778 12.7815 1.66211 8.7531 1.66211M8.7531 16.2503C10.5775 14.2529 11.6144 11.6608 11.6707 8.95622C11.6144 6.25158 10.5775 3.65949 8.7531 1.66211M8.7531 16.2503C6.92862 14.2529 5.89178 11.6608 5.83543 8.95622C5.89178 6.25158 6.92862 3.65949 8.7531 1.66211" stroke="#222222" stroke-width="0.87529" stroke-linecap="round" stroke-linejoin="round"/>
</svg>
