<svg width="300" height="214" viewBox="0 0 300 214" fill="none" xmlns="http://www.w3.org/2000/svg">
<path d="M150 168.185C180.376 168.185 205 143.56 205 113.185C205 82.8089 180.376 58.1846 150 58.1846C119.624 58.1846 95 82.8089 95 113.185C95 143.56 119.624 168.185 150 168.185Z" fill="#1F1F1C" stroke="#373734" stroke-width="2.5"/>
<path d="M150 143.435C150 143.435 119.5 124.506 119.5 105.577C119.5 96.1131 126.278 90.4346 133.056 90.4346C139.833 90.4346 150 99.8989 150 99.8989C150 99.8989 160.167 90.4346 166.944 90.4346C173.722 90.4346 180.5 96.1131 180.5 105.577C180.5 124.506 150 143.435 150 143.435Z" fill="#E8501A" stroke="#E8501A" stroke-width="3.75" stroke-linejoin="round"/>
<path opacity="0.3" d="M150 193.185C194.183 193.185 230 157.367 230 113.185C230 69.0018 194.183 33.1846 150 33.1846C105.817 33.1846 70 69.0018 70 113.185C70 157.367 105.817 193.185 150 193.185Z" stroke="#E8501A" stroke-width="2.5" stroke-dasharray="12.5 10"/>
<path d="M150 45.6846C156.904 45.6846 162.5 40.0881 162.5 33.1846C162.5 26.281 156.904 20.6846 150 20.6846C143.096 20.6846 137.5 26.281 137.5 33.1846C137.5 40.0881 143.096 45.6846 150 45.6846Z" fill="#431A0A" stroke="#E8501A" stroke-width="2"/>
<path d="M147.881 32.3033C147.294 31.7158 147 31.0096 147 30.1846C147 29.3596 147.294 28.6533 147.881 28.0658C148.469 27.4783 149.175 27.1846 150 27.1846C150.825 27.1846 151.531 27.4783 152.119 28.0658C152.706 28.6533 153 29.3596 153 30.1846C153 31.0096 152.706 31.7158 152.119 32.3033C151.531 32.8908 150.825 33.1846 150 33.1846C149.175 33.1846 148.469 32.8908 147.881 32.3033ZM144 39.1846V37.0846C144 36.6596 144.109 36.2691 144.328 35.9131C144.547 35.5571 144.838 35.2851 145.2 35.0971C145.975 34.7096 146.762 34.4191 147.562 34.2256C148.363 34.0321 149.175 33.9351 150 33.9346C150.825 33.9341 151.637 34.0311 152.438 34.2256C153.238 34.4201 154.025 34.7106 154.8 35.0971C155.162 35.2846 155.453 35.5566 155.672 35.9131C155.891 36.2696 156 36.6601 156 37.0846V39.1846H144Z" fill="#E8501A"/>
<path d="M140.415 9.84057C139.713 9.84057 139.089 9.69324 138.543 9.39857C138.005 9.1039 137.585 8.7009 137.282 8.18957C136.987 7.66957 136.84 7.08024 136.84 6.42157V-0.000430524H138.127V6.39557C138.127 6.83757 138.222 7.2319 138.413 7.57857C138.612 7.91657 138.881 8.1809 139.219 8.37157C139.565 8.56224 139.964 8.65757 140.415 8.65757C140.865 8.65757 141.26 8.56224 141.598 8.37157C141.944 8.1809 142.213 7.91657 142.404 7.57857C142.603 7.2319 142.703 6.83757 142.703 6.39557V-0.000430524H143.99V6.42157C143.99 7.08024 143.838 7.66957 143.535 8.18957C143.24 8.7009 142.824 9.1039 142.287 9.39857C141.749 9.69324 141.125 9.84057 140.415 9.84057ZM148.449 9.84057C147.747 9.84057 147.136 9.66724 146.616 9.32057C146.096 8.9739 145.728 8.5059 145.511 7.91657L146.473 7.44857C146.673 7.86457 146.946 8.1939 147.292 8.43657C147.639 8.67924 148.025 8.80057 148.449 8.80057C148.831 8.80057 149.147 8.70957 149.398 8.52757C149.65 8.34557 149.775 8.10724 149.775 7.81257C149.775 7.60457 149.715 7.4399 149.593 7.31857C149.481 7.18857 149.342 7.0889 149.177 7.01957C149.013 6.94157 148.861 6.88524 148.722 6.85057L147.669 6.55157C147.037 6.36957 146.573 6.10957 146.278 5.77157C145.992 5.43357 145.849 5.03924 145.849 4.58857C145.849 4.17257 145.953 3.8129 146.161 3.50957C146.378 3.19757 146.668 2.9549 147.032 2.78157C147.405 2.60824 147.821 2.52157 148.28 2.52157C148.896 2.52157 149.446 2.67757 149.931 2.98957C150.425 3.30157 150.776 3.73924 150.984 4.30257L149.996 4.75757C149.84 4.39357 149.606 4.10757 149.294 3.89957C148.982 3.6829 148.631 3.57457 148.241 3.57457C147.886 3.57457 147.604 3.66557 147.396 3.84757C147.188 4.0209 147.084 4.2419 147.084 4.51057C147.084 4.7099 147.136 4.87457 147.24 5.00457C147.344 5.1259 147.47 5.22124 147.617 5.29057C147.765 5.35124 147.908 5.40324 148.046 5.44657L149.19 5.78457C149.762 5.94924 150.204 6.2049 150.516 6.55157C150.837 6.89824 150.997 7.31424 150.997 7.79957C150.997 8.18957 150.889 8.54057 150.672 8.85257C150.456 9.16457 150.157 9.40724 149.775 9.58057C149.394 9.7539 148.952 9.84057 148.449 9.84057ZM155.804 9.84057C155.128 9.84057 154.526 9.68024 153.997 9.35957C153.468 9.0389 153.052 8.60124 152.749 8.04657C152.446 7.48324 152.294 6.8549 152.294 6.16157C152.294 5.45957 152.441 4.83557 152.736 4.28957C153.039 3.74357 153.447 3.31457 153.958 3.00257C154.478 2.6819 155.059 2.52157 155.7 2.52157C156.22 2.52157 156.679 2.6169 157.078 2.80757C157.485 2.98957 157.828 3.2409 158.105 3.56157C158.391 3.87357 158.608 4.23324 158.755 4.64057C158.911 5.03924 158.989 5.45524 158.989 5.88857C158.989 5.9839 158.98 6.09224 158.963 6.21357C158.954 6.32624 158.941 6.43457 158.924 6.53857H153.178V5.49857H158.222L157.65 5.96657C157.728 5.5159 157.685 5.1129 157.52 4.75757C157.355 4.40224 157.113 4.12057 156.792 3.91257C156.471 3.70457 156.107 3.60057 155.7 3.60057C155.293 3.60057 154.92 3.70457 154.582 3.91257C154.244 4.12057 153.98 4.41957 153.789 4.80957C153.607 5.1909 153.533 5.6459 153.568 6.17457C153.533 6.6859 153.611 7.13657 153.802 7.52657C154.001 7.9079 154.279 8.2069 154.634 8.42357C154.998 8.63157 155.392 8.73557 155.817 8.73557C156.285 8.73557 156.679 8.62724 157 8.41057C157.321 8.1939 157.581 7.91657 157.78 7.57857L158.794 8.09857C158.655 8.41924 158.439 8.7139 158.144 8.98257C157.858 9.24257 157.516 9.45057 157.117 9.60657C156.727 9.76257 156.289 9.84057 155.804 9.84057ZM160.565 9.68457V2.67757H161.748V3.96457L161.618 3.78257C161.783 3.3839 162.034 3.08924 162.372 2.89857C162.71 2.69924 163.122 2.59957 163.607 2.59957H164.036V3.74357H163.425C162.931 3.74357 162.533 3.89957 162.229 4.21157C161.926 4.5149 161.774 4.94824 161.774 5.51157V9.68457H160.565Z" fill="#5C5C5A"/>
<path d="M30.8588 156.435V146.75H34.0308C35.0101 146.75 35.8638 146.949 36.5918 147.348C37.3198 147.746 37.8831 148.31 38.2818 149.038C38.6805 149.757 38.8798 150.606 38.8798 151.586C38.8798 152.556 38.6805 153.406 38.2818 154.134C37.8831 154.862 37.3198 155.429 36.5918 155.837C35.8638 156.235 35.0101 156.435 34.0308 156.435H30.8588ZM32.1328 155.265H34.0438C34.7631 155.265 35.3828 155.113 35.9028 154.81C36.4315 154.506 36.8388 154.082 37.1248 153.536C37.4108 152.981 37.5538 152.331 37.5538 151.586C37.5538 150.832 37.4065 150.182 37.1118 149.636C36.8258 149.09 36.4185 148.669 35.8898 148.375C35.3698 148.071 34.7545 147.92 34.0438 147.92H32.1328V155.265ZM42.3167 156.591C41.8573 156.591 41.45 156.508 41.0947 156.344C40.748 156.17 40.475 155.936 40.2757 155.642C40.0763 155.338 39.9767 154.992 39.9767 154.602C39.9767 154.229 40.0547 153.895 40.2107 153.601C40.3753 153.297 40.6267 153.042 40.9647 152.834C41.3113 152.626 41.7447 152.478 42.2647 152.392L44.8647 151.963V152.977L42.5377 153.367C42.087 153.445 41.7577 153.588 41.5497 153.796C41.3503 154.004 41.2507 154.259 41.2507 154.563C41.2507 154.849 41.3633 155.087 41.5887 155.278C41.8227 155.468 42.113 155.564 42.4597 155.564C42.9017 155.564 43.283 155.473 43.6037 155.291C43.933 155.1 44.1887 154.844 44.3707 154.524C44.5613 154.203 44.6567 153.848 44.6567 153.458V151.677C44.6567 151.295 44.5137 150.988 44.2277 150.754C43.9503 150.511 43.582 150.39 43.1227 150.39C42.724 150.39 42.3687 150.494 42.0567 150.702C41.7533 150.901 41.528 151.17 41.3807 151.508L40.3277 150.962C40.4577 150.641 40.6657 150.355 40.9517 150.104C41.2377 149.844 41.5713 149.64 41.9527 149.493C42.334 149.345 42.7327 149.272 43.1487 149.272C43.686 149.272 44.1583 149.376 44.5657 149.584C44.973 149.783 45.2893 150.065 45.5147 150.429C45.7487 150.784 45.8657 151.2 45.8657 151.677V156.435H44.6827V155.109L44.9037 155.187C44.7563 155.464 44.557 155.707 44.3057 155.915C44.0543 156.123 43.7597 156.287 43.4217 156.409C43.0837 156.53 42.7153 156.591 42.3167 156.591ZM50.4602 156.513C49.7756 156.513 49.2469 156.318 48.8742 155.928C48.5102 155.538 48.3282 154.987 48.3282 154.277V150.585H47.0542V149.428H47.3142C47.6262 149.428 47.8732 149.332 48.0552 149.142C48.2372 148.951 48.3282 148.7 48.3282 148.388V147.816H49.5372V149.428H51.1102V150.585H49.5372V154.238C49.5372 154.472 49.5719 154.675 49.6412 154.849C49.7192 155.022 49.8449 155.161 50.0182 155.265C50.1916 155.36 50.4212 155.408 50.7072 155.408C50.7679 155.408 50.8416 155.403 50.9282 155.395C51.0236 155.386 51.1102 155.377 51.1882 155.369V156.435C51.0756 156.461 50.9499 156.478 50.8112 156.487C50.6726 156.504 50.5556 156.513 50.4602 156.513ZM54.7327 156.591C54.2733 156.591 53.866 156.508 53.5107 156.344C53.164 156.17 52.891 155.936 52.6917 155.642C52.4923 155.338 52.3927 154.992 52.3927 154.602C52.3927 154.229 52.4707 153.895 52.6267 153.601C52.7913 153.297 53.0427 153.042 53.3807 152.834C53.7273 152.626 54.1607 152.478 54.6807 152.392L57.2807 151.963V152.977L54.9537 153.367C54.503 153.445 54.1737 153.588 53.9657 153.796C53.7663 154.004 53.6667 154.259 53.6667 154.563C53.6667 154.849 53.7793 155.087 54.0047 155.278C54.2387 155.468 54.529 155.564 54.8757 155.564C55.3177 155.564 55.699 155.473 56.0197 155.291C56.349 155.1 56.6047 154.844 56.7867 154.524C56.9773 154.203 57.0727 153.848 57.0727 153.458V151.677C57.0727 151.295 56.9297 150.988 56.6437 150.754C56.3663 150.511 55.998 150.39 55.5387 150.39C55.14 150.39 54.7847 150.494 54.4727 150.702C54.1693 150.901 53.944 151.17 53.7967 151.508L52.7437 150.962C52.8737 150.641 53.0817 150.355 53.3677 150.104C53.6537 149.844 53.9873 149.64 54.3687 149.493C54.75 149.345 55.1487 149.272 55.5647 149.272C56.102 149.272 56.5743 149.376 56.9817 149.584C57.389 149.783 57.7053 150.065 57.9307 150.429C58.1647 150.784 58.2817 151.2 58.2817 151.677V156.435H57.0987V155.109L57.3197 155.187C57.1723 155.464 56.973 155.707 56.7217 155.915C56.4703 156.123 56.1757 156.287 55.8377 156.409C55.4997 156.53 55.1313 156.591 54.7327 156.591Z" fill="#5C5C5A"/>
<path d="M245.326 156.591C244.711 156.591 244.147 156.478 243.636 156.253C243.125 156.019 242.691 155.702 242.336 155.304C241.981 154.905 241.725 154.459 241.569 153.965L242.674 153.51C242.908 154.134 243.255 154.615 243.714 154.953C244.182 155.282 244.728 155.447 245.352 155.447C245.733 155.447 246.067 155.386 246.353 155.265C246.639 155.143 246.86 154.974 247.016 154.758C247.181 154.532 247.263 154.272 247.263 153.978C247.263 153.57 247.146 153.25 246.912 153.016C246.687 152.773 246.353 152.591 245.911 152.47L244.13 151.924C243.428 151.707 242.891 151.365 242.518 150.897C242.145 150.429 241.959 149.891 241.959 149.285C241.959 148.756 242.085 148.292 242.336 147.894C242.596 147.486 242.951 147.17 243.402 146.945C243.861 146.711 244.381 146.594 244.962 146.594C245.543 146.594 246.067 146.698 246.535 146.906C247.012 147.114 247.415 147.395 247.744 147.751C248.073 148.097 248.316 148.496 248.472 148.947L247.38 149.402C247.172 148.856 246.86 148.444 246.444 148.167C246.028 147.881 245.538 147.738 244.975 147.738C244.628 147.738 244.321 147.798 244.052 147.92C243.792 148.032 243.588 148.201 243.441 148.427C243.302 148.643 243.233 148.903 243.233 149.207C243.233 149.562 243.346 149.878 243.571 150.156C243.796 150.433 244.139 150.645 244.598 150.793L246.223 151.274C246.986 151.508 247.562 151.841 247.952 152.275C248.342 152.708 248.537 153.245 248.537 153.887C248.537 154.415 248.398 154.883 248.121 155.291C247.852 155.698 247.475 156.019 246.99 156.253C246.513 156.478 245.959 156.591 245.326 156.591ZM250.259 156.435V149.428H251.468V156.435H250.259ZM250.259 148.31V146.75H251.468V148.31H250.259ZM256.685 159.295C256.191 159.295 255.732 159.217 255.307 159.061C254.891 158.905 254.532 158.688 254.228 158.411C253.934 158.142 253.708 157.826 253.552 157.462L254.683 156.942C254.805 157.271 255.034 157.548 255.372 157.774C255.719 158.008 256.152 158.125 256.672 158.125C257.071 158.125 257.431 158.047 257.751 157.891C258.081 157.743 258.341 157.518 258.531 157.215C258.722 156.92 258.817 156.56 258.817 156.136V154.563L259.038 154.797C258.796 155.273 258.445 155.637 257.985 155.889C257.535 156.14 257.036 156.266 256.49 156.266C255.832 156.266 255.242 156.114 254.722 155.811C254.202 155.499 253.795 155.078 253.5 154.55C253.206 154.012 253.058 153.419 253.058 152.769C253.058 152.11 253.206 151.516 253.5 150.988C253.795 150.459 254.198 150.043 254.709 149.74C255.229 149.428 255.819 149.272 256.477 149.272C257.023 149.272 257.517 149.397 257.959 149.649C258.41 149.891 258.77 150.229 259.038 150.663L258.856 150.988V149.428H260.039V156.136C260.039 156.742 259.896 157.284 259.61 157.761C259.324 158.237 258.926 158.61 258.414 158.879C257.912 159.156 257.335 159.295 256.685 159.295ZM256.594 155.096C257.01 155.096 257.383 154.992 257.712 154.784C258.05 154.576 258.319 154.298 258.518 153.952C258.718 153.596 258.817 153.202 258.817 152.769C258.817 152.344 258.718 151.954 258.518 151.599C258.319 151.243 258.05 150.962 257.712 150.754C257.383 150.546 257.01 150.442 256.594 150.442C256.17 150.442 255.784 150.546 255.437 150.754C255.091 150.962 254.818 151.243 254.618 151.599C254.428 151.945 254.332 152.335 254.332 152.769C254.332 153.202 254.428 153.596 254.618 153.952C254.818 154.298 255.086 154.576 255.424 154.784C255.771 154.992 256.161 155.096 256.594 155.096ZM261.914 156.435V149.428H263.097V150.793L262.902 150.676C263.075 150.234 263.352 149.891 263.734 149.649C264.124 149.397 264.579 149.272 265.099 149.272C265.601 149.272 266.048 149.384 266.438 149.61C266.836 149.835 267.148 150.147 267.374 150.546C267.608 150.944 267.725 151.395 267.725 151.898V156.435H266.503V152.288C266.503 151.898 266.433 151.568 266.295 151.3C266.156 151.031 265.957 150.823 265.697 150.676C265.445 150.52 265.155 150.442 264.826 150.442C264.496 150.442 264.202 150.52 263.942 150.676C263.69 150.823 263.491 151.035 263.344 151.313C263.196 151.581 263.123 151.906 263.123 152.288V156.435H261.914ZM271.509 156.591C271.049 156.591 270.642 156.508 270.287 156.344C269.94 156.17 269.667 155.936 269.468 155.642C269.268 155.338 269.169 154.992 269.169 154.602C269.169 154.229 269.247 153.895 269.403 153.601C269.567 153.297 269.819 153.042 270.157 152.834C270.503 152.626 270.937 152.478 271.457 152.392L274.057 151.963V152.977L271.73 153.367C271.279 153.445 270.95 153.588 270.742 153.796C270.542 154.004 270.443 154.259 270.443 154.563C270.443 154.849 270.555 155.087 270.781 155.278C271.015 155.468 271.305 155.564 271.652 155.564C272.094 155.564 272.475 155.473 272.796 155.291C273.125 155.1 273.381 154.844 273.563 154.524C273.753 154.203 273.849 153.848 273.849 153.458V151.677C273.849 151.295 273.706 150.988 273.42 150.754C273.142 150.511 272.774 150.39 272.315 150.39C271.916 150.39 271.561 150.494 271.249 150.702C270.945 150.901 270.72 151.17 270.573 151.508L269.52 150.962C269.65 150.641 269.858 150.355 270.144 150.104C270.43 149.844 270.763 149.64 271.145 149.493C271.526 149.345 271.925 149.272 272.341 149.272C272.878 149.272 273.35 149.376 273.758 149.584C274.165 149.783 274.481 150.065 274.707 150.429C274.941 150.784 275.058 151.2 275.058 151.677V156.435H273.875V155.109L274.096 155.187C273.948 155.464 273.749 155.707 273.498 155.915C273.246 156.123 272.952 156.287 272.614 156.409C272.276 156.53 271.907 156.591 271.509 156.591ZM276.932 156.435V146.594H278.141V156.435H276.932Z" fill="#5C5C5A"/>
<path d="M220 163.185C226.904 163.185 232.5 157.588 232.5 150.685C232.5 143.781 226.904 138.185 220 138.185C213.096 138.185 207.5 143.781 207.5 150.685C207.5 157.588 213.096 163.185 220 163.185Z" fill="#431A0A" stroke="#E8501A" stroke-width="2"/>
<path d="M219.25 151.435H214.75V149.935H219.25V145.435H220.75V149.935H225.25V151.435H220.75V155.935H219.25V151.435Z" fill="#E8501A"/>
<path d="M80 163.435C86.9036 163.435 92.5 157.838 92.5 150.935C92.5 144.031 86.9036 138.435 80 138.435C73.0964 138.435 67.5 144.031 67.5 150.935C67.5 157.838 73.0964 163.435 80 163.435Z" fill="#431A0A" stroke="#E8501A" stroke-width="2"/>
<path d="M84.7812 149.303C86.0938 148.716 86.75 148.01 86.75 147.185C86.75 146.36 86.0938 145.653 84.7812 145.066C83.4688 144.478 81.875 144.185 80 144.185C78.125 144.185 76.5312 144.478 75.2188 145.066C73.9062 145.653 73.25 146.36 73.25 147.185C73.25 148.01 73.9062 148.716 75.2188 149.303C76.5312 149.891 78.125 150.185 80 150.185C81.875 150.185 83.4688 149.891 84.7812 149.303ZM81.9222 151.901C82.6908 151.794 83.4312 151.622 84.1437 151.385C84.8562 151.147 85.4688 150.838 85.9813 150.457C86.4938 150.076 86.75 149.61 86.75 149.06V150.935C86.75 151.485 86.4938 151.95 85.9813 152.332C85.4688 152.713 84.8562 153.023 84.1437 153.26C83.4312 153.497 82.6908 153.669 81.9222 153.776C81.1537 153.883 80.513 153.936 80 153.935C79.487 153.934 78.8465 153.88 78.0785 153.775C77.3105 153.669 76.5697 153.498 75.8562 153.26C75.1427 153.022 74.5303 152.712 74.0188 152.332C73.5073 151.951 73.251 151.486 73.25 150.935V149.06C73.25 149.61 73.5063 150.075 74.0188 150.457C74.5313 150.838 75.1437 151.148 75.8562 151.385C76.5687 151.622 77.3095 151.794 78.0785 151.901C78.8475 152.008 79.488 152.061 80 152.06C80.512 152.059 81.1528 152.005 81.9222 151.9M81.9222 155.65C82.6908 155.544 83.4312 155.372 84.1437 155.135C84.8562 154.897 85.4688 154.588 85.9813 154.207C86.4938 153.826 86.75 153.36 86.75 152.81V154.685C86.75 155.235 86.4938 155.7 85.9813 156.082C85.4688 156.463 84.8562 156.773 84.1437 157.01C83.4312 157.247 82.6908 157.419 81.9222 157.526C81.1537 157.633 80.513 157.686 80 157.685C79.487 157.684 78.8465 157.63 78.0785 157.525C77.3105 157.419 76.5697 157.248 75.8562 157.01C75.1427 156.772 74.5303 156.462 74.0188 156.082C73.5073 155.701 73.251 155.236 73.25 154.685V152.81C73.25 153.36 73.5063 153.825 74.0188 154.207C74.5313 154.588 75.1437 154.898 75.8562 155.135C76.5687 155.372 77.3095 155.544 78.0785 155.651C78.8475 155.758 79.488 155.811 80 155.81C80.512 155.809 81.1528 155.755 81.9222 155.65Z" fill="#E8501A"/>
</svg>
