<svg width="234" height="204" viewBox="0 0 234 204" fill="none" xmlns="http://www.w3.org/2000/svg">
<path d="M212.742 5.82812H20.3996C12.352 5.82812 5.82812 12.352 5.82812 20.3996V183.6C5.82812 191.647 12.352 198.171 20.3996 198.171H212.742C220.79 198.171 227.314 191.647 227.314 183.6V20.3996C227.314 12.352 220.79 5.82812 212.742 5.82812Z" fill="white" stroke="#DADAD5" stroke-width="2.18571"/>
<path d="M212.742 4.95703H20.3996C12.352 4.95703 5.82812 11.4809 5.82812 19.5285C5.82812 27.576 12.352 34.0999 20.3996 34.0999H212.742C220.79 34.0999 227.314 27.576 227.314 19.5285C227.314 11.4809 220.79 4.95703 212.742 4.95703Z" fill="#F2EFE8" stroke="#DADAD5" stroke-width="2.18571"/>
<path d="M27.7372 15.0519V23H26.2857L22.8279 17.9975H22.7697V23H21.0892V15.0519H22.564L25.9947 20.0505H26.0645V15.0519H27.7372ZM31.8111 23.1164C31.198 23.1164 30.6702 22.9922 30.2277 22.7439C29.7879 22.4929 29.449 22.1384 29.211 21.6805C28.9729 21.22 28.8539 20.6754 28.8539 20.0466C28.8539 19.4335 28.9729 18.8953 29.211 18.4322C29.449 17.9691 29.784 17.6082 30.2161 17.3494C30.6508 17.0907 31.1605 16.9613 31.7452 16.9613C32.1384 16.9613 32.5045 17.0247 32.8435 17.1515C33.185 17.2757 33.4825 17.4633 33.7361 17.7142C33.9922 17.9652 34.1914 18.2808 34.3337 18.6612C34.476 19.0389 34.5472 19.4813 34.5472 19.9884V20.4425H29.5137V19.4179H32.9909C32.9909 19.1799 32.9392 18.9691 32.8357 18.7854C32.7322 18.6017 32.5886 18.4581 32.4049 18.3546C32.2238 18.2485 32.013 18.1955 31.7723 18.1955C31.5214 18.1955 31.2989 18.2537 31.1048 18.3701C30.9134 18.4839 30.7633 18.6379 30.6546 18.8319C30.546 19.0234 30.4904 19.2368 30.4878 19.4723V20.4464C30.4878 20.7413 30.5421 20.9962 30.6508 21.2109C30.762 21.4257 30.9185 21.5912 31.1204 21.7077C31.3222 21.8241 31.5615 21.8823 31.8383 21.8823C32.022 21.8823 32.1902 21.8564 32.3428 21.8047C32.4955 21.7529 32.6261 21.6753 32.7348 21.5718C32.8435 21.4683 32.9263 21.3416 32.9832 21.1915L34.5122 21.2924C34.4346 21.6598 34.2755 21.9806 34.0349 22.2549C33.7969 22.5265 33.489 22.7387 33.1112 22.8913C32.7361 23.0414 32.3027 23.1164 31.8111 23.1164ZM38.7967 17.039V18.2808H35.2069V17.039H38.7967ZM36.0219 15.6108H37.6752V21.1682C37.6752 21.3209 37.6985 21.4399 37.745 21.5253C37.7916 21.6081 37.8563 21.6663 37.9391 21.6999C38.0244 21.7335 38.1228 21.7504 38.234 21.7504C38.3116 21.7504 38.3892 21.7439 38.4669 21.731C38.5445 21.7154 38.604 21.7038 38.6454 21.696L38.9054 22.9263C38.8226 22.9521 38.7062 22.9819 38.5561 23.0155C38.4061 23.0517 38.2237 23.0737 38.0089 23.0815C37.6105 23.097 37.2612 23.044 36.9611 22.9224C36.6635 22.8008 36.432 22.6119 36.2664 22.3558C36.1008 22.0996 36.0193 21.7762 36.0219 21.3856V15.6108ZM41.0496 23L39.4274 17.039H41.1L42.0237 21.044H42.078L43.0405 17.039H44.6821L45.6601 21.0207H45.7105L46.6187 17.039H48.2874L46.6691 23H44.9188L43.8943 19.2511H43.8205L42.796 23H41.0496ZM51.7133 23.1164C51.1105 23.1164 50.5891 22.9884 50.1493 22.7322C49.7121 22.4735 49.3744 22.1139 49.1364 21.6533C48.8984 21.1902 48.7793 20.6534 48.7793 20.0428C48.7793 19.427 48.8984 18.8888 49.1364 18.4283C49.3744 17.9652 49.7121 17.6056 50.1493 17.3494C50.5891 17.0907 51.1105 16.9613 51.7133 16.9613C52.3161 16.9613 52.8362 17.0907 53.2734 17.3494C53.7132 17.6056 54.0522 17.9652 54.2902 18.4283C54.5282 18.8888 54.6472 19.427 54.6472 20.0428C54.6472 20.6534 54.5282 21.1902 54.2902 21.6533C54.0522 22.1139 53.7132 22.4735 53.2734 22.7322C52.8362 22.9884 52.3161 23.1164 51.7133 23.1164ZM51.7211 21.8357C51.9953 21.8357 52.2243 21.7581 52.408 21.6029C52.5917 21.4451 52.7301 21.2303 52.8232 20.9587C52.919 20.687 52.9668 20.3778 52.9668 20.0311C52.9668 19.6844 52.919 19.3753 52.8232 19.1036C52.7301 18.8319 52.5917 18.6172 52.408 18.4594C52.2243 18.3015 51.9953 18.2226 51.7211 18.2226C51.4442 18.2226 51.2114 18.3015 51.0225 18.4594C50.8362 18.6172 50.6952 18.8319 50.5995 19.1036C50.5063 19.3753 50.4598 19.6844 50.4598 20.0311C50.4598 20.3778 50.5063 20.687 50.5995 20.9587C50.6952 21.2303 50.8362 21.4451 51.0225 21.6029C51.2114 21.7581 51.4442 21.8357 51.7211 21.8357ZM55.7223 23V17.039H57.3251V18.079H57.3871C57.4958 17.7091 57.6782 17.4296 57.9344 17.2408C58.1905 17.0493 58.4854 16.9536 58.8192 16.9536C58.902 16.9536 58.9912 16.9588 59.087 16.9691C59.1827 16.9795 59.2668 16.9937 59.3392 17.0118V18.4788C59.2616 18.4555 59.1542 18.4348 59.0171 18.4167C58.88 18.3986 58.7545 18.3895 58.6407 18.3895C58.3975 18.3895 58.1801 18.4425 57.9887 18.5486C57.7998 18.6521 57.6498 18.797 57.5385 18.9833C57.4298 19.1696 57.3755 19.3843 57.3755 19.6275V23H55.7223ZM61.692 21.2846L61.6959 19.3015H61.9365L63.8459 17.039H65.7437L63.1784 20.035H62.7864L61.692 21.2846ZM60.194 23V15.0519H61.8473V23H60.194ZM63.9196 23L62.1655 20.4037L63.2677 19.2355L65.8562 23H63.9196ZM76.419 19.026C76.419 19.8927 76.2547 20.6301 75.9261 21.2381C75.6001 21.8461 75.1551 22.3105 74.5911 22.6313C74.0297 22.9495 73.3984 23.1087 72.6972 23.1087C71.9909 23.1087 71.357 22.9483 70.7956 22.6274C70.2342 22.3066 69.7905 21.8422 69.4645 21.2342C69.1385 20.6262 68.9755 19.8901 68.9755 19.026C68.9755 18.1592 69.1385 17.4219 69.4645 16.8139C69.7905 16.2059 70.2342 15.7427 70.7956 15.4245C71.357 15.1037 71.9909 14.9433 72.6972 14.9433C73.3984 14.9433 74.0297 15.1037 74.5911 15.4245C75.1551 15.7427 75.6001 16.2059 75.9261 16.8139C76.2547 17.4219 76.419 18.1592 76.419 19.026ZM74.7153 19.026C74.7153 18.4645 74.6312 17.9911 74.463 17.6056C74.2975 17.2201 74.0633 16.9277 73.7606 16.7285C73.4579 16.5293 73.1034 16.4297 72.6972 16.4297C72.291 16.4297 71.9366 16.5293 71.6339 16.7285C71.3312 16.9277 71.0957 17.2201 70.9276 17.6056C70.762 17.9911 70.6792 18.4645 70.6792 19.026C70.6792 19.5874 70.762 20.0609 70.9276 20.4464C71.0957 20.8319 71.3312 21.1242 71.6339 21.3235C71.9366 21.5227 72.291 21.6223 72.6972 21.6223C73.1034 21.6223 73.4579 21.5227 73.7606 21.3235C74.0633 21.1242 74.2975 20.8319 74.463 20.4464C74.6312 20.0609 74.7153 19.5874 74.7153 19.026ZM81.4554 20.4619V17.039H83.1087V23H81.5214V21.9172H81.4593C81.3248 22.2665 81.101 22.5472 80.7879 22.7594C80.4774 22.9715 80.0984 23.0776 79.6508 23.0776C79.2524 23.0776 78.9018 22.9871 78.5991 22.806C78.2964 22.6248 78.0597 22.3674 77.8889 22.0337C77.7207 21.6999 77.6353 21.3002 77.6328 20.8345V17.039H79.286V20.5395C79.2886 20.8914 79.383 21.1695 79.5693 21.3739C79.7556 21.5783 80.0053 21.6805 80.3183 21.6805C80.5175 21.6805 80.7038 21.6352 80.8772 21.5447C81.0505 21.4515 81.1902 21.3144 81.2963 21.1333C81.405 20.9522 81.458 20.7284 81.4554 20.4619ZM87.6018 17.039V18.2808H84.012V17.039H87.6018ZM84.8269 15.6108H86.4802V21.1682C86.4802 21.3209 86.5035 21.4399 86.5501 21.5253C86.5966 21.6081 86.6613 21.6663 86.7441 21.6999C86.8295 21.7335 86.9278 21.7504 87.039 21.7504C87.1167 21.7504 87.1943 21.7439 87.2719 21.731C87.3495 21.7154 87.409 21.7038 87.4504 21.696L87.7104 22.9263C87.6276 22.9521 87.5112 22.9819 87.3612 23.0155C87.2111 23.0517 87.0287 23.0737 86.814 23.0815C86.4155 23.097 86.0662 23.044 85.7661 22.9224C85.4686 22.8008 85.237 22.6119 85.0714 22.3558C84.9059 22.0996 84.8244 21.7762 84.8269 21.3856V15.6108ZM91.308 23.1164C90.6974 23.1164 90.1722 22.9871 89.7324 22.7283C89.2951 22.467 88.9588 22.1048 88.7233 21.6417C88.4905 21.1786 88.3741 20.6456 88.3741 20.0428C88.3741 19.4322 88.4918 18.8966 88.7272 18.4361C88.9653 17.973 89.3029 17.612 89.7401 17.3533C90.1774 17.092 90.6974 16.9613 91.3003 16.9613C91.8203 16.9613 92.2757 17.0558 92.6663 17.2446C93.057 17.4335 93.3662 17.6987 93.5939 18.0402C93.8215 18.3817 93.947 18.7828 93.9703 19.2433H92.4102C92.3662 18.9458 92.2498 18.7064 92.0609 18.5253C91.8746 18.3416 91.6301 18.2498 91.3274 18.2498C91.0713 18.2498 90.8475 18.3197 90.656 18.4594C90.4672 18.5965 90.3197 18.797 90.2136 19.0609C90.1075 19.3248 90.0545 19.6443 90.0545 20.0195C90.0545 20.3998 90.1062 20.7232 90.2097 20.9897C90.3158 21.2562 90.4646 21.4593 90.656 21.599C90.8475 21.7387 91.0713 21.8086 91.3274 21.8086C91.5163 21.8086 91.6858 21.7698 91.8358 21.6921C91.9885 21.6145 92.1139 21.502 92.2123 21.3545C92.3132 21.2044 92.3791 21.0246 92.4102 20.8151H93.9703C93.9444 21.2704 93.8202 21.6714 93.5977 22.0181C93.3778 22.3622 93.0738 22.6313 92.6857 22.8254C92.2976 23.0194 91.8384 23.1164 91.308 23.1164ZM97.7221 23.1164C97.1193 23.1164 96.598 22.9884 96.1582 22.7322C95.7209 22.4735 95.3833 22.1139 95.1452 21.6533C94.9072 21.1902 94.7882 20.6534 94.7882 20.0428C94.7882 19.427 94.9072 18.8888 95.1452 18.4283C95.3833 17.9652 95.7209 17.6056 96.1582 17.3494C96.598 17.0907 97.1193 16.9613 97.7221 16.9613C98.325 16.9613 98.845 17.0907 99.2823 17.3494C99.7221 17.6056 100.061 17.9652 100.299 18.4283C100.537 18.8888 100.656 19.427 100.656 20.0428C100.656 20.6534 100.537 21.1902 100.299 21.6533C100.061 22.1139 99.7221 22.4735 99.2823 22.7322C98.845 22.9884 98.325 23.1164 97.7221 23.1164ZM97.7299 21.8357C98.0042 21.8357 98.2331 21.7581 98.4168 21.6029C98.6005 21.4451 98.7389 21.2303 98.8321 20.9587C98.9278 20.687 98.9757 20.3778 98.9757 20.0311C98.9757 19.6844 98.9278 19.3753 98.8321 19.1036C98.7389 18.8319 98.6005 18.6172 98.4168 18.4594C98.2331 18.3015 98.0042 18.2226 97.7299 18.2226C97.4531 18.2226 97.2202 18.3015 97.0314 18.4594C96.8451 18.6172 96.7041 18.8319 96.6083 19.1036C96.5152 19.3753 96.4686 19.6844 96.4686 20.0311C96.4686 20.3778 96.5152 20.687 96.6083 20.9587C96.7041 21.2303 96.8451 21.4451 97.0314 21.6029C97.2202 21.7581 97.4531 21.8357 97.7299 21.8357ZM101.731 23V17.039H103.307V18.0907H103.377C103.501 17.7414 103.708 17.4659 103.998 17.2641C104.287 17.0622 104.634 16.9613 105.038 16.9613C105.446 16.9613 105.794 17.0635 106.082 17.2679C106.369 17.4697 106.56 17.744 106.656 18.0907H106.718C106.84 17.7492 107.06 17.4762 107.378 17.2718C107.699 17.0648 108.078 16.9613 108.515 16.9613C109.071 16.9613 109.523 17.1386 109.869 17.493C110.219 17.8449 110.393 18.3442 110.393 18.991V23H108.744V19.317C108.744 18.9859 108.656 18.7375 108.48 18.5719C108.304 18.4063 108.084 18.3235 107.82 18.3235C107.52 18.3235 107.286 18.4193 107.118 18.6107C106.95 18.7996 106.866 19.0493 106.866 19.3597V23H105.263V19.2821C105.263 18.9898 105.179 18.7569 105.01 18.5836C104.845 18.4102 104.626 18.3235 104.355 18.3235C104.171 18.3235 104.005 18.3701 103.858 18.4632C103.713 18.5538 103.598 18.6819 103.512 18.8475C103.427 19.0105 103.384 19.2019 103.384 19.4218V23H101.731ZM114.416 23.1164C113.803 23.1164 113.275 22.9922 112.832 22.7439C112.393 22.4929 112.054 22.1384 111.816 21.6805C111.578 21.22 111.459 20.6754 111.459 20.0466C111.459 19.4335 111.578 18.8953 111.816 18.4322C112.054 17.9691 112.389 17.6082 112.821 17.3494C113.255 17.0907 113.765 16.9613 114.35 16.9613C114.743 16.9613 115.109 17.0247 115.448 17.1515C115.79 17.2757 116.087 17.4633 116.341 17.7142C116.597 17.9652 116.796 18.2808 116.938 18.6612C117.081 19.0389 117.152 19.4813 117.152 19.9884V20.4425H112.118V19.4179H115.596C115.596 19.1799 115.544 18.9691 115.44 18.7854C115.337 18.6017 115.193 18.4581 115.01 18.3546C114.828 18.2485 114.618 18.1955 114.377 18.1955C114.126 18.1955 113.903 18.2537 113.709 18.3701C113.518 18.4839 113.368 18.6379 113.259 18.8319C113.151 19.0234 113.095 19.2368 113.092 19.4723V20.4464C113.092 20.7413 113.147 20.9962 113.255 21.2109C113.367 21.4257 113.523 21.5912 113.725 21.7077C113.927 21.8241 114.166 21.8823 114.443 21.8823C114.627 21.8823 114.795 21.8564 114.947 21.8047C115.1 21.7529 115.231 21.6753 115.339 21.5718C115.448 21.4683 115.531 21.3416 115.588 21.1915L117.117 21.2924C117.039 21.6598 116.88 21.9806 116.64 22.2549C116.401 22.5265 116.094 22.7387 115.716 22.8913C115.341 23.0414 114.907 23.1164 114.416 23.1164ZM123.19 18.7388L121.677 18.8319C121.651 18.7026 121.595 18.5861 121.51 18.4827C121.425 18.3766 121.312 18.2925 121.172 18.2304C121.035 18.1657 120.871 18.1334 120.68 18.1334C120.423 18.1334 120.207 18.1877 120.031 18.2964C119.855 18.4024 119.768 18.5447 119.768 18.7233C119.768 18.8656 119.824 18.9859 119.938 19.0842C120.052 19.1825 120.247 19.2614 120.524 19.3209L121.603 19.5383C122.183 19.6573 122.615 19.8487 122.899 20.1126C123.184 20.3765 123.326 20.7232 123.326 21.1527C123.326 21.5434 123.211 21.8862 122.981 22.1811C122.753 22.4761 122.44 22.7063 122.042 22.8719C121.646 23.0349 121.189 23.1164 120.672 23.1164C119.883 23.1164 119.254 22.9521 118.786 22.6236C118.32 22.2924 118.047 21.8422 117.967 21.273L119.593 21.1876C119.642 21.4282 119.761 21.6119 119.95 21.7387C120.139 21.8629 120.381 21.925 120.676 21.925C120.965 21.925 121.198 21.8694 121.374 21.7581C121.553 21.6443 121.643 21.4981 121.646 21.3196C121.643 21.1695 121.58 21.0466 121.456 20.9509C121.332 20.8526 121.14 20.7775 120.881 20.7258L119.849 20.5201C119.267 20.4037 118.834 20.2019 118.549 19.9147C118.267 19.6275 118.126 19.2614 118.126 18.8164C118.126 18.4335 118.229 18.1036 118.436 17.8268C118.646 17.5499 118.94 17.3365 119.317 17.1864C119.698 17.0364 120.143 16.9613 120.652 16.9613C121.405 16.9613 121.998 17.1205 122.43 17.4387C122.864 17.7569 123.118 18.1903 123.19 18.7388Z" fill="#1A1A1A"/>
<path d="M209.829 25.6855C213.048 25.6855 215.657 23.0759 215.657 19.8569C215.657 16.6379 213.048 14.0283 209.829 14.0283C206.61 14.0283 204 16.6379 204 19.8569C204 23.0759 206.61 25.6855 209.829 25.6855Z" fill="#E8501A"/>
<path d="M209.828 22.771C211.438 22.771 212.743 21.4662 212.743 19.8567C212.743 18.2472 211.438 16.9424 209.828 16.9424C208.219 16.9424 206.914 18.2472 206.914 19.8567C206.914 21.4662 208.219 22.771 209.828 22.771Z" fill="white"/>
<path d="M67.0275 46.6289H23.3132C18.4846 46.6289 14.5703 50.5432 14.5703 55.3718V78.6861C14.5703 83.5146 18.4846 87.4289 23.3132 87.4289H67.0275C71.856 87.4289 75.7703 83.5146 75.7703 78.6861V55.3718C75.7703 50.5432 71.856 46.6289 67.0275 46.6289Z" fill="#FFF0EB" stroke="#F4C4B0" stroke-width="1.45714"/>
<path d="M38.9787 58.8141C38.899 58.5702 38.794 58.3516 38.6636 58.1585C38.5356 57.9629 38.3822 57.7962 38.2036 57.6586C38.0273 57.521 37.8268 57.4159 37.6023 57.3435C37.3777 57.271 37.1314 57.2348 36.8634 57.2348C36.4239 57.2348 36.0242 57.3483 35.6644 57.5753C35.3046 57.8023 35.0185 58.1367 34.806 58.5786C34.5935 59.0205 34.4872 59.5626 34.4872 60.205C34.4872 60.8473 34.5947 61.3894 34.8096 61.8313C35.0245 62.2732 35.3155 62.6077 35.6825 62.8347C36.0496 63.0616 36.4625 63.1751 36.9213 63.1751C37.3463 63.1751 37.7206 63.0846 38.0442 62.9035C38.3702 62.72 38.6237 62.4616 38.8048 62.1283C38.9884 61.7927 39.0801 61.3979 39.0801 60.9439L39.3554 61.0018H37.1241V60.205H39.9494V61.0018C39.9494 61.6128 39.819 62.144 39.5582 62.5956C39.2999 63.0472 38.9425 63.3973 38.4861 63.646C38.0321 63.8923 37.5105 64.0155 36.9213 64.0155C36.2645 64.0155 35.6874 63.8609 35.1899 63.5518C34.6949 63.2428 34.3085 62.8033 34.0308 62.2334C33.7555 61.6635 33.6179 60.9874 33.6179 60.205C33.6179 59.6182 33.6964 59.0906 33.8533 58.6221C34.0127 58.1512 34.2373 57.7504 34.5271 57.4195C34.8168 57.0887 35.1597 56.8352 35.5558 56.6589C35.9518 56.4826 36.3876 56.3945 36.8634 56.3945C37.2545 56.3945 37.6192 56.4536 37.9572 56.5719C38.2977 56.6879 38.6008 56.8533 38.8664 57.0682C39.1344 57.2807 39.3578 57.5354 39.5365 57.8325C39.7152 58.1271 39.8384 58.4543 39.906 58.8141H38.9787ZM41.4879 56.4959H42.5601L45.0811 62.6536H45.1681L47.6891 56.4959H48.7612V63.9141H47.9209V58.278H47.8485L45.5303 63.9141H44.7189L42.4007 58.278H42.3283V63.9141H41.4879V56.4959ZM50.8666 56.4959L53.0689 62.7405H53.1558L55.3581 56.4959H56.2999L53.576 63.9141H52.6487L49.9249 56.4959H50.8666Z" fill="#E8501A"/>
<path d="M26.9115 79.7635V67.8414H27.6753V79.7635H26.9115ZM28.9374 71.7766C28.9001 71.401 28.7402 71.1091 28.4577 70.9011C28.1752 70.6931 27.7917 70.5891 27.3074 70.5891C26.9783 70.5891 26.7004 70.6357 26.4738 70.7288C26.2471 70.8188 26.0733 70.9446 25.9522 71.106C25.8342 71.2675 25.7752 71.4506 25.7752 71.6556C25.769 71.8263 25.8047 71.9753 25.8823 72.1026C25.9631 72.2299 26.0733 72.3401 26.213 72.4333C26.3527 72.5233 26.5141 72.6025 26.6973 72.6708C26.8805 72.736 27.0761 72.7919 27.2841 72.8384L28.141 73.0434C28.557 73.1365 28.9389 73.2607 29.2866 73.4159C29.6344 73.5712 29.9355 73.7621 30.1901 73.9887C30.4447 74.2154 30.6419 74.4824 30.7816 74.7898C30.9244 75.0971 30.9973 75.4495 31.0004 75.8469C30.9973 76.4306 30.8483 76.9367 30.5534 77.3651C30.2615 77.7905 29.8393 78.1211 29.2866 78.3571C28.7371 78.5899 28.0743 78.7063 27.2981 78.7063C26.5281 78.7063 25.8575 78.5884 25.2862 78.3524C24.7181 78.1164 24.2741 77.7672 23.9543 77.3046C23.6376 76.8389 23.4715 76.2629 23.456 75.5768H25.4073C25.4291 75.8966 25.5206 76.1636 25.6821 76.3778C25.8466 76.5889 26.0655 76.7488 26.3387 76.8575C26.615 76.9631 26.9271 77.0158 27.2748 77.0158C27.6163 77.0158 27.9128 76.9662 28.1643 76.8668C28.4189 76.7675 28.616 76.6293 28.7557 76.4523C28.8955 76.2754 28.9653 76.072 28.9653 75.8423C28.9653 75.628 28.9017 75.448 28.7744 75.302C28.6502 75.1561 28.467 75.0319 28.2248 74.9295C27.9858 74.827 27.6924 74.7339 27.3447 74.65L26.3061 74.3892C25.502 74.1937 24.8671 73.8878 24.4014 73.4718C23.9357 73.0558 23.7044 72.4954 23.7075 71.7906C23.7044 71.2131 23.8581 70.7086 24.1685 70.2771C24.4821 69.8455 24.9121 69.5086 25.4585 69.2665C26.005 69.0243 26.6259 68.9032 27.3214 68.9032C28.0292 68.9032 28.6471 69.0243 29.1749 69.2665C29.7058 69.5086 30.1187 69.8455 30.4137 70.2771C30.7086 70.7086 30.8607 71.2085 30.8701 71.7766H28.9374ZM36.4504 69.0336V78.5713H34.4339V70.9477H34.378L32.1938 72.3169V70.5285L34.555 69.0336H36.4504ZM38.7172 78.5713V77.1183L42.1122 73.9748C42.4009 73.6953 42.6431 73.4439 42.8387 73.2203C43.0374 72.9968 43.188 72.7779 43.2904 72.5637C43.3929 72.3463 43.4441 72.1119 43.4441 71.8605C43.4441 71.581 43.3805 71.3404 43.2532 71.1386C43.1259 70.9337 42.952 70.7769 42.7316 70.6683C42.5112 70.5565 42.2612 70.5006 41.9818 70.5006C41.69 70.5006 41.4354 70.5596 41.218 70.6776C41.0007 70.7955 40.8331 70.9648 40.7151 71.1852C40.5971 71.4056 40.5381 71.668 40.5381 71.9722H38.6241C38.6241 71.3482 38.7653 70.8064 39.0479 70.3469C39.3304 69.8874 39.7262 69.5319 40.2354 69.2805C40.7446 69.029 41.3314 68.9032 41.9958 68.9032C42.6788 68.9032 43.2734 69.0243 43.7794 69.2665C44.2886 69.5055 44.6844 69.8377 44.967 70.2631C45.2495 70.6884 45.3908 71.1759 45.3908 71.7254C45.3908 72.0856 45.3194 72.441 45.1765 72.7919C45.0368 73.1427 44.7869 73.5323 44.4268 73.9608C44.0666 74.3861 43.559 74.8969 42.9039 75.493L41.5114 76.8575V76.9227H45.5165V78.5713H38.7172ZM50.7173 78.7809C49.9163 78.7778 49.227 78.5806 48.6495 78.1894C48.0752 77.7982 47.6328 77.2316 47.3223 76.4896C47.0149 75.7476 46.8628 74.855 46.8659 73.8118C46.8659 72.7717 47.0196 71.8853 47.3269 71.1526C47.6374 70.4199 48.0798 69.8626 48.6542 69.4807C49.2317 69.0957 49.9194 68.9032 50.7173 68.9032C51.5152 68.9032 52.2013 69.0957 52.7757 69.4807C53.3532 69.8657 53.7972 70.4245 54.1076 71.1572C54.4181 71.8869 54.5718 72.7717 54.5687 73.8118C54.5687 74.8581 54.4134 75.7522 54.103 76.4942C53.7956 77.2363 53.3547 77.8029 52.7804 78.1941C52.206 78.5853 51.5183 78.7809 50.7173 78.7809ZM50.7173 77.109C51.2637 77.109 51.6999 76.8342 52.0259 76.2847C52.3519 75.7351 52.5134 74.9108 52.5103 73.8118C52.5103 73.0884 52.4357 72.4861 52.2867 72.0048C52.1408 71.5236 51.9328 71.1619 51.6627 70.9197C51.3957 70.6776 51.0805 70.5565 50.7173 70.5565C50.174 70.5565 49.7393 70.8281 49.4133 71.3715C49.0873 71.9148 48.9228 72.7282 48.9197 73.8118C48.9197 74.5445 48.9926 75.1561 49.1385 75.6467C49.2876 76.1341 49.4971 76.5004 49.7672 76.7457C50.0374 76.9879 50.354 77.109 50.7173 77.109ZM56.0624 69.0336H58.5493L61.1759 75.4417H61.2876L63.9142 69.0336H66.4011V78.5713H64.4451V72.3634H64.366L61.8977 78.5247H60.5658L58.0976 72.3401H58.0184V78.5713H56.0624V69.0336Z" fill="#E8501A"/>
<path d="M138.426 46.6289H94.7116C89.8831 46.6289 85.9688 50.5432 85.9688 55.3718V78.6861C85.9688 83.5146 89.8831 87.4289 94.7116 87.4289H138.426C143.254 87.4289 147.169 83.5146 147.169 78.6861V55.3718C147.169 50.5432 143.254 46.6289 138.426 46.6289Z" fill="#F2EFE8" stroke="#DADAD5" stroke-width="1.45714"/>
<path d="M109.888 58.8141H108.99C108.937 58.5557 108.844 58.3287 108.711 58.1331C108.58 57.9375 108.421 57.7733 108.233 57.6405C108.047 57.5053 107.84 57.4038 107.613 57.3362C107.386 57.2686 107.15 57.2348 106.903 57.2348C106.454 57.2348 106.047 57.3483 105.683 57.5753C105.32 57.8023 105.032 58.1367 104.817 58.5786C104.604 59.0205 104.498 59.5626 104.498 60.205C104.498 60.8473 104.604 61.3894 104.817 61.8313C105.032 62.2732 105.32 62.6077 105.683 62.8347C106.047 63.0616 106.454 63.1751 106.903 63.1751C107.15 63.1751 107.386 63.1413 107.613 63.0737C107.84 63.0061 108.047 62.9059 108.233 62.7731C108.421 62.6379 108.58 62.4724 108.711 62.2768C108.844 62.0788 108.937 61.8518 108.99 61.5959H109.888C109.82 61.975 109.697 62.3143 109.518 62.6137C109.34 62.9131 109.118 63.1679 108.852 63.378C108.586 63.5857 108.288 63.7438 107.957 63.8525C107.629 63.9612 107.278 64.0155 106.903 64.0155C106.271 64.0155 105.708 63.8609 105.215 63.5518C104.723 63.2428 104.335 62.8033 104.053 62.2334C103.77 61.6635 103.629 60.9874 103.629 60.205C103.629 59.4226 103.77 58.7464 104.053 58.1766C104.335 57.6067 104.723 57.1672 105.215 56.8581C105.708 56.549 106.271 56.3945 106.903 56.3945C107.278 56.3945 107.629 56.4488 107.957 56.5575C108.288 56.6661 108.586 56.8255 108.852 57.0356C109.118 57.2433 109.34 57.4968 109.518 57.7962C109.697 58.0933 109.82 58.4325 109.888 58.8141ZM113.484 64.03C112.982 64.03 112.541 63.9104 112.162 63.6714C111.785 63.4323 111.49 63.0979 111.278 62.668C111.068 62.2382 110.963 61.7359 110.963 61.1612C110.963 60.5817 111.068 60.0758 111.278 59.6435C111.49 59.2113 111.785 58.8756 112.162 58.6366C112.541 58.3975 112.982 58.278 113.484 58.278C113.986 58.278 114.426 58.3975 114.802 58.6366C115.181 58.8756 115.476 59.2113 115.686 59.6435C115.899 60.0758 116.005 60.5817 116.005 61.1612C116.005 61.7359 115.899 62.2382 115.686 62.668C115.476 63.0979 115.181 63.4323 114.802 63.6714C114.426 63.9104 113.986 64.03 113.484 64.03ZM113.484 63.2621C113.865 63.2621 114.179 63.1643 114.426 62.9687C114.672 62.7731 114.854 62.5159 114.973 62.1972C115.091 61.8784 115.15 61.5331 115.15 61.1612C115.15 60.7893 115.091 60.4428 114.973 60.1217C114.854 59.8005 114.672 59.5409 114.426 59.3429C114.179 59.1449 113.865 59.0459 113.484 59.0459C113.102 59.0459 112.788 59.1449 112.542 59.3429C112.296 59.5409 112.113 59.8005 111.995 60.1217C111.877 60.4428 111.818 60.7893 111.818 61.1612C111.818 61.5331 111.877 61.8784 111.995 62.1972C112.113 62.5159 112.296 62.7731 112.542 62.9687C112.788 63.1643 113.102 63.2621 113.484 63.2621ZM118.165 60.5672V63.9141H117.31V58.3504H118.136V59.2197H118.208C118.338 58.9372 118.536 58.7102 118.802 58.5388C119.068 58.3649 119.411 58.278 119.831 58.278C120.207 58.278 120.537 58.3553 120.82 58.5098C121.102 58.6619 121.322 58.8938 121.479 59.2053C121.636 59.5143 121.714 59.9055 121.714 60.3788V63.9141H120.859V60.4368C120.859 59.9997 120.746 59.6592 120.519 59.4153C120.292 59.169 119.98 59.0459 119.584 59.0459C119.312 59.0459 119.068 59.105 118.853 59.2234C118.64 59.3417 118.472 59.5143 118.349 59.7413C118.226 59.9683 118.165 60.2436 118.165 60.5672ZM127.627 58.3504L125.569 63.9141H124.7L122.642 58.3504H123.57L125.106 62.7839H125.163L126.699 58.3504H127.627ZM129.029 63.972C128.851 63.972 128.697 63.908 128.569 63.78C128.441 63.6521 128.377 63.4987 128.377 63.32C128.377 63.1413 128.441 62.988 128.569 62.86C128.697 62.732 128.851 62.668 129.029 62.668C129.208 62.668 129.361 62.732 129.489 62.86C129.617 62.988 129.681 63.1413 129.681 63.32C129.681 63.4384 129.651 63.547 129.591 63.646C129.533 63.745 129.454 63.8247 129.355 63.8851C129.259 63.943 129.15 63.972 129.029 63.972Z" fill="#7A776F"/>
<path d="M104.584 78.7017C104.093 78.6986 103.62 78.6163 103.163 78.4549C102.71 78.2934 102.303 78.0311 101.943 77.6678C101.583 77.3046 101.297 76.8233 101.086 76.2241C100.878 75.6249 100.774 74.8891 100.774 74.0167C100.777 73.2157 100.869 72.5 101.049 71.8698C101.232 71.2364 101.493 70.6993 101.831 70.2584C102.173 69.8176 102.581 69.4823 103.056 69.2525C103.531 69.0197 104.064 68.9032 104.654 68.9032C105.29 68.9032 105.852 69.0274 106.339 69.2758C106.827 69.5211 107.218 69.8548 107.513 70.2771C107.811 70.6993 107.991 71.1728 108.053 71.6975H106.065C105.987 71.3653 105.824 71.1045 105.576 70.9151C105.327 70.7257 105.02 70.631 104.654 70.631C104.033 70.631 103.561 70.9011 103.238 71.4413C102.918 71.9815 102.755 72.7158 102.749 73.6441H102.814C102.957 73.3616 103.149 73.121 103.391 72.9223C103.637 72.7205 103.915 72.5668 104.225 72.4612C104.539 72.3526 104.869 72.2982 105.217 72.2982C105.782 72.2982 106.285 72.4317 106.726 72.6987C107.167 72.9626 107.515 73.3259 107.769 73.7885C108.024 74.2511 108.151 74.7804 108.151 75.3765C108.151 76.0223 108 76.5967 107.699 77.0997C107.401 77.6026 106.984 77.9969 106.447 78.2826C105.913 78.5651 105.292 78.7048 104.584 78.7017ZM104.574 77.1183C104.885 77.1183 105.163 77.0438 105.408 76.8947C105.653 76.7457 105.846 76.5439 105.985 76.2893C106.125 76.0347 106.195 75.7491 106.195 75.4324C106.195 75.1157 106.125 74.8317 105.985 74.5802C105.849 74.3287 105.659 74.1285 105.417 73.9794C105.175 73.8304 104.899 73.7559 104.588 73.7559C104.355 73.7559 104.14 73.7994 103.941 73.8863C103.745 73.9732 103.573 74.0943 103.424 74.2495C103.278 74.4048 103.163 74.5848 103.079 74.7898C102.996 74.9916 102.954 75.2073 102.954 75.4371C102.954 75.7445 103.024 76.0254 103.163 76.28C103.306 76.5346 103.499 76.738 103.741 76.8901C103.986 77.0422 104.264 77.1183 104.574 77.1183ZM110.362 78.6924C110.055 78.6924 109.791 78.5837 109.57 78.3664C109.353 78.1459 109.244 77.882 109.244 77.5747C109.244 77.2704 109.353 77.0096 109.57 76.7923C109.791 76.575 110.055 76.4663 110.362 76.4663C110.66 76.4663 110.921 76.575 111.144 76.7923C111.368 77.0096 111.48 77.2704 111.48 77.5747C111.48 77.7796 111.427 77.9674 111.321 78.1382C111.219 78.3058 111.084 78.4409 110.916 78.5433C110.748 78.6427 110.564 78.6924 110.362 78.6924ZM112.945 76.8947V75.3067L116.927 69.0336H118.296V71.2318H117.486L114.976 75.2042V75.2787H120.634V76.8947H112.945ZM117.523 78.5713V76.4104L117.561 75.7072V69.0336H119.451V78.5713H117.523ZM127.198 76.783V76.28C127.198 75.8981 127.279 75.5473 127.441 75.2275C127.605 74.9046 127.843 74.6469 128.153 74.4544C128.467 74.2588 128.849 74.1611 129.299 74.1611C129.755 74.1611 130.139 74.2573 130.449 74.4498C130.763 74.6423 130.999 74.9 131.157 75.2229C131.318 75.5426 131.399 75.895 131.399 76.28V76.783C131.399 77.1649 131.318 77.5172 131.157 77.8401C130.995 78.1599 130.758 78.4161 130.444 78.6085C130.131 78.8041 129.749 78.9019 129.299 78.9019C128.842 78.9019 128.459 78.8041 128.148 78.6085C127.838 78.4161 127.602 78.1599 127.441 77.8401C127.279 77.5172 127.198 77.1649 127.198 76.783ZM128.554 76.28V76.783C128.554 77.0034 128.606 77.2114 128.712 77.407C128.821 77.6026 129.016 77.7004 129.299 77.7004C129.581 77.7004 129.774 77.6042 129.876 77.4117C129.982 77.2192 130.035 77.0096 130.035 76.783V76.28C130.035 76.0534 129.985 75.8423 129.886 75.6467C129.786 75.4511 129.591 75.3533 129.299 75.3533C129.019 75.3533 128.825 75.4511 128.717 75.6467C128.608 75.8423 128.554 76.0534 128.554 76.28ZM122.304 71.3249V70.8219C122.304 70.437 122.386 70.0846 122.551 69.7648C122.715 69.4419 122.953 69.1842 123.263 68.9917C123.577 68.7992 123.956 68.703 124.399 68.703C124.859 68.703 125.244 68.7992 125.554 68.9917C125.865 69.1842 126.101 69.4419 126.262 69.7648C126.424 70.0846 126.504 70.437 126.504 70.8219V71.3249C126.504 71.7099 126.422 72.0623 126.258 72.3821C126.096 72.7018 125.859 72.958 125.545 73.1505C125.235 73.3399 124.853 73.4346 124.399 73.4346C123.946 73.4346 123.563 73.3383 123.249 73.1458C122.939 72.9502 122.703 72.6941 122.541 72.3774C122.383 72.0576 122.304 71.7068 122.304 71.3249ZM123.668 70.8219V71.3249C123.668 71.5515 123.721 71.7611 123.827 71.9536C123.935 72.1461 124.126 72.2423 124.399 72.2423C124.685 72.2423 124.879 72.1461 124.982 71.9536C125.087 71.7611 125.14 71.5515 125.14 71.3249V70.8219C125.14 70.5953 125.09 70.3842 124.991 70.1886C124.892 69.993 124.694 69.8952 124.399 69.8952C124.123 69.8952 123.932 69.9945 123.827 70.1932C123.721 70.3919 123.668 70.6015 123.668 70.8219ZM122.919 78.5713L129.476 69.0336H130.696L124.139 78.5713H122.919Z" fill="#1A1A1A"/>
<path d="M209.826 46.6289H166.112C161.283 46.6289 157.369 50.5432 157.369 55.3718V78.6861C157.369 83.5146 161.283 87.4289 166.112 87.4289H209.826C214.655 87.4289 218.569 83.5146 218.569 78.6861V55.3718C218.569 50.5432 214.655 46.6289 209.826 46.6289Z" fill="#F2EFE8" stroke="#DADAD5" stroke-width="1.45714"/>
<path d="M169.293 56.4959H170.365L172.886 62.6536H172.973L175.494 56.4959H176.567V63.9141H175.726V58.278H175.654L173.336 63.9141H172.524L170.206 58.278H170.134V63.9141H169.293V56.4959ZM179.889 64.0445C179.536 64.0445 179.216 63.9781 178.929 63.8452C178.642 63.71 178.414 63.5156 178.244 63.2621C178.075 63.0061 177.991 62.697 177.991 62.3348C177.991 62.0161 178.054 61.7577 178.179 61.5597C178.305 61.3592 178.473 61.2023 178.683 61.0888C178.893 60.9753 179.125 60.8908 179.378 60.8352C179.634 60.7773 179.891 60.7314 180.15 60.6976C180.488 60.6541 180.762 60.6215 180.972 60.5998C181.184 60.5756 181.339 60.5358 181.436 60.4803C181.535 60.4247 181.584 60.3281 181.584 60.1905V60.1615C181.584 59.8041 181.486 59.5264 181.291 59.3284C181.098 59.1304 180.804 59.0314 180.411 59.0314C180.002 59.0314 179.682 59.1207 179.451 59.2994C179.219 59.4781 179.056 59.6689 178.962 59.8717L178.15 59.582C178.295 59.2439 178.488 58.9807 178.73 58.7923C178.974 58.6016 179.239 58.4687 179.527 58.3939C179.816 58.3166 180.101 58.278 180.382 58.278C180.56 58.278 180.766 58.2997 180.997 58.3432C181.232 58.3842 181.457 58.47 181.675 58.6004C181.894 58.7308 182.077 58.9276 182.222 59.1908C182.366 59.454 182.439 59.8065 182.439 60.2484V63.9141H181.584V63.1607H181.541C181.483 63.2814 181.386 63.4106 181.251 63.5482C181.116 63.6859 180.936 63.803 180.711 63.8996C180.487 63.9962 180.213 64.0445 179.889 64.0445ZM180.019 63.2766C180.357 63.2766 180.642 63.2102 180.874 63.0773C181.108 62.9445 181.285 62.7731 181.403 62.563C181.524 62.3529 181.584 62.132 181.584 61.9001V61.1178C181.548 61.1612 181.468 61.2011 181.345 61.2373C181.224 61.2711 181.084 61.3013 180.925 61.3278C180.768 61.352 180.615 61.3737 180.465 61.393C180.318 61.4099 180.198 61.4244 180.106 61.4365C179.884 61.4655 179.676 61.5126 179.483 61.5778C179.292 61.6406 179.138 61.7359 179.02 61.8639C178.904 61.9895 178.846 62.1609 178.846 62.3783C178.846 62.6753 178.956 62.8999 179.175 63.052C179.398 63.2017 179.679 63.2766 180.019 63.2766ZM183.999 63.9141V58.3504H184.825V59.1908H184.883C184.984 58.9155 185.168 58.6921 185.434 58.5207C185.699 58.3492 185.999 58.2635 186.332 58.2635C186.395 58.2635 186.473 58.2647 186.567 58.2671C186.661 58.2695 186.733 58.2732 186.781 58.278V59.1473C186.752 59.1401 186.686 59.1292 186.582 59.1147C186.48 59.0978 186.373 59.0893 186.259 59.0893C185.989 59.0893 185.747 59.1461 185.535 59.2596C185.325 59.3707 185.158 59.5252 185.035 59.7232C184.914 59.9188 184.854 60.1422 184.854 60.3933V63.9141H183.999ZM188.591 61.8857L188.577 60.828H188.751L191.185 58.3504H192.242L189.649 60.9729H189.576L188.591 61.8857ZM187.794 63.9141V56.4959H188.649V63.9141H187.794ZM191.33 63.9141L189.156 61.1612L189.765 60.5672L192.416 63.9141H191.33ZM195.446 64.03C194.91 64.03 194.448 63.9116 194.059 63.675C193.672 63.4359 193.374 63.1027 193.164 62.6753C192.956 62.2455 192.853 61.7456 192.853 61.1757C192.853 60.6058 192.956 60.1036 193.164 59.6689C193.374 59.2318 193.666 58.8913 194.041 58.6474C194.417 58.4011 194.857 58.278 195.359 58.278C195.649 58.278 195.935 58.3263 196.218 58.4229C196.5 58.5195 196.757 58.6764 196.989 58.8938C197.221 59.1087 197.406 59.3936 197.543 59.7486C197.681 60.1036 197.75 60.5406 197.75 61.0598V61.422H193.461V60.6831H196.88C196.88 60.3692 196.818 60.0891 196.692 59.8428C196.569 59.5964 196.393 59.4021 196.163 59.2596C195.936 59.1171 195.668 59.0459 195.359 59.0459C195.019 59.0459 194.724 59.1304 194.475 59.2994C194.229 59.4661 194.04 59.6834 193.907 59.9514C193.774 60.2195 193.707 60.5068 193.707 60.8135V61.3061C193.707 61.7263 193.78 62.0825 193.925 62.3746C194.072 62.6644 194.276 62.8854 194.537 63.0375C194.798 63.1872 195.101 63.2621 195.446 63.2621C195.671 63.2621 195.874 63.2307 196.055 63.1679C196.238 63.1027 196.396 63.0061 196.529 62.8781C196.662 62.7477 196.765 62.5859 196.837 62.3928L197.663 62.6246C197.576 62.9047 197.43 63.151 197.225 63.3635C197.019 63.5736 196.766 63.7378 196.464 63.8561C196.162 63.972 195.823 64.03 195.446 64.03ZM201.47 58.3504V59.0749H198.587V58.3504H201.47ZM199.427 57.0175H200.282V62.3203C200.282 62.5618 200.317 62.7429 200.387 62.8636C200.459 62.982 200.551 63.0616 200.662 63.1027C200.776 63.1413 200.895 63.1607 201.021 63.1607C201.115 63.1607 201.192 63.1558 201.252 63.1462C201.313 63.1341 201.361 63.1244 201.397 63.1172L201.571 63.8851C201.513 63.9068 201.432 63.9286 201.328 63.9503C201.225 63.9744 201.093 63.9865 200.934 63.9865C200.692 63.9865 200.456 63.9346 200.224 63.8308C199.994 63.7269 199.804 63.5688 199.651 63.3563C199.502 63.1438 199.427 62.8757 199.427 62.5521V57.0175ZM206.597 59.5964L205.829 59.8138C205.781 59.6858 205.71 59.5614 205.615 59.4407C205.524 59.3175 205.398 59.2161 205.239 59.1364C205.079 59.0567 204.875 59.0169 204.626 59.0169C204.286 59.0169 204.002 59.0954 203.775 59.2523C203.551 59.4069 203.438 59.6037 203.438 59.8428C203.438 60.0553 203.516 60.2231 203.67 60.3462C203.825 60.4694 204.066 60.572 204.395 60.6541L205.221 60.857C205.718 60.9777 206.089 61.1624 206.333 61.4112C206.576 61.6575 206.698 61.975 206.698 62.3638C206.698 62.6825 206.607 62.9675 206.423 63.2186C206.242 63.4697 205.988 63.6678 205.662 63.8126C205.336 63.9575 204.957 64.03 204.525 64.03C203.958 64.03 203.488 63.9068 203.116 63.6605C202.744 63.4142 202.509 63.0544 202.41 62.5811L203.221 62.3783C203.298 62.6777 203.444 62.9023 203.659 63.052C203.877 63.2017 204.16 63.2766 204.511 63.2766C204.909 63.2766 205.225 63.192 205.46 63.023C205.696 62.8516 205.815 62.6463 205.815 62.4072C205.815 62.2141 205.747 62.0523 205.612 61.9219C205.476 61.7891 205.269 61.6901 204.989 61.6249L204.061 61.4075C203.552 61.2868 203.178 61.0996 202.939 60.8461C202.702 60.5901 202.584 60.2702 202.584 59.8862C202.584 59.5723 202.672 59.2946 202.848 59.0531C203.027 58.8116 203.269 58.6221 203.576 58.4844C203.885 58.3468 204.235 58.278 204.626 58.278C205.177 58.278 205.609 58.3987 205.923 58.6402C206.24 58.8817 206.464 59.2004 206.597 59.5964Z" fill="#7A776F"/>
<path d="M180.827 69.0336V78.5713H178.811V70.9477H178.755L176.571 72.3169V70.5285L178.932 69.0336H180.827ZM186.834 78.7809C186.033 78.7778 185.343 78.5806 184.766 78.1894C184.191 77.7982 183.749 77.2316 183.439 76.4896C183.131 75.7476 182.979 74.855 182.982 73.8118C182.982 72.7717 183.136 71.8853 183.443 71.1526C183.754 70.4199 184.196 69.8626 184.77 69.4807C185.348 69.0957 186.036 68.9032 186.834 68.9032C187.631 68.9032 188.318 69.0957 188.892 69.4807C189.469 69.8657 189.913 70.4245 190.224 71.1572C190.534 71.8869 190.688 72.7717 190.685 73.8118C190.685 74.8581 190.53 75.7522 190.219 76.4942C189.912 77.2363 189.471 77.8029 188.897 78.1941C188.322 78.5853 187.635 78.7809 186.834 78.7809ZM186.834 77.109C187.38 77.109 187.816 76.8342 188.142 76.2847C188.468 75.7351 188.63 74.9108 188.627 73.8118C188.627 73.0884 188.552 72.4861 188.403 72.0048C188.257 71.5236 188.049 71.1619 187.779 70.9197C187.512 70.6776 187.197 70.5565 186.834 70.5565C186.29 70.5565 185.856 70.8281 185.53 71.3715C185.204 71.9148 185.039 72.7282 185.036 73.8118C185.036 74.5445 185.109 75.1561 185.255 75.6467C185.404 76.1341 185.613 76.5004 185.884 76.7457C186.154 76.9879 186.47 77.109 186.834 77.109ZM194.973 77.1183V70.5239H196.64V77.1183H194.973ZM192.509 74.6547V72.9875H199.104V74.6547H192.509Z" fill="#1A1A1A"/>
<path d="M209.827 99.0859H23.3132C18.4846 99.0859 14.5703 103 14.5703 107.829V177.772C14.5703 182.6 18.4846 186.515 23.3132 186.515H209.827C214.656 186.515 218.57 182.6 218.57 177.772V107.829C218.57 103 214.656 99.0859 209.827 99.0859Z" fill="#FAFAF8" stroke="#ECEAE5" stroke-width="1.45714"/>
<path opacity="0.2" d="M37.8837 166.114H29.1408C27.5313 166.114 26.2266 167.419 26.2266 169.029V174.857C26.2266 176.467 27.5313 177.771 29.1408 177.771H37.8837C39.4932 177.771 40.798 176.467 40.798 174.857V169.029C40.798 167.419 39.4932 166.114 37.8837 166.114Z" fill="#E8501A"/>
<path opacity="0.4" d="M58.2841 154.457H49.5412C47.9317 154.457 46.627 155.762 46.627 157.371V174.857C46.627 176.467 47.9317 177.771 49.5412 177.771H58.2841C59.8936 177.771 61.1984 176.467 61.1984 174.857V157.371C61.1984 155.762 59.8936 154.457 58.2841 154.457Z" fill="#E8501A"/>
<path opacity="0.55" d="M78.6864 139.886H69.9436C68.3341 139.886 67.0293 141.191 67.0293 142.8V174.857C67.0293 176.467 68.3341 177.771 69.9436 177.771H78.6864C80.296 177.771 81.6007 176.467 81.6007 174.857V142.8C81.6007 141.191 80.296 139.886 78.6864 139.886Z" fill="#E8501A"/>
<path opacity="0.7" d="M99.0849 128.229H90.342C88.7325 128.229 87.4277 129.534 87.4277 131.144V174.858C87.4277 176.468 88.7325 177.772 90.342 177.772H99.0849C100.694 177.772 101.999 176.468 101.999 174.858V131.144C101.999 129.534 100.694 128.229 99.0849 128.229Z" fill="#E8501A"/>
<path opacity="0.85" d="M119.485 113.657H110.742C109.133 113.657 107.828 114.962 107.828 116.572V174.857C107.828 176.467 109.133 177.772 110.742 177.772H119.485C121.095 177.772 122.4 176.467 122.4 174.857V116.572C122.4 114.962 121.095 113.657 119.485 113.657Z" fill="#E8501A"/>
<path d="M139.884 104.914H131.141C129.531 104.914 128.227 106.219 128.227 107.828V174.857C128.227 176.466 129.531 177.771 131.141 177.771H139.884C141.493 177.771 142.798 176.466 142.798 174.857V107.828C142.798 106.219 141.493 104.914 139.884 104.914Z" fill="#E8501A"/>
<path d="M160.284 110.742H151.541C149.932 110.742 148.627 112.047 148.627 113.656V174.856C148.627 176.466 149.932 177.771 151.541 177.771H160.284C161.894 177.771 163.198 176.466 163.198 174.856V113.656C163.198 112.047 161.894 110.742 160.284 110.742Z" fill="#E8501A"/>
<path d="M180.686 102H171.944C170.334 102 169.029 103.305 169.029 104.914V174.857C169.029 176.467 170.334 177.771 171.944 177.771H180.686C182.296 177.771 183.601 176.467 183.601 174.857V104.914C183.601 103.305 182.296 102 180.686 102Z" fill="#E8501A"/>
<path d="M201.085 107.828H192.342C190.733 107.828 189.428 109.133 189.428 110.742V174.857C189.428 176.466 190.733 177.771 192.342 177.771H201.085C202.694 177.771 203.999 176.466 203.999 174.857V110.742C203.999 109.133 202.694 107.828 201.085 107.828Z" fill="#E8501A"/>
</svg>
