<svg width="96" height="40" viewBox="0 0 96 40" fill="none" xmlns="http://www.w3.org/2000/svg">
<path d="M15.9336 11.2086V0.769043L-0.000451088 0.769043V11.2086L15.9336 11.2086Z" fill="white"/>
<path d="M49.7247 20.1097V19.9998C49.7247 13.4888 52.4225 7.70034 56.8127 3.59047V0.769043H45.5489L36.3731 15.6592L27.1973 0.769043H15.9336V39.2306H26.3731V17.1976L36.1533 32.1976H36.3731L46.2081 17.1427V39.2306H56.8127V36.5163C56.6863 36.3982 56.557 36.2855 56.4336 36.1646C52.1093 31.9449 49.7247 26.2443 49.7247 20.1124V20.1097Z" fill="#DC120F"/>
<path d="M74.8353 0C62.9672 0 54.0664 8.95604 54.0664 20V20.1099C54.0664 31.1538 62.8575 40 74.7255 40C86.5936 40 95.4948 31.044 95.4948 20V19.8901C95.4948 8.84617 86.7033 0 74.8353 0ZM84.5608 20.1099C84.5608 25.6593 80.6595 30.3846 74.8353 30.3846C69.0115 30.3846 64.9455 25.5494 64.9455 20V19.8901C64.9455 14.3406 68.8464 9.61541 74.7255 9.61541C80.6046 9.61541 84.5608 14.3956 84.5608 20V20.1099Z" fill="white"/>
</svg>
