<svg width="96" height="40" viewBox="0 0 96 40" fill="none" xmlns="http://www.w3.org/2000/svg">
<path d="M15.9355 11.2086V0.769043L0.00150204 0.769043V11.2086L15.9355 11.2086Z" fill="#111111"/>
<path d="M49.7266 20.1097V19.9998C49.7266 13.4888 52.4245 7.70034 56.8147 3.59047V0.769043H45.5509L36.3751 15.6592L27.1993 0.769043H15.9355V39.2306H26.3751V17.1976L36.1553 32.1976H36.3751L46.21 17.1427V39.2306H56.8147V36.5163C56.6883 36.3982 56.5589 36.2855 56.4355 36.1646C52.1113 31.9449 49.7266 26.2443 49.7266 20.1124V20.1097Z" fill="#DC120F"/>
<path d="M74.8372 0C62.9692 0 54.0684 8.95604 54.0684 20V20.1099C54.0684 31.1538 62.8594 40 74.7275 40C86.5955 40 95.4968 31.044 95.4968 20V19.8901C95.4968 8.84617 86.7053 0 74.8372 0ZM84.5628 20.1099C84.5628 25.6593 80.6615 30.3846 74.8372 30.3846C69.0134 30.3846 64.9475 25.5494 64.9475 20V19.8901C64.9475 14.3406 68.8483 9.61541 74.7275 9.61541C80.6066 9.61541 84.5628 14.3956 84.5628 20V20.1099Z" fill="#111111"/>
</svg>
