<svg width="96" height="40" viewBox="0 0 96 40" fill="none" xmlns="http://www.w3.org/2000/svg">
<path d="M15.9336 11.2091V0.769531L-0.000451088 0.769531V11.2091L15.9336 11.2091Z" fill="white"/>
<path d="M49.7247 20.1102V20.0003C49.7247 13.4893 52.4225 7.70083 56.8127 3.59096V0.769531H45.5489L36.3731 15.6596L27.1973 0.769531H15.9336V39.231H26.3731V17.1981L36.1533 32.1981H36.3731L46.2081 17.1432V39.231H56.8127V36.5168C56.6863 36.3987 56.557 36.286 56.4336 36.1651C52.1093 31.9453 49.7247 26.2448 49.7247 20.1129V20.1102Z" fill="white"/>
<path d="M74.8353 0C62.9672 0 54.0664 8.95604 54.0664 20V20.1099C54.0664 31.1538 62.8575 40 74.7255 40C86.5936 40 95.4948 31.044 95.4948 20V19.8901C95.4948 8.84617 86.7033 0 74.8353 0ZM84.5608 20.1099C84.5608 25.6593 80.6595 30.3846 74.8353 30.3846C69.0115 30.3846 64.9455 25.5494 64.9455 20V19.8901C64.9455 14.3406 68.8464 9.61541 74.7255 9.61541C80.6046 9.61541 84.5608 14.3956 84.5608 20V20.1099Z" fill="white"/>
</svg>
